{
copyright = "Digitized data Copyright (c) 2011-2013, vernon adams.";
customParameters = (
{
name = license;
value = "Copyright (c) 2013, vernon adams.\012\012This Font Software is licensed under the SIL Open Font License, Version 1.1.\012This license is copied below, and is also available with a FAQ at:\012http://scripts.sil.org/OFL\012";
},
{
name = licenseURL;
value = "http://scripts.sil.org/OFL";
},
{
name = vendorID;
value = NeWT;
}
);
date = "2014-02-10 20:51:42 +0000";
designer = "Vernon Adams";
designerURL = newtypography.co.uk;
familyName = "Amatic";
featurePrefixes = (
{
automatic = 1;
code = "languagesystem DFLT dflt;\012languagesystem latn dflt;\012languagesystem hebr dflt;\012languagesystem latn ROM;\012languagesystem latn MOL;\012languagesystem latn CAT;\012";
name = Languagesystems;
}
);
features = (
{
automatic = 1;
code = "feature ccmp;\012feature locl;\012feature frac;\012feature ordn;\012";
name = aalt;
},
{
automatic = 1;
code = "lookup latn_decomb {\012\011script latn;\012@CombiningTopAccents = [breveinvertedcomb commaturnedabovecomb dblgravecomb dotaccentcomb];\012@CombiningNonTopAccents = [dotaboverightcomb];\012\011sub [i j]' @CombiningTopAccents by [idotless jdotless];\012\011sub [i j]' @CombiningNonTopAccents @CombiningTopAccents by [idotless jdotless];\012} latn_decomb;\012";
name = ccmp;
},
{
automatic = 1;
code = "script latn;\012language ROM;\012sub Scedilla by Scommaaccent;\012sub scedilla by scommaaccent;\012sub Tcedilla by Tcommaaccent;\012sub tcedilla by tcommaaccent;\012language MOL;\012sub Scedilla by Scommaaccent;\012sub scedilla by scommaaccent;\012sub Tcedilla by Tcommaaccent;\012sub tcedilla by tcommaaccent;\012language CAT;\012sub  l' periodcentered' l by ldot;\012sub  L' periodcentered' L by Ldot;\012";
name = locl;
},
{
automatic = 1;
code = "sub one slash four by onequarter;\012sub one slash two by onehalf;\012sub three slash four by threequarters;\012";
name = frac;
},
{
automatic = 1;

glyphs = (
{
glyphname = A;
lastChange = "2015-11-10 11:24:47 +0000";
layers = (
{
layerId = "27A8C2A5-6B67-4598-967C-E5EC4FB8AE70";
name = Condensed;
paths = (
{
closed = 1;
nodes = (
"612 0 OFFCURVE",
"625 5 OFFCURVE",
"630 17 CURVE SMOOTH",
"635 28 OFFCURVE",
"636 37 OFFCURVE",
"636 57 CURVE SMOOTH",
"636 66 LINE SMOOTH",
"636 125 OFFCURVE",
"632 214 OFFCURVE",
"625 333 CURVE SMOOTH",
"617 452 OFFCURVE",
"613 541 OFFCURVE",
"613 600 CURVE",
"585 940 LINE SMOOTH",
"569 1120 OFFCURVE",
"532 1489 OFFCURVE",
"515 1516 CURVE",
"505 1529 OFFCURVE",
"489 1536 OFFCURVE",
"468 1536 CURVE SMOOTH",
"459 1536 OFFCURVE",
"450 1525 OFFCURVE",
"439 1502 CURVE SMOOTH",
"428 1479 OFFCURVE",
"418 1452 OFFCURVE",
"409 1419 CURVE SMOOTH",
"390 1353 OFFCURVE",
"379 1305 OFFCURVE",
"372 1274 CURVE SMOOTH",
"353 1189 OFFCURVE",
"329 1056 OFFCURVE",
"298 877 CURVE SMOOTH",
"267 698 OFFCURVE",
"241 562 OFFCURVE",
"220 471 CURVE SMOOTH",
"215 450 OFFCURVE",
"205 405 OFFCURVE",
"190 336 CURVE SMOOTH",
"175 267 OFFCURVE",
"161 204 OFFCURVE",
"148 147 CURVE SMOOTH",
"135 90 OFFCURVE",
"127 56 OFFCURVE",
"124 45 CURVE",
"124 44 OFFCURVE",
"124 43 OFFCURVE",
"124 42 CURVE",
"123 41 OFFCURVE",
"123 40 OFFCURVE",
"123 39 CURVE SMOOTH",
"123 20 OFFCURVE",
"145 5 OFFCURVE",
"165 5 CURVE SMOOTH",
"177 5 OFFCURVE",
"184 10 OFFCURVE",
"187 20 CURVE",
"188 27 OFFCURVE",
"224 189 OFFCURVE",
"250 292 CURVE SMOOTH",
"263 343 OFFCURVE",
"271 369 OFFCURVE",
"276 369 CURVE SMOOTH",
"347 369 OFFCURVE",
"552 338 OFFCURVE",
"552 303 CURVE SMOOTH",
"552 35 LINE SMOOTH",
"552 15 OFFCURVE",
"571 0 OFFCURVE",
"591 0 CURVE SMOOTH"
);
},
{
closed = 1;
nodes = (
"507 396 OFFCURVE",
"502 396 OFFCURVE",
"496 397 CURVE",
"490 397 OFFCURVE",
"486 397 OFFCURVE",
"484 397 CURVE SMOOTH",
"403 397 OFFCURVE",
"334 407 OFFCURVE",
"277 426 CURVE",
"277 438 LINE SMOOTH",
"277 483 OFFCURVE",
"289 532 OFFCURVE",
"307 594 CURVE SMOOTH",
"316 625 OFFCURVE",
"322 648 OFFCURVE",
"325 664 CURVE",
"352 780 OFFCURVE",
"383 957 OFFCURVE",
"409 1122 CURVE SMOOTH",
"435 1287 OFFCURVE",
"450 1371 OFFCURVE",
"473 1436 CURVE",
"473 1430 OFFCURVE",
"474 1422 OFFCURVE",
"477 1411 CURVE",
"479 1400 OFFCURVE",
"480 1393 OFFCURVE",
"481 1389 CURVE",
"488 1326 OFFCURVE",
"497 1246 OFFCURVE",
"506 1151 CURVE SMOOTH",
"524 960 OFFCURVE",
"550 601 OFFCURVE",
"550 416 CURVE SMOOTH",
"550 403 OFFCURVE",
"537 396 OFFCURVE",
"510 396 CURVE SMOOTH"
);
}
);
width = 800;
},
{
layerId = "156B637B-193E-48A3-AAC8-7B4A3960F885";
name = "Bold Condensed";
paths = (
{
closed = 1;
nodes = (
"662 1 OFFCURVE",
"685 24 OFFCURVE",
"685 70 CURVE SMOOTH",
"685 143 OFFCURVE",
"678 253 OFFCURVE",
"664 400 CURVE SMOOTH",
"649 546 OFFCURVE",
"642 649 OFFCURVE",
"642 710 CURVE SMOOTH",
"642 775 OFFCURVE",
"629 915 OFFCURVE",
"602 1130 CURVE SMOOTH",
"575 1345 OFFCURVE",
"562 1476 OFFCURVE",
"562 1525 CURVE",
"547 1537 OFFCURVE",
"525 1543 OFFCURVE",
"496 1543 CURVE SMOOTH",
"467 1543 OFFCURVE",
"437 1496 OFFCURVE",
"406 1401 CURVE SMOOTH",
"343 1212 OFFCURVE",
"290 912 OFFCURVE",
"242 631 CURVE SMOOTH",
"218 490 OFFCURVE",
"196 365 OFFCURVE",
"175 256 CURVE SMOOTH",
"154 146 OFFCURVE",
"137 82 OFFCURVE",
"124 64 CURVE",
"131 37 OFFCURVE",
"161 23 OFFCURVE",
"214 23 CURVE",
"246 76 OFFCURVE",
"263 178 OFFCURVE",
"281 269 CURVE SMOOTH",
"290 314 OFFCURVE",
"301 349 OFFCURVE",
"315 373 CURVE",
"394 368 OFFCURVE",
"515 348 OFFCURVE",
"554 321 CURVE",
"554 54 LINE SMOOTH",
"554 15 OFFCURVE",
"574 1 OFFCURVE",
"617 1 CURVE SMOOTH"
);
},
{
closed = 1;
nodes = (
"445 441 OFFCURVE",
"385 449 OFFCURVE",
"328 464 CURVE",
"333 583 OFFCURVE",
"442 1210 OFFCURVE",
"485 1254 CURVE",
"484 1251 OFFCURVE",
"484 1245 OFFCURVE",
"484 1236 CURVE SMOOTH",
"484 1161 OFFCURVE",
"507 912 OFFCURVE",
"531 670 CURVE SMOOTH",
"543 549 OFFCURVE",
"550 474 OFFCURVE",
"552 447 CURVE",
"536 443 OFFCURVE",
"522 441 OFFCURVE",
"510 441 CURVE SMOOTH"
);
}
);
width = 826;
}
);
note = A;
unicode = 0041;
},
{
glyphname = Aacute;
lastChange = "2015-11-10 11:24:47 +0000";
layers = (
{
layerId = "27A8C2A5-6B67-4598-967C-E5EC4FB8AE70";
name = Condensed;
paths = (
{
closed = 1;
nodes = (
"353 1875 OFFCURVE",
"372 1893 OFFCURVE",
"409 1923 CURVE SMOOTH",
"446 1953 OFFCURVE",
"487 1985 OFFCURVE",
"531 2019 CURVE SMOOTH",
"574 2052 OFFCURVE",
"600 2072 OFFCURVE",
"607 2079 CURVE",
"637 2079 OFFCURVE",
"652 2068 OFFCURVE",
"652 2047 CURVE SMOOTH",
"652 2046 OFFCURVE",
"650 2036 OFFCURVE",
"646 2016 CURVE",
"577 1985 OFFCURVE",
"492 1927 OFFCURVE",
"390 1840 CURVE",
"370 1840 OFFCURVE",
"353 1851 OFFCURVE",
"353 1870 CURVE SMOOTH"
);
},
{
closed = 1;
nodes = (
"277 426 LINE",
"334 407 OFFCURVE",
"403 397 OFFCURVE",
"484 397 CURVE SMOOTH",
"486 397 OFFCURVE",
"490 397 OFFCURVE",
"496 397 CURVE",
"502 396 OFFCURVE",
"507 396 OFFCURVE",
"510 396 CURVE SMOOTH",
"537 396 OFFCURVE",
"550 403 OFFCURVE",
"550 416 CURVE SMOOTH",
"550 601 OFFCURVE",
"524 960 OFFCURVE",
"506 1151 CURVE SMOOTH",
"497 1246 OFFCURVE",
"488 1326 OFFCURVE",
"481 1389 CURVE",
"480 1393 OFFCURVE",
"479 1400 OFFCURVE",
"477 1411 CURVE",
"474 1422 OFFCURVE",
"473 1430 OFFCURVE",
"473 1436 CURVE",
"450 1371 OFFCURVE",
"435 1287 OFFCURVE",
"409 1122 CURVE SMOOTH",
"383 957 OFFCURVE",
"352 780 OFFCURVE",
"325 664 CURVE",
"322 648 OFFCURVE",
"316 625 OFFCURVE",
"307 594 CURVE SMOOTH",
"289 532 OFFCURVE",
"277 483 OFFCURVE",
"277 438 CURVE SMOOTH"
);
},
{
closed = 1;
nodes = (
"552 303 LINE SMOOTH",
"552 338 OFFCURVE",
"347 369 OFFCURVE",
"276 369 CURVE SMOOTH",
"271 369 OFFCURVE",
"263 343 OFFCURVE",
"250 292 CURVE SMOOTH",
"224 189 OFFCURVE",
"188 27 OFFCURVE",
"187 20 CURVE",
"184 10 OFFCURVE",
"177 5 OFFCURVE",
"165 5 CURVE SMOOTH",
"145 5 OFFCURVE",
"123 20 OFFCURVE",
"123 39 CURVE SMOOTH",
"123 40 OFFCURVE",
"123 41 OFFCURVE",
"124 42 CURVE",
"124 43 OFFCURVE",
"124 44 OFFCURVE",
"124 45 CURVE",
"127 56 OFFCURVE",
"135 90 OFFCURVE",
"148 147 CURVE SMOOTH",
"161 204 OFFCURVE",
"175 267 OFFCURVE",
"190 336 CURVE SMOOTH",
"205 405 OFFCURVE",
"215 450 OFFCURVE",
"220 471 CURVE SMOOTH",
"241 562 OFFCURVE",
"267 698 OFFCURVE",
"298 877 CURVE SMOOTH",
"329 1056 OFFCURVE",
"353 1189 OFFCURVE",
"372 1274 CURVE SMOOTH",
"379 1305 OFFCURVE",
"390 1353 OFFCURVE",
"409 1419 CURVE SMOOTH",
"418 1452 OFFCURVE",
"428 1479 OFFCURVE",
"439 1502 CURVE SMOOTH",
"450 1525 OFFCURVE",
"459 1536 OFFCURVE",
"468 1536 CURVE SMOOTH",
"489 1536 OFFCURVE",
"505 1529 OFFCURVE",
"515 1516 CURVE",
"532 1489 OFFCURVE",
"569 1120 OFFCURVE",
"585 940 CURVE SMOOTH",
"613 600 LINE",
"613 541 OFFCURVE",
"617 452 OFFCURVE",
"625 333 CURVE SMOOTH",
"632 214 OFFCURVE",
"636 125 OFFCURVE",
"636 66 CURVE SMOOTH",
"636 57 LINE SMOOTH",
"636 37 OFFCURVE",
"635 28 OFFCURVE",
"630 17 CURVE SMOOTH",
"625 5 OFFCURVE",
"612 0 OFFCURVE",
"591 0 CURVE SMOOTH",
"571 0 OFFCURVE",
"552 15 OFFCURVE",
"552 35 CURVE SMOOTH"
);
}
);
width = 800;
},
{
layerId = "156B637B-193E-48A3-AAC8-7B4A3960F885";
name = "Bold Condensed";
paths = (
{
closed = 1;
nodes = (
"535 1735 OFFCURVE",
"584 1778 OFFCURVE",
"651 1835 CURVE SMOOTH",
"718 1892 OFFCURVE",
"758 1927 OFFCURVE",
"772 1940 CURVE",
"780 1943 OFFCURVE",
"786 1944 OFFCURVE",
"789 1944 CURVE SMOOTH",
"822 1944 OFFCURVE",
"856 1902 OFFCURVE",
"856 1867 CURVE SMOOTH",
"856 1853 OFFCURVE",
"851 1842 OFFCURVE",
"841 1835 CURVE SMOOTH",
"789 1797 OFFCURVE",
"690 1739 OFFCURVE",
"543 1662 CURVE",
"538 1659 OFFCURVE",
"532 1658 OFFCURVE",
"526 1658 CURVE SMOOTH",
"509 1658 OFFCURVE",
"493 1670 OFFCURVE",
"493 1685 CURVE SMOOTH",
"493 1692 OFFCURVE",
"497 1699 OFFCURVE",
"504 1706 CURVE SMOOTH"
);
},
{
closed = 1;
nodes = (
"484 1245 OFFCURVE",
"484 1251 OFFCURVE",
"485 1254 CURVE",
"442 1210 OFFCURVE",
"333 583 OFFCURVE",
"328 464 CURVE",
"385 449 OFFCURVE",
"445 441 OFFCURVE",
"510 441 CURVE SMOOTH",
"522 441 OFFCURVE",
"536 443 OFFCURVE",
"552 447 CURVE",
"550 474 OFFCURVE",
"543 549 OFFCURVE",
"531 670 CURVE SMOOTH",
"507 912 OFFCURVE",
"484 1161 OFFCURVE",
"484 1236 CURVE SMOOTH"
);
},
{
closed = 1;
nodes = (
"562 1476 OFFCURVE",
"575 1345 OFFCURVE",
"602 1130 CURVE SMOOTH",
"629 915 OFFCURVE",
"642 775 OFFCURVE",
"642 710 CURVE SMOOTH",
"642 649 OFFCURVE",
"649 546 OFFCURVE",
"664 400 CURVE SMOOTH",
"678 253 OFFCURVE",
"685 143 OFFCURVE",
"685 70 CURVE SMOOTH",
"685 24 OFFCURVE",
"662 1 OFFCURVE",
"617 1 CURVE SMOOTH",
"574 1 OFFCURVE",
"554 15 OFFCURVE",
"554 54 CURVE SMOOTH",
"554 321 LINE",
"515 348 OFFCURVE",
"394 368 OFFCURVE",
"315 373 CURVE",
"301 349 OFFCURVE",
"290 314 OFFCURVE",
"281 269 CURVE SMOOTH",
"263 178 OFFCURVE",
"246 76 OFFCURVE",
"214 23 CURVE",
"161 23 OFFCURVE",
"131 37 OFFCURVE",
"124 64 CURVE",
"137 82 OFFCURVE",
"154 146 OFFCURVE",
"175 256 CURVE SMOOTH",
"196 365 OFFCURVE",
"218 490 OFFCURVE",
"242 631 CURVE SMOOTH",
"290 912 OFFCURVE",
"343 1212 OFFCURVE",
"406 1401 CURVE SMOOTH",
"437 1496 OFFCURVE",
"467 1543 OFFCURVE",
"496 1543 CURVE SMOOTH",
"525 1543 OFFCURVE",
"547 1537 OFFCURVE",
"562 1525 CURVE"
);
}
);
width = 826;
}
);
note = Aacute;
unicode = 00C1;
},
{
glyphname = Abreve;
lastChange = "2015-11-10 11:24:48 +0000";
layers = (
{
layerId = "27A8C2A5-6B67-4598-967C-E5EC4FB8AE70";
name = Condensed;
paths = (
{
closed = 1;
nodes = (
"375 1959 LINE",
"384 1958 OFFCURVE",
"391 1948 OFFCURVE",
"395 1927 CURVE SMOOTH",
"402 1886 OFFCURVE",
"414 1819 OFFCURVE",
"447 1795 CURVE SMOOTH",
"469 1779 LINE",
"520 1779 LINE SMOOTH",
"556 1779 OFFCURVE",
"590 1844 OFFCURVE",
"590 1883 CURVE SMOOTH",
"590 1886 OFFCURVE",
"590 1891 OFFCURVE",
"589 1898 CURVE SMOOTH",
"588 1904 OFFCURVE",
"588 1909 OFFCURVE",
"588 1912 CURVE SMOOTH",
"588 1938 OFFCURVE",
"600 1951 OFFCURVE",
"625 1951 CURVE SMOOTH",
"640 1951 OFFCURVE",
"656 1938 OFFCURVE",
"656 1922 CURVE SMOOTH",
"656 1919 OFFCURVE",
"654 1913 OFFCURVE",
"651 1905 CURVE SMOOTH",
"648 1897 OFFCURVE",
"646 1892 OFFCURVE",
"645 1890 CURVE",
"650 1875 LINE",
"647 1868 OFFCURVE",
"641 1857 OFFCURVE",
"634 1840 CURVE SMOOTH",
"619 1806 OFFCURVE",
"617 1800 OFFCURVE",
"601 1777 CURVE SMOOTH",
"585 1753 OFFCURVE",
"572 1747 OFFCURVE",
"546 1739 CURVE",
"533 1734 OFFCURVE",
"518 1732 OFFCURVE",
"502 1732 CURVE SMOOTH",
"447 1732 OFFCURVE",
"405 1759 OFFCURVE",
"384 1802 CURVE SMOOTH",
"363 1845 OFFCURVE",
"353 1890 OFFCURVE",
"353 1941 CURVE"
);
},
{
closed = 1;
nodes = (
"277 426 LINE",
"334 407 OFFCURVE",
"403 397 OFFCURVE",
"484 397 CURVE SMOOTH",
"486 397 OFFCURVE",
"490 397 OFFCURVE",
"496 397 CURVE",
"502 396 OFFCURVE",
"507 396 OFFCURVE",
"510 396 CURVE SMOOTH",
"537 396 OFFCURVE",
"550 403 OFFCURVE",
"550 416 CURVE SMOOTH",
"550 601 OFFCURVE",
"524 960 OFFCURVE",
"506 1151 CURVE SMOOTH",
"497 1246 OFFCURVE",
"488 1326 OFFCURVE",
"481 1389 CURVE",
"480 1393 OFFCURVE",
"479 1400 OFFCURVE",
"477 1411 CURVE",
"474 1422 OFFCURVE",
"473 1430 OFFCURVE",
"473 1436 CURVE",
"450 1371 OFFCURVE",
"435 1287 OFFCURVE",
"409 1122 CURVE SMOOTH",
"383 957 OFFCURVE",
"352 780 OFFCURVE",
"325 664 CURVE",
"322 648 OFFCURVE",
"316 625 OFFCURVE",
"307 594 CURVE SMOOTH",
"289 532 OFFCURVE",
"277 483 OFFCURVE",
"277 438 CURVE SMOOTH"
);
},
{
closed = 1;
nodes = (
"552 303 LINE SMOOTH",
"552 338 OFFCURVE",
"347 369 OFFCURVE",
"276 369 CURVE SMOOTH",
"271 369 OFFCURVE",
"263 343 OFFCURVE",
"250 292 CURVE SMOOTH",
"224 189 OFFCURVE",
"188 27 OFFCURVE",
"187 20 CURVE",
"184 10 OFFCURVE",
"177 5 OFFCURVE",
"165 5 CURVE SMOOTH",
"145 5 OFFCURVE",
"123 20 OFFCURVE",
"123 39 CURVE SMOOTH",
"123 40 OFFCURVE",
"123 41 OFFCURVE",
"124 42 CURVE",
"124 43 OFFCURVE",
"124 44 OFFCURVE",
"124 45 CURVE",
"127 56 OFFCURVE",
"135 90 OFFCURVE",
"148 147 CURVE SMOOTH",
"161 204 OFFCURVE",
"175 267 OFFCURVE",
"190 336 CURVE SMOOTH",
"205 405 OFFCURVE",
"215 450 OFFCURVE",
"220 471 CURVE SMOOTH",
"241 562 OFFCURVE",
"267 698 OFFCURVE",
"298 877 CURVE SMOOTH",
"329 1056 OFFCURVE",
"353 1189 OFFCURVE",
"372 1274 CURVE SMOOTH",
"379 1305 OFFCURVE",
"390 1353 OFFCURVE",
"409 1419 CURVE SMOOTH",
"418 1452 OFFCURVE",
"428 1479 OFFCURVE",
"439 1502 CURVE SMOOTH",
"450 1525 OFFCURVE",
"459 1536 OFFCURVE",
"468 1536 CURVE SMOOTH",
"489 1536 OFFCURVE",
"505 1529 OFFCURVE",
"515 1516 CURVE",
"532 1489 OFFCURVE",
"569 1120 OFFCURVE",
"585 940 CURVE SMOOTH",
"613 600 LINE",
"613 541 OFFCURVE",
"617 452 OFFCURVE",
"625 333 CURVE SMOOTH",
"632 214 OFFCURVE",
"636 125 OFFCURVE",
"636 66 CURVE SMOOTH",
"636 57 LINE SMOOTH",
"636 37 OFFCURVE",
"635 28 OFFCURVE",
"630 17 CURVE SMOOTH",
"625 5 OFFCURVE",
"612 0 OFFCURVE",
"591 0 CURVE SMOOTH",
"571 0 OFFCURVE",
"552 15 OFFCURVE",
"552 35 CURVE SMOOTH"
);
}
);
width = 800;
},
{
layerId = "156B637B-193E-48A3-AAC8-7B4A3960F885";
name = "Bold Condensed";
paths = (
{
closed = 1;
nodes = (
"670 1777 OFFCURVE",
"617 1704 OFFCURVE",
"518 1704 CURVE SMOOTH",
"454 1704 OFFCURVE",
"406 1736 OFFCURVE",
"381 1785 CURVE SMOOTH",
"356 1833 OFFCURVE",
"345 1887 OFFCURVE",
"345 1947 CURVE SMOOTH",
"345 1964 OFFCURVE",
"360 1979 OFFCURVE",
"383 1979 CURVE SMOOTH",
"415 1979 OFFCURVE",
"441 1934 OFFCURVE",
"454 1889 CURVE SMOOTH",
"466 1844 OFFCURVE",
"487 1799 OFFCURVE",
"512 1799 CURVE SMOOTH",
"561 1799 OFFCURVE",
"582 1856 OFFCURVE",
"582 1893 CURVE SMOOTH",
"582 1944 OFFCURVE",
"593 1970 OFFCURVE",
"640 1970 CURVE SMOOTH",
"668 1970 OFFCURVE",
"694 1946 OFFCURVE",
"694 1918 CURVE SMOOTH",
"694 1897 OFFCURVE",
"693 1880 OFFCURVE",
"690 1868 CURVE SMOOTH"
);
},
{
closed = 1;
nodes = (
"484 1245 OFFCURVE",
"484 1251 OFFCURVE",
"485 1254 CURVE",
"442 1210 OFFCURVE",
"333 583 OFFCURVE",
"328 464 CURVE",
"385 449 OFFCURVE",
"445 441 OFFCURVE",
"510 441 CURVE SMOOTH",
"522 441 OFFCURVE",
"536 443 OFFCURVE",
"552 447 CURVE",
"550 474 OFFCURVE",
"543 549 OFFCURVE",
"531 670 CURVE SMOOTH",
"507 912 OFFCURVE",
"484 1161 OFFCURVE",
"484 1236 CURVE SMOOTH"
);
},
{
closed = 1;
nodes = (
"562 1476 OFFCURVE",
"575 1345 OFFCURVE",
"602 1130 CURVE SMOOTH",
"629 915 OFFCURVE",
"642 775 OFFCURVE",
"642 710 CURVE SMOOTH",
"642 649 OFFCURVE",
"649 546 OFFCURVE",
"664 400 CURVE SMOOTH",
"678 253 OFFCURVE",
"685 143 OFFCURVE",
"685 70 CURVE SMOOTH",
"685 24 OFFCURVE",
"662 1 OFFCURVE",
"617 1 CURVE SMOOTH",
"574 1 OFFCURVE",
"554 15 OFFCURVE",
"554 54 CURVE SMOOTH",
"554 321 LINE",
"515 348 OFFCURVE",
"394 368 OFFCURVE",
"315 373 CURVE",
"301 349 OFFCURVE",
"290 314 OFFCURVE",
"281 269 CURVE SMOOTH",
"263 178 OFFCURVE",
"246 76 OFFCURVE",
"214 23 CURVE",
"161 23 OFFCURVE",
"131 37 OFFCURVE",
"124 64 CURVE",
"137 82 OFFCURVE",
"154 146 OFFCURVE",
"175 256 CURVE SMOOTH",
"196 365 OFFCURVE",
"218 490 OFFCURVE",
"242 631 CURVE SMOOTH",
"290 912 OFFCURVE",
"343 1212 OFFCURVE",
"406 1401 CURVE SMOOTH",
"437 1496 OFFCURVE",
"467 1543 OFFCURVE",
"496 1543 CURVE SMOOTH",
"525 1543 OFFCURVE",
"547 1537 OFFCURVE",
"562 1525 CURVE"
);
}
);
width = 826;
}
);
note = Abreve;
unicode = 0102;
},
{
glyphname = Acaron;
lastChange = "2015-11-10 12:19:53 +0000";
layers = (
{
layerId = "27A8C2A5-6B67-4598-967C-E5EC4FB8AE70";
name = Condensed;
paths = (
{
closed = 1;
nodes = (
"571 2064 LINE",
"596 2060 OFFCURVE",
"608 2052 OFFCURVE",
"608 2040 CURVE SMOOTH",
"608 2035 OFFCURVE",
"605 2028 OFFCURVE",
"600 2017 CURVE",
"602 2007 LINE",
"587 1976 LINE",
"589 1964 LINE",
"584 1947 OFFCURVE",
"576 1922 OFFCURVE",
"565 1890 CURVE SMOOTH",
"541 1825 OFFCURVE",
"528 1777 OFFCURVE",
"528 1724 CURVE SMOOTH",
"528 1695 OFFCURVE",
"518 1681 OFFCURVE",
"499 1681 CURVE SMOOTH",
"458 1681 OFFCURVE",
"330 1967 OFFCURVE",
"327 2027 CURVE",
"364 2054 LINE",
"399 2007 LINE",
"400 1994 OFFCURVE",
"406 1970 OFFCURVE",
"417 1937 CURVE SMOOTH",
"438 1870 OFFCURVE",
"482 1748 OFFCURVE",
"485 1741 CURVE",
"518 1863 OFFCURVE",
"537 1965 OFFCURVE",
"544 2048 CURVE"
);
},
{
closed = 1;
nodes = (
"277 426 LINE",
"334 407 OFFCURVE",
"403 397 OFFCURVE",
"484 397 CURVE SMOOTH",
"486 397 OFFCURVE",
"490 397 OFFCURVE",
"496 397 CURVE",
"502 396 OFFCURVE",
"507 396 OFFCURVE",
"510 396 CURVE SMOOTH",
"537 396 OFFCURVE",
"550 403 OFFCURVE",
"550 416 CURVE SMOOTH",
"550 601 OFFCURVE",
"524 960 OFFCURVE",
"506 1151 CURVE SMOOTH",
"497 1246 OFFCURVE",
"488 1326 OFFCURVE",
"481 1389 CURVE",
"480 1393 OFFCURVE",
"479 1400 OFFCURVE",
"477 1411 CURVE",
"474 1422 OFFCURVE",
"473 1430 OFFCURVE",
"473 1436 CURVE",
"450 1371 OFFCURVE",
"435 1287 OFFCURVE",
"409 1122 CURVE SMOOTH",
"383 957 OFFCURVE",
"352 780 OFFCURVE",
"325 664 CURVE",
"322 648 OFFCURVE",
"316 625 OFFCURVE",
"307 594 CURVE SMOOTH",
"289 532 OFFCURVE",
"277 483 OFFCURVE",
"277 438 CURVE SMOOTH"
);
},
{
closed = 1;
nodes = (
"552 303 LINE SMOOTH",
"552 338 OFFCURVE",
"347 369 OFFCURVE",
"276 369 CURVE SMOOTH",
"271 369 OFFCURVE",
"263 343 OFFCURVE",
"250 292 CURVE SMOOTH",
"224 189 OFFCURVE",
"188 27 OFFCURVE",
"187 20 CURVE",
"184 10 OFFCURVE",
"177 5 OFFCURVE",
"165 5 CURVE SMOOTH",
"145 5 OFFCURVE",
"123 20 OFFCURVE",
"123 39 CURVE SMOOTH",
"123 40 OFFCURVE",
"123 41 OFFCURVE",
"124 42 CURVE",
"124 43 OFFCURVE",
"124 44 OFFCURVE",
"124 45 CURVE",
"127 56 OFFCURVE",
"135 90 OFFCURVE",
"148 147 CURVE SMOOTH",
"161 204 OFFCURVE",
"175 267 OFFCURVE",
"190 336 CURVE SMOOTH",
"205 405 OFFCURVE",
"215 450 OFFCURVE",
"220 471 CURVE SMOOTH",
"241 562 OFFCURVE",
"267 698 OFFCURVE",
"298 877 CURVE SMOOTH",
"329 1056 OFFCURVE",
"353 1189 OFFCURVE",
"372 1274 CURVE SMOOTH",
"379 1305 OFFCURVE",
"390 1353 OFFCURVE",
"409 1419 CURVE SMOOTH",
"418 1452 OFFCURVE",
"428 1479 OFFCURVE",
"439 1502 CURVE SMOOTH",
"450 1525 OFFCURVE",
"459 1536 OFFCURVE",
"468 1536 CURVE SMOOTH",
"489 1536 OFFCURVE",
"505 1529 OFFCURVE",
"515 1516 CURVE",
"532 1489 OFFCURVE",
"569 1120 OFFCURVE",
"585 940 CURVE SMOOTH",
"613 600 LINE",
"613 541 OFFCURVE",
"617 452 OFFCURVE",
"625 333 CURVE SMOOTH",
"632 214 OFFCURVE",
"636 125 OFFCURVE",
"636 66 CURVE SMOOTH",
"636 57 LINE SMOOTH",
"636 37 OFFCURVE",
"635 28 OFFCURVE",
"630 17 CURVE SMOOTH",
"625 5 OFFCURVE",
"612 0 OFFCURVE",
"591 0 CURVE SMOOTH",
"571 0 OFFCURVE",
"552 15 OFFCURVE",
"552 35 CURVE SMOOTH"
);
}
);
width = 800;
},
{
components = (
{
name = A;
},
{
name = caron;
transform = "{1, 0, 0, 1, 134, 394}";
}
);
layerId = "156B637B-193E-48A3-AAC8-7B4A3960F885";
name = "Bold Condensed";
width = 826;
}
);
note = uni01CD;
unicode = 01CD;
},
{
glyphname = Acircumflex;
lastChange = "2015-11-10 11:24:48 +0000";
layers = (
{
layerId = "27A8C2A5-6B67-4598-967C-E5EC4FB8AE70";
name = Condensed;
paths = (
{
closed = 1;
nodes = (
"554 1698 LINE",
"547 1781 OFFCURVE",
"528 1883 OFFCURVE",
"495 2005 CURVE",
"492 1998 OFFCURVE",
"448 1876 OFFCURVE",
"427 1809 CURVE SMOOTH",
"416 1776 OFFCURVE",
"410 1752 OFFCURVE",
"409 1739 CURVE",
"374 1692 LINE",
"337 1718 LINE",
"340 1778 OFFCURVE",
"468 2064 OFFCURVE",
"509 2064 CURVE SMOOTH",
"528 2064 OFFCURVE",
"538 2050 OFFCURVE",
"538 2021 CURVE SMOOTH",
"538 1968 OFFCURVE",
"551 1920 OFFCURVE",
"575 1856 CURVE SMOOTH",
"586 1824 OFFCURVE",
"594 1799 OFFCURVE",
"599 1782 CURVE",
"597 1769 LINE",
"612 1739 LINE",
"610 1728 LINE",
"615 1717 OFFCURVE",
"618 1710 OFFCURVE",
"618 1706 CURVE SMOOTH",
"618 1693 OFFCURVE",
"606 1685 OFFCURVE",
"581 1681 CURVE"
);
},
{
closed = 1;
nodes = (
"277 426 LINE",
"334 407 OFFCURVE",
"403 397 OFFCURVE",
"484 397 CURVE SMOOTH",
"486 397 OFFCURVE",
"490 397 OFFCURVE",
"496 397 CURVE",
"502 396 OFFCURVE",
"507 396 OFFCURVE",
"510 396 CURVE SMOOTH",
"537 396 OFFCURVE",
"550 403 OFFCURVE",
"550 416 CURVE SMOOTH",
"550 601 OFFCURVE",
"524 960 OFFCURVE",
"506 1151 CURVE SMOOTH",
"497 1246 OFFCURVE",
"488 1326 OFFCURVE",
"481 1389 CURVE",
"480 1393 OFFCURVE",
"479 1400 OFFCURVE",
"477 1411 CURVE",
"474 1422 OFFCURVE",
"473 1430 OFFCURVE",
"473 1436 CURVE",
"450 1371 OFFCURVE",
"435 1287 OFFCURVE",
"409 1122 CURVE SMOOTH",
"383 957 OFFCURVE",
"352 780 OFFCURVE",
"325 664 CURVE",
"322 648 OFFCURVE",
"316 625 OFFCURVE",
"307 594 CURVE SMOOTH",
"289 532 OFFCURVE",
"277 483 OFFCURVE",
"277 438 CURVE SMOOTH"
);
},
{
closed = 1;
nodes = (
"552 303 LINE SMOOTH",
"552 338 OFFCURVE",
"347 369 OFFCURVE",
"276 369 CURVE SMOOTH",
"271 369 OFFCURVE",
"263 343 OFFCURVE",
"250 292 CURVE SMOOTH",
"224 189 OFFCURVE",
"188 27 OFFCURVE",
"187 20 CURVE",
"184 10 OFFCURVE",
"177 5 OFFCURVE",
"165 5 CURVE SMOOTH",
"145 5 OFFCURVE",
"123 20 OFFCURVE",
"123 39 CURVE SMOOTH",
"123 40 OFFCURVE",
"123 41 OFFCURVE",
"124 42 CURVE",
"124 43 OFFCURVE",
"124 44 OFFCURVE",
"124 45 CURVE",
"127 56 OFFCURVE",
"135 90 OFFCURVE",
"148 147 CURVE SMOOTH",
"161 204 OFFCURVE",
"175 267 OFFCURVE",
"190 336 CURVE SMOOTH",
"205 405 OFFCURVE",
"215 450 OFFCURVE",
"220 471 CURVE SMOOTH",
"241 562 OFFCURVE",
"267 698 OFFCURVE",
"298 877 CURVE SMOOTH",
"329 1056 OFFCURVE",
"353 1189 OFFCURVE",
"372 1274 CURVE SMOOTH",
"379 1305 OFFCURVE",
"390 1353 OFFCURVE",
"409 1419 CURVE SMOOTH",
"418 1452 OFFCURVE",
"428 1479 OFFCURVE",
"439 1502 CURVE SMOOTH",
"450 1525 OFFCURVE",
"459 1536 OFFCURVE",
"468 1536 CURVE SMOOTH",
"489 1536 OFFCURVE",
"505 1529 OFFCURVE",
"515 1516 CURVE",
"532 1489 OFFCURVE",
"569 1120 OFFCURVE",
"585 940 CURVE SMOOTH",
"613 600 LINE",
"613 541 OFFCURVE",
"617 452 OFFCURVE",
"625 333 CURVE SMOOTH",
"632 214 OFFCURVE",
"636 125 OFFCURVE",
"636 66 CURVE SMOOTH",
"636 57 LINE SMOOTH",
"636 37 OFFCURVE",
"635 28 OFFCURVE",
"630 17 CURVE SMOOTH",
"625 5 OFFCURVE",
"612 0 OFFCURVE",
"591 0 CURVE SMOOTH",
"571 0 OFFCURVE",
"552 15 OFFCURVE",
"552 35 CURVE SMOOTH"
);
}
);
width = 800;
},
{
layerId = "156B637B-193E-48A3-AAC8-7B4A3960F885";
name = "Bold Condensed";
paths = (
{
closed = 1;
nodes = (
"417 1724 LINE",
"413 1715 OFFCURVE",
"403 1710 OFFCURVE",
"388 1710 CURVE SMOOTH",
"361 1710 OFFCURVE",
"336 1725 OFFCURVE",
"336 1750 CURVE SMOOTH",
"336 1757 OFFCURVE",
"337 1763 OFFCURVE",
"340 1769 CURVE",
"365 1829 OFFCURVE",
"398 1913 OFFCURVE",
"413 1950 CURVE SMOOTH",
"428 1987 OFFCURVE",
"450 2038 OFFCURVE",
"462 2058 CURVE SMOOTH",
"474 2078 OFFCURVE",
"492 2100 OFFCURVE",
"509 2107 CURVE SMOOTH",
"517 2110 OFFCURVE",
"526 2112 OFFCURVE",
"537 2112 CURVE SMOOTH",
"547 2112 OFFCURVE",
"557 2105 OFFCURVE",
"566 2092 CURVE SMOOTH",
"585 2065 OFFCURVE",
"604 2005 OFFCURVE",
"618 1954 CURVE SMOOTH",
"625 1928 OFFCURVE",
"633 1895 OFFCURVE",
"644 1855 CURVE SMOOTH",
"654 1814 OFFCURVE",
"663 1782 OFFCURVE",
"670 1757 CURVE SMOOTH",
"672 1750 OFFCURVE",
"673 1744 OFFCURVE",
"673 1739 CURVE SMOOTH",
"673 1711 OFFCURVE",
"650 1696 OFFCURVE",
"626 1696 CURVE SMOOTH",
"612 1696 OFFCURVE",
"603 1701 OFFCURVE",
"600 1710 CURVE",
"520 1986 LINE"
);
},
{
closed = 1;
nodes = (
"484 1245 OFFCURVE",
"484 1251 OFFCURVE",
"485 1254 CURVE",
"442 1210 OFFCURVE",
"333 583 OFFCURVE",
"328 464 CURVE",
"385 449 OFFCURVE",
"445 441 OFFCURVE",
"510 441 CURVE SMOOTH",
"522 441 OFFCURVE",
"536 443 OFFCURVE",
"552 447 CURVE",
"550 474 OFFCURVE",
"543 549 OFFCURVE",
"531 670 CURVE SMOOTH",
"507 912 OFFCURVE",
"484 1161 OFFCURVE",
"484 1236 CURVE SMOOTH"
);
},
{
closed = 1;
nodes = (
"562 1476 OFFCURVE",
"575 1345 OFFCURVE",
"602 1130 CURVE SMOOTH",
"629 915 OFFCURVE",
"642 775 OFFCURVE",
"642 710 CURVE SMOOTH",
"642 649 OFFCURVE",
"649 546 OFFCURVE",
"664 400 CURVE SMOOTH",
"678 253 OFFCURVE",
"685 143 OFFCURVE",
"685 70 CURVE SMOOTH",
"685 24 OFFCURVE",
"662 1 OFFCURVE",
"617 1 CURVE SMOOTH",
"574 1 OFFCURVE",
"554 15 OFFCURVE",
"554 54 CURVE SMOOTH",
"554 321 LINE",
"515 348 OFFCURVE",
"394 368 OFFCURVE",
"315 373 CURVE",
"301 349 OFFCURVE",
"290 314 OFFCURVE",
"281 269 CURVE SMOOTH",
"263 178 OFFCURVE",
"246 76 OFFCURVE",
"214 23 CURVE",
"161 23 OFFCURVE",
"131 37 OFFCURVE",
"124 64 CURVE",
"137 82 OFFCURVE",
"154 146 OFFCURVE",
"175 256 CURVE SMOOTH",
"196 365 OFFCURVE",
"218 490 OFFCURVE",
"242 631 CURVE SMOOTH",
"290 912 OFFCURVE",
"343 1212 OFFCURVE",
"406 1401 CURVE SMOOTH",
"437 1496 OFFCURVE",
"467 1543 OFFCURVE",
"496 1543 CURVE SMOOTH",
"525 1543 OFFCURVE",
"547 1537 OFFCURVE",
"562 1525 CURVE"
);
}
);
width = 826;
}
);
note = Acircumflex;
unicode = 00C2;
},
{
glyphname = Adblgrave;
lastChange = "2015-11-10 12:19:53 +0000";
layers = (
{
layerId = "27A8C2A5-6B67-4598-967C-E5EC4FB8AE70";
name = Condensed;
paths = (
{
closed = 1;
nodes = (
"335 1940 OFFCURVE",
"367 1910 OFFCURVE",
"367 1900 CURVE SMOOTH",
"367 1890 OFFCURVE",
"363 1885 OFFCURVE",
"356 1885 CURVE SMOOTH",
"351 1885 OFFCURVE",
"337 1892 OFFCURVE",
"314 1907 CURVE SMOOTH",
"291 1921 OFFCURVE",
"266 1937 OFFCURVE",
"240 1955 CURVE",
"213 1972 OFFCURVE",
"197 1983 OFFCURVE",
"190 1986 CURVE",
"133 2016 OFFCURVE",
"96 2034 OFFCURVE",
"80 2041 CURVE",
"-27 2101 LINE",
"-23 2122 OFFCURVE",
"0 2151 OFFCURVE",
"15 2151 CURVE SMOOTH",
"22 2151 OFFCURVE",
"60 2131 OFFCURVE",
"130 2091 CURVE",
"159 2073 OFFCURVE",
"205 2039 OFFCURVE",
"270 1990 CURVE SMOOTH"
);
},
{
closed = 1;
nodes = (
"615 1879 LINE",
"592 1884 OFFCURVE",
"564 1899 OFFCURVE",
"530 1924 CURVE SMOOTH",
"496 1949 OFFCURVE",
"472 1964 OFFCURVE",
"459 1970 CURVE",
"436 1986 OFFCURVE",
"374 2034 OFFCURVE",
"273 2115 CURVE",
"264 2120 OFFCURVE",
"260 2127 OFFCURVE",
"260 2135 CURVE SMOOTH",
"260 2148 OFFCURVE",
"277 2166 OFFCURVE",
"282 2166 CURVE SMOOTH",
"306 2166 OFFCURVE",
"617 1918 OFFCURVE",
"624 1890 CURVE"
);
},
{
closed = 1;
nodes = (
"277 426 LINE",
"334 407 OFFCURVE",
"403 397 OFFCURVE",
"484 397 CURVE SMOOTH",
"486 397 OFFCURVE",
"490 397 OFFCURVE",
"496 397 CURVE",
"502 396 OFFCURVE",
"507 396 OFFCURVE",
"510 396 CURVE SMOOTH",
"537 396 OFFCURVE",
"550 403 OFFCURVE",
"550 416 CURVE SMOOTH",
"550 601 OFFCURVE",
"524 960 OFFCURVE",
"506 1151 CURVE SMOOTH",
"497 1246 OFFCURVE",
"488 1326 OFFCURVE",
"481 1389 CURVE",
"480 1393 OFFCURVE",
"479 1400 OFFCURVE",
"477 1411 CURVE",
"474 1422 OFFCURVE",
"473 1430 OFFCURVE",
"473 1436 CURVE",
"450 1371 OFFCURVE",
"435 1287 OFFCURVE",
"409 1122 CURVE SMOOTH",
"383 957 OFFCURVE",
"352 780 OFFCURVE",
"325 664 CURVE",
"322 648 OFFCURVE",
"316 625 OFFCURVE",
"307 594 CURVE SMOOTH",
"289 532 OFFCURVE",
"277 483 OFFCURVE",
"277 438 CURVE SMOOTH"
);
},
{
closed = 1;
nodes = (
"552 303 LINE SMOOTH",
"552 338 OFFCURVE",
"347 369 OFFCURVE",
"276 369 CURVE SMOOTH",
"271 369 OFFCURVE",
"263 343 OFFCURVE",
"250 292 CURVE SMOOTH",
"224 189 OFFCURVE",
"188 27 OFFCURVE",
"187 20 CURVE",
"184 10 OFFCURVE",
"177 5 OFFCURVE",
"165 5 CURVE SMOOTH",
"145 5 OFFCURVE",
"123 20 OFFCURVE",
"123 39 CURVE SMOOTH",
"123 40 OFFCURVE",
"123 41 OFFCURVE",
"124 42 CURVE",
"124 43 OFFCURVE",
"124 44 OFFCURVE",
"124 45 CURVE",
"127 56 OFFCURVE",
"135 90 OFFCURVE",
"148 147 CURVE SMOOTH",
"161 204 OFFCURVE",
"175 267 OFFCURVE",
"190 336 CURVE SMOOTH",
"205 405 OFFCURVE",
"215 450 OFFCURVE",
"220 471 CURVE SMOOTH",
"241 562 OFFCURVE",
"267 698 OFFCURVE",
"298 877 CURVE SMOOTH",
"329 1056 OFFCURVE",
"353 1189 OFFCURVE",
"372 1274 CURVE SMOOTH",
"379 1305 OFFCURVE",
"390 1353 OFFCURVE",
"409 1419 CURVE SMOOTH",
"418 1452 OFFCURVE",
"428 1479 OFFCURVE",
"439 1502 CURVE SMOOTH",
"450 1525 OFFCURVE",
"459 1536 OFFCURVE",
"468 1536 CURVE SMOOTH",
"489 1536 OFFCURVE",
"505 1529 OFFCURVE",
"515 1516 CURVE",
"532 1489 OFFCURVE",
"569 1120 OFFCURVE",
"585 940 CURVE SMOOTH",
"613 600 LINE",
"613 541 OFFCURVE",
"617 452 OFFCURVE",
"625 333 CURVE SMOOTH",
"632 214 OFFCURVE",
"636 125 OFFCURVE",
"636 66 CURVE SMOOTH",
"636 57 LINE SMOOTH",
"636 37 OFFCURVE",
"635 28 OFFCURVE",
"630 17 CURVE SMOOTH",
"625 5 OFFCURVE",
"612 0 OFFCURVE",
"591 0 CURVE SMOOTH",
"571 0 OFFCURVE",
"552 15 OFFCURVE",
"552 35 CURVE SMOOTH"
);
}
);
width = 800;
},
{
components = (
{
name = A;
},
{
name = dblgravecomb;
transform = "{1, 0, 0, 1, 100, 300}";
}
);
layerId = "156B637B-193E-48A3-AAC8-7B4A3960F885";
name = "Bold Condensed";
width = 826;
}
);
note = uni0200;
unicode = 0200;
},
{
glyphname = Adieresis;
lastChange = "2015-11-10 11:24:47 +0000";
layers = (
{
layerId = "27A8C2A5-6B67-4598-967C-E5EC4FB8AE70";
name = Condensed;
paths = (
{
closed = 1;
nodes = (
"205 1887 OFFCURVE",
"230 1914 OFFCURVE",
"254 1914 CURVE SMOOTH",
"283 1914 OFFCURVE",
"295 1880 OFFCURVE",
"295 1847 CURVE SMOOTH",
"295 1824 OFFCURVE",
"268 1812 OFFCURVE",
"244 1812 CURVE SMOOTH",
"221 1812 OFFCURVE",
"205 1840 OFFCURVE",
"205 1863 CURVE SMOOTH"
);
},
{
closed = 1;
nodes = (
"665 1890 OFFCURVE",
"690 1916 OFFCURVE",
"715 1916 CURVE SMOOTH",
"738 1916 OFFCURVE",
"760 1888 OFFCURVE",
"760 1867 CURVE SMOOTH",
"760 1836 OFFCURVE",
"742 1820 OFFCURVE",
"706 1820 CURVE SMOOTH",
"685 1820 OFFCURVE",
"665 1844 OFFCURVE",
"665 1865 CURVE SMOOTH"
);
},
{
closed = 1;
nodes = (
"277 426 LINE",
"334 407 OFFCURVE",
"403 397 OFFCURVE",
"484 397 CURVE SMOOTH",
"486 397 OFFCURVE",
"490 397 OFFCURVE",
"496 397 CURVE",
"502 396 OFFCURVE",
"507 396 OFFCURVE",
"510 396 CURVE SMOOTH",
"537 396 OFFCURVE",
"550 403 OFFCURVE",
"550 416 CURVE SMOOTH",
"550 601 OFFCURVE",
"524 960 OFFCURVE",
"506 1151 CURVE SMOOTH",
"497 1246 OFFCURVE",
"488 1326 OFFCURVE",
"481 1389 CURVE",
"480 1393 OFFCURVE",
"479 1400 OFFCURVE",
"477 1411 CURVE",
"474 1422 OFFCURVE",
"473 1430 OFFCURVE",
"473 1436 CURVE",
"450 1371 OFFCURVE",
"435 1287 OFFCURVE",
"409 1122 CURVE SMOOTH",
"383 957 OFFCURVE",
"352 780 OFFCURVE",
"325 664 CURVE",
"322 648 OFFCURVE",
"316 625 OFFCURVE",
"307 594 CURVE SMOOTH",
"289 532 OFFCURVE",
"277 483 OFFCURVE",
"277 438 CURVE SMOOTH"
);
},
{
closed = 1;
nodes = (
"552 303 LINE SMOOTH",
"552 338 OFFCURVE",
"347 369 OFFCURVE",
"276 369 CURVE SMOOTH",
"271 369 OFFCURVE",
"263 343 OFFCURVE",
"250 292 CURVE SMOOTH",
"224 189 OFFCURVE",
"188 27 OFFCURVE",
"187 20 CURVE",
"184 10 OFFCURVE",
"177 5 OFFCURVE",
"165 5 CURVE SMOOTH",
"145 5 OFFCURVE",
"123 20 OFFCURVE",
"123 39 CURVE SMOOTH",
"123 40 OFFCURVE",
"123 41 OFFCURVE",
"124 42 CURVE",
"124 43 OFFCURVE",
"124 44 OFFCURVE",
"124 45 CURVE",
"127 56 OFFCURVE",
"135 90 OFFCURVE",
"148 147 CURVE SMOOTH",
"161 204 OFFCURVE",
"175 267 OFFCURVE",
"190 336 CURVE SMOOTH",
"205 405 OFFCURVE",
"215 450 OFFCURVE",
"220 471 CURVE SMOOTH",
"241 562 OFFCURVE",
"267 698 OFFCURVE",
"298 877 CURVE SMOOTH",
"329 1056 OFFCURVE",
"353 1189 OFFCURVE",
"372 1274 CURVE SMOOTH",
"379 1305 OFFCURVE",
"390 1353 OFFCURVE",
"409 1419 CURVE SMOOTH",
"418 1452 OFFCURVE",
"428 1479 OFFCURVE",
"439 1502 CURVE SMOOTH",
"450 1525 OFFCURVE",
"459 1536 OFFCURVE",
"468 1536 CURVE SMOOTH",
"489 1536 OFFCURVE",
"505 1529 OFFCURVE",
"515 1516 CURVE",
"532 1489 OFFCURVE",
"569 1120 OFFCURVE",
"585 940 CURVE SMOOTH",
"613 600 LINE",
"613 541 OFFCURVE",
"617 452 OFFCURVE",
"625 333 CURVE SMOOTH",
"632 214 OFFCURVE",
"636 125 OFFCURVE",
"636 66 CURVE SMOOTH",
"636 57 LINE SMOOTH",
"636 37 OFFCURVE",
"635 28 OFFCURVE",
"630 17 CURVE SMOOTH",
"625 5 OFFCURVE",
"612 0 OFFCURVE",
"591 0 CURVE SMOOTH",
"571 0 OFFCURVE",
"552 15 OFFCURVE",
"552 35 CURVE SMOOTH"
);
}
);
width = 800;
},
{
layerId = "156B637B-193E-48A3-AAC8-7B4A3960F885";
name = "Bold Condensed";
paths = (
{
closed = 1;
nodes = (
"581 1822 OFFCURVE",
"617 1860 OFFCURVE",
"658 1860 CURVE SMOOTH",
"697 1860 OFFCURVE",
"731 1822 OFFCURVE",
"731 1783 CURVE SMOOTH",
"731 1738 OFFCURVE",
"697 1708 OFFCURVE",
"650 1708 CURVE SMOOTH",
"613 1708 OFFCURVE",
"581 1744 OFFCURVE",
"581 1781 CURVE SMOOTH"
);
},
{
closed = 1;
nodes = (
"251 1832 OFFCURVE",
"287 1870 OFFCURVE",
"328 1870 CURVE SMOOTH",
"367 1870 OFFCURVE",
"401 1832 OFFCURVE",
"401 1793 CURVE SMOOTH",
"401 1748 OFFCURVE",
"367 1718 OFFCURVE",
"320 1718 CURVE SMOOTH",
"283 1718 OFFCURVE",
"251 1754 OFFCURVE",
"251 1791 CURVE SMOOTH"
);
},
{
closed = 1;
nodes = (
"484 1245 OFFCURVE",
"484 1251 OFFCURVE",
"485 1254 CURVE",
"442 1210 OFFCURVE",
"333 583 OFFCURVE",
"328 464 CURVE",
"385 449 OFFCURVE",
"445 441 OFFCURVE",
"510 441 CURVE SMOOTH",
"522 441 OFFCURVE",
"536 443 OFFCURVE",
"552 447 CURVE",
"550 474 OFFCURVE",
"543 549 OFFCURVE",
"531 670 CURVE SMOOTH",
"507 912 OFFCURVE",
"484 1161 OFFCURVE",
"484 1236 CURVE SMOOTH"
);
},
{
closed = 1;
nodes = (
"562 1476 OFFCURVE",
"575 1345 OFFCURVE",
"602 1130 CURVE SMOOTH",
"629 915 OFFCURVE",
"642 775 OFFCURVE",
"642 710 CURVE SMOOTH",
"642 649 OFFCURVE",
"649 546 OFFCURVE",
"664 400 CURVE SMOOTH",
"678 253 OFFCURVE",
"685 143 OFFCURVE",
"685 70 CURVE SMOOTH",
"685 24 OFFCURVE",
"662 1 OFFCURVE",
"617 1 CURVE SMOOTH",
"574 1 OFFCURVE",
"554 15 OFFCURVE",
"554 54 CURVE SMOOTH",
"554 321 LINE",
"515 348 OFFCURVE",
"394 368 OFFCURVE",
"315 373 CURVE",
"301 349 OFFCURVE",
"290 314 OFFCURVE",
"281 269 CURVE SMOOTH",
"263 178 OFFCURVE",
"246 76 OFFCURVE",
"214 23 CURVE",
"161 23 OFFCURVE",
"131 37 OFFCURVE",
"124 64 CURVE",
"137 82 OFFCURVE",
"154 146 OFFCURVE",
"175 256 CURVE SMOOTH",
"196 365 OFFCURVE",
"218 490 OFFCURVE",
"242 631 CURVE SMOOTH",
"290 912 OFFCURVE",
"343 1212 OFFCURVE",
"406 1401 CURVE SMOOTH",
"437 1496 OFFCURVE",
"467 1543 OFFCURVE",
"496 1543 CURVE SMOOTH",
"525 1543 OFFCURVE",
"547 1537 OFFCURVE",
"562 1525 CURVE"
);
}
);
width = 826;
}
);
note = Adieresis;
unicode = 00C4;
},
{
glyphname = Adotaccent;
lastChange = "2015-11-10 12:19:53 +0000";
layers = (
{
layerId = "27A8C2A5-6B67-4598-967C-E5EC4FB8AE70";
name = Condensed;
paths = (
{
closed = 1;
nodes = (
"419 1960 OFFCURVE",
"445 1988 OFFCURVE",
"472 1988 CURVE SMOOTH",
"496 1988 OFFCURVE",
"521 1959 OFFCURVE",
"521 1935 CURVE SMOOTH",
"521 1901 OFFCURVE",
"502 1884 OFFCURVE",
"464 1884 CURVE SMOOTH",
"440 1884 OFFCURVE",
"419 1909 OFFCURVE",
"419 1933 CURVE SMOOTH"
);
},
{
closed = 1;
nodes = (
"277 426 LINE",
"334 407 OFFCURVE",
"403 397 OFFCURVE",
"484 397 CURVE SMOOTH",
"486 397 OFFCURVE",
"490 397 OFFCURVE",
"496 397 CURVE",
"502 396 OFFCURVE",
"507 396 OFFCURVE",
"510 396 CURVE SMOOTH",
"537 396 OFFCURVE",
"550 403 OFFCURVE",
"550 416 CURVE SMOOTH",
"550 601 OFFCURVE",
"524 960 OFFCURVE",
"506 1151 CURVE SMOOTH",
"497 1246 OFFCURVE",
"488 1326 OFFCURVE",
"481 1389 CURVE",
"480 1393 OFFCURVE",
"479 1400 OFFCURVE",
"477 1411 CURVE",
"474 1422 OFFCURVE",
"473 1430 OFFCURVE",
"473 1436 CURVE",
"450 1371 OFFCURVE",
"435 1287 OFFCURVE",
"409 1122 CURVE SMOOTH",
"383 957 OFFCURVE",
"352 780 OFFCURVE",
"325 664 CURVE",
"322 648 OFFCURVE",
"316 625 OFFCURVE",
"307 594 CURVE SMOOTH",
"289 532 OFFCURVE",
"277 483 OFFCURVE",
"277 438 CURVE SMOOTH"
);
},
{
closed = 1;
nodes = (
"552 303 LINE SMOOTH",
"552 338 OFFCURVE",
"347 369 OFFCURVE",
"276 369 CURVE SMOOTH",
"271 369 OFFCURVE",
"263 343 OFFCURVE",
"250 292 CURVE SMOOTH",
"224 189 OFFCURVE",
"188 27 OFFCURVE",
"187 20 CURVE",
"184 10 OFFCURVE",
"177 5 OFFCURVE",
"165 5 CURVE SMOOTH",
"145 5 OFFCURVE",
"123 20 OFFCURVE",
"123 39 CURVE SMOOTH",
"123 40 OFFCURVE",
"123 41 OFFCURVE",
"124 42 CURVE",
"124 43 OFFCURVE",
"124 44 OFFCURVE",
"124 45 CURVE",
"127 56 OFFCURVE",
"135 90 OFFCURVE",
"148 147 CURVE SMOOTH",
"161 204 OFFCURVE",
"175 267 OFFCURVE",
"190 336 CURVE SMOOTH",
"205 405 OFFCURVE",
"215 450 OFFCURVE",
"220 471 CURVE SMOOTH",
"241 562 OFFCURVE",
"267 698 OFFCURVE",
"298 877 CURVE SMOOTH",
"329 1056 OFFCURVE",
"353 1189 OFFCURVE",
"372 1274 CURVE SMOOTH",
"379 1305 OFFCURVE",
"390 1353 OFFCURVE",
"409 1419 CURVE SMOOTH",
"418 1452 OFFCURVE",
"428 1479 OFFCURVE",
"439 1502 CURVE SMOOTH",
"450 1525 OFFCURVE",
"459 1536 OFFCURVE",
"468 1536 CURVE SMOOTH",
"489 1536 OFFCURVE",
"505 1529 OFFCURVE",
"515 1516 CURVE",
"532 1489 OFFCURVE",
"569 1120 OFFCURVE",
"585 940 CURVE SMOOTH",
"613 600 LINE",
"613 541 OFFCURVE",
"617 452 OFFCURVE",
"625 333 CURVE SMOOTH",
"632 214 OFFCURVE",
"636 125 OFFCURVE",
"636 66 CURVE SMOOTH",
"636 57 LINE SMOOTH",
"636 37 OFFCURVE",
"635 28 OFFCURVE",
"630 17 CURVE SMOOTH",
"625 5 OFFCURVE",
"612 0 OFFCURVE",
"591 0 CURVE SMOOTH",
"571 0 OFFCURVE",
"552 15 OFFCURVE",
"552 35 CURVE SMOOTH"
);
}
);
width = 800;
},
{
components = (
{
name = A;
},
{
name = dotaccent;
transform = "{1, 0, 0, 1, 100, 600}";
}
);
layerId = "156B637B-193E-48A3-AAC8-7B4A3960F885";
name = "Bold Condensed";
width = 826;
}
);
note = uni0226;
unicode = 0226;
},
{
glyphname = Agrave;
lastChange = "2015-11-10 11:24:47 +0000";
layers = (
{
layerId = "27A8C2A5-6B67-4598-967C-E5EC4FB8AE70";
name = Condensed;
paths = (
{
closed = 1;
nodes = (
"268 1948 OFFCURVE",
"257 1947 OFFCURVE",
"248 1947 CURVE SMOOTH",
"201 1947 OFFCURVE",
"178 1961 OFFCURVE",
"178 1988 CURVE SMOOTH",
"178 2012 OFFCURVE",
"182 2027 OFFCURVE",
"191 2033 CURVE",
"204 2033 LINE SMOOTH",
"245 2033 OFFCURVE",
"271 2025 OFFCURVE",
"283 2010 CURVE",
"284 2009 OFFCURVE",
"293 2007 OFFCURVE",
"308 2002 CURVE SMOOTH",
"338 1992 OFFCURVE",
"353 1986 OFFCURVE",
"389 1972 CURVE SMOOTH",
"424 1958 OFFCURVE",
"448 1947 OFFCURVE",
"473 1933 CURVE SMOOTH",
"498 1919 OFFCURVE",
"512 1905 OFFCURVE",
"512 1894 CURVE SMOOTH",
"512 1885 OFFCURVE",
"497 1877 OFFCURVE",
"488 1877 CURVE SMOOTH",
"483 1877 OFFCURVE",
"293 1944 OFFCURVE",
"281 1951 CURVE"
);
},
{
closed = 1;
nodes = (
"277 426 LINE",
"334 407 OFFCURVE",
"403 397 OFFCURVE",
"484 397 CURVE SMOOTH",
"486 397 OFFCURVE",
"490 397 OFFCURVE",
"496 397 CURVE",
"502 396 OFFCURVE",
"507 396 OFFCURVE",
"510 396 CURVE SMOOTH",
"537 396 OFFCURVE",
"550 403 OFFCURVE",
"550 416 CURVE SMOOTH",
"550 601 OFFCURVE",
"524 960 OFFCURVE",
"506 1151 CURVE SMOOTH",
"497 1246 OFFCURVE",
"488 1326 OFFCURVE",
"481 1389 CURVE",
"480 1393 OFFCURVE",
"479 1400 OFFCURVE",
"477 1411 CURVE",
"474 1422 OFFCURVE",
"473 1430 OFFCURVE",
"473 1436 CURVE",
"450 1371 OFFCURVE",
"435 1287 OFFCURVE",
"409 1122 CURVE SMOOTH",
"383 957 OFFCURVE",
"352 780 OFFCURVE",
"325 664 CURVE",
"322 648 OFFCURVE",
"316 625 OFFCURVE",
"307 594 CURVE SMOOTH",
"289 532 OFFCURVE",
"277 483 OFFCURVE",
"277 438 CURVE SMOOTH"
);
},
{
closed = 1;
nodes = (
"552 303 LINE SMOOTH",
"552 338 OFFCURVE",
"347 369 OFFCURVE",
"276 369 CURVE SMOOTH",
"271 369 OFFCURVE",
"263 343 OFFCURVE",
"250 292 CURVE SMOOTH",
"224 189 OFFCURVE",
"188 27 OFFCURVE",
"187 20 CURVE",
"184 10 OFFCURVE",
"177 5 OFFCURVE",
"165 5 CURVE SMOOTH",
"145 5 OFFCURVE",
"123 20 OFFCURVE",
"123 39 CURVE SMOOTH",
"123 40 OFFCURVE",
"123 41 OFFCURVE",
"124 42 CURVE",
"124 43 OFFCURVE",
"124 44 OFFCURVE",
"124 45 CURVE",
"127 56 OFFCURVE",
"135 90 OFFCURVE",
"148 147 CURVE SMOOTH",
"161 204 OFFCURVE",
"175 267 OFFCURVE",
"190 336 CURVE SMOOTH",
"205 405 OFFCURVE",
"215 450 OFFCURVE",
"220 471 CURVE SMOOTH",
"241 562 OFFCURVE",
"267 698 OFFCURVE",
"298 877 CURVE SMOOTH",
"329 1056 OFFCURVE",
"353 1189 OFFCURVE",
"372 1274 CURVE SMOOTH",
"379 1305 OFFCURVE",
"390 1353 OFFCURVE",
"409 1419 CURVE SMOOTH",
"418 1452 OFFCURVE",
"428 1479 OFFCURVE",
"439 1502 CURVE SMOOTH",
"450 1525 OFFCURVE",
"459 1536 OFFCURVE",
"468 1536 CURVE SMOOTH",
"489 1536 OFFCURVE",
"505 1529 OFFCURVE",
"515 1516 CURVE",
"532 1489 OFFCURVE",
"569 1120 OFFCURVE",
"585 940 CURVE SMOOTH",
"613 600 LINE",
"613 541 OFFCURVE",
"617 452 OFFCURVE",
"625 333 CURVE SMOOTH",
"632 214 OFFCURVE",
"636 125 OFFCURVE",
"636 66 CURVE SMOOTH",
"636 57 LINE SMOOTH",
"636 37 OFFCURVE",
"635 28 OFFCURVE",
"630 17 CURVE SMOOTH",
"625 5 OFFCURVE",
"612 0 OFFCURVE",
"591 0 CURVE SMOOTH",
"571 0 OFFCURVE",
"552 15 OFFCURVE",
"552 35 CURVE SMOOTH"
);
}
);
width = 800;
},
{
layerId = "156B637B-193E-48A3-AAC8-7B4A3960F885";
name = "Bold Condensed";
paths = (
{
closed = 1;
nodes = (
"272 1935 OFFCURVE",
"572 1776 OFFCURVE",
"572 1740 CURVE SMOOTH",
"572 1731 OFFCURVE",
"567 1726 OFFCURVE",
"557 1726 CURVE SMOOTH",
"512 1726 OFFCURVE",
"179 1831 OFFCURVE",
"179 1855 CURVE SMOOTH",
"179 1886 OFFCURVE",
"214 1935 OFFCURVE",
"247 1935 CURVE SMOOTH"
);
},
{
closed = 1;
nodes = (
"484 1245 OFFCURVE",
"484 1251 OFFCURVE",
"485 1254 CURVE",
"442 1210 OFFCURVE",
"333 583 OFFCURVE",
"328 464 CURVE",
"385 449 OFFCURVE",
"445 441 OFFCURVE",
"510 441 CURVE SMOOTH",
"522 441 OFFCURVE",
"536 443 OFFCURVE",
"552 447 CURVE",
"550 474 OFFCURVE",
"543 549 OFFCURVE",
"531 670 CURVE SMOOTH",
"507 912 OFFCURVE",
"484 1161 OFFCURVE",
"484 1236 CURVE SMOOTH"
);
},
{
closed = 1;
nodes = (
"562 1476 OFFCURVE",
"575 1345 OFFCURVE",
"602 1130 CURVE SMOOTH",
"629 915 OFFCURVE",
"642 775 OFFCURVE",
"642 710 CURVE SMOOTH",
"642 649 OFFCURVE",
"649 546 OFFCURVE",
"664 400 CURVE SMOOTH",
"678 253 OFFCURVE",
"685 143 OFFCURVE",
"685 70 CURVE SMOOTH",
"685 24 OFFCURVE",
"662 1 OFFCURVE",
"617 1 CURVE SMOOTH",
"574 1 OFFCURVE",
"554 15 OFFCURVE",
"554 54 CURVE SMOOTH",
"554 321 LINE",
"515 348 OFFCURVE",
"394 368 OFFCURVE",
"315 373 CURVE",
"301 349 OFFCURVE",
"290 314 OFFCURVE",
"281 269 CURVE SMOOTH",
"263 178 OFFCURVE",
"246 76 OFFCURVE",
"214 23 CURVE",
"161 23 OFFCURVE",
"131 37 OFFCURVE",
"124 64 CURVE",
"137 82 OFFCURVE",
"154 146 OFFCURVE",
"175 256 CURVE SMOOTH",
"196 365 OFFCURVE",
"218 490 OFFCURVE",
"242 631 CURVE SMOOTH",
"290 912 OFFCURVE",
"343 1212 OFFCURVE",
"406 1401 CURVE SMOOTH",
"437 1496 OFFCURVE",
"467 1543 OFFCURVE",
"496 1543 CURVE SMOOTH",
"525 1543 OFFCURVE",
"547 1537 OFFCURVE",
"562 1525 CURVE"
);
}
);
width = 826;
}
);
note = Agrave;
unicode = 00C0;
},
{
glyphname = Ainvertedbreve;
lastChange = "2015-11-10 12:19:53 +0000";
layers = (
{
layerId = "27A8C2A5-6B67-4598-967C-E5EC4FB8AE70";
name = Condensed;
paths = (
{
closed = 1;
nodes = (
"343 1839 LINE",
"343 1890 OFFCURVE",
"353 1935 OFFCURVE",
"374 1978 CURVE SMOOTH",
"395 2021 OFFCURVE",
"437 2048 OFFCURVE",
"492 2048 CURVE SMOOTH",
"524 2048 OFFCURVE",
"551 2037 OFFCURVE",
"567 2028 CURVE SMOOTH",
"583 2019 OFFCURVE",
"601 1989 OFFCURVE",
"608 1976 CURVE",
"611 1969 OFFCURVE",
"617 1958 OFFCURVE",
"624 1941 CURVE SMOOTH",
"631 1924 OFFCURVE",
"637 1912 OFFCURVE",
"640 1905 CURVE",
"635 1890 LINE",
"636 1888 OFFCURVE",
"638 1883 OFFCURVE",
"641 1875 CURVE SMOOTH",
"644 1867 OFFCURVE",
"646 1861 OFFCURVE",
"646 1858 CURVE SMOOTH",
"646 1842 OFFCURVE",
"630 1829 OFFCURVE",
"615 1829 CURVE SMOOTH",
"590 1829 OFFCURVE",
"578 1842 OFFCURVE",
"578 1868 CURVE SMOOTH",
"578 1871 OFFCURVE",
"578 1876 OFFCURVE",
"579 1883 CURVE SMOOTH",
"580 1889 OFFCURVE",
"580 1894 OFFCURVE",
"580 1897 CURVE SMOOTH",
"580 1936 OFFCURVE",
"546 2001 OFFCURVE",
"510 2001 CURVE SMOOTH",
"459 2001 LINE",
"437 1985 LINE SMOOTH",
"404 1961 OFFCURVE",
"392 1894 OFFCURVE",
"385 1853 CURVE SMOOTH",
"381 1832 OFFCURVE",
"374 1822 OFFCURVE",
"365 1821 CURVE"
);
},
{
closed = 1;
nodes = (
"277 426 LINE",
"334 407 OFFCURVE",
"403 397 OFFCURVE",
"484 397 CURVE SMOOTH",
"486 397 OFFCURVE",
"490 397 OFFCURVE",
"496 397 CURVE",
"502 396 OFFCURVE",
"507 396 OFFCURVE",
"510 396 CURVE SMOOTH",
"537 396 OFFCURVE",
"550 403 OFFCURVE",
"550 416 CURVE SMOOTH",
"550 601 OFFCURVE",
"524 960 OFFCURVE",
"506 1151 CURVE SMOOTH",
"497 1246 OFFCURVE",
"488 1326 OFFCURVE",
"481 1389 CURVE",
"480 1393 OFFCURVE",
"479 1400 OFFCURVE",
"477 1411 CURVE",
"474 1422 OFFCURVE",
"473 1430 OFFCURVE",
"473 1436 CURVE",
"450 1371 OFFCURVE",
"435 1287 OFFCURVE",
"409 1122 CURVE SMOOTH",
"383 957 OFFCURVE",
"352 780 OFFCURVE",
"325 664 CURVE",
"322 648 OFFCURVE",
"316 625 OFFCURVE",
"307 594 CURVE SMOOTH",
"289 532 OFFCURVE",
"277 483 OFFCURVE",
"277 438 CURVE SMOOTH"
);
},
{
closed = 1;
nodes = (
"552 303 LINE SMOOTH",
"552 338 OFFCURVE",
"347 369 OFFCURVE",
"276 369 CURVE SMOOTH",
"271 369 OFFCURVE",
"263 343 OFFCURVE",
"250 292 CURVE SMOOTH",
"224 189 OFFCURVE",
"188 27 OFFCURVE",
"187 20 CURVE",
"184 10 OFFCURVE",
"177 5 OFFCURVE",
"165 5 CURVE SMOOTH",
"145 5 OFFCURVE",
"123 20 OFFCURVE",
"123 39 CURVE SMOOTH",
"123 40 OFFCURVE",
"123 41 OFFCURVE",
"124 42 CURVE",
"124 43 OFFCURVE",
"124 44 OFFCURVE",
"124 45 CURVE",
"127 56 OFFCURVE",
"135 90 OFFCURVE",
"148 147 CURVE SMOOTH",
"161 204 OFFCURVE",
"175 267 OFFCURVE",
"190 336 CURVE SMOOTH",
"205 405 OFFCURVE",
"215 450 OFFCURVE",
"220 471 CURVE SMOOTH",
"241 562 OFFCURVE",
"267 698 OFFCURVE",
"298 877 CURVE SMOOTH",
"329 1056 OFFCURVE",
"353 1189 OFFCURVE",
"372 1274 CURVE SMOOTH",
"379 1305 OFFCURVE",
"390 1353 OFFCURVE",
"409 1419 CURVE SMOOTH",
"418 1452 OFFCURVE",
"428 1479 OFFCURVE",
"439 1502 CURVE SMOOTH",
"450 1525 OFFCURVE",
"459 1536 OFFCURVE",
"468 1536 CURVE SMOOTH",
"489 1536 OFFCURVE",
"505 1529 OFFCURVE",
"515 1516 CURVE",
"532 1489 OFFCURVE",
"569 1120 OFFCURVE",
"585 940 CURVE SMOOTH",
"613 600 LINE",
"613 541 OFFCURVE",
"617 452 OFFCURVE",
"625 333 CURVE SMOOTH",
"632 214 OFFCURVE",
"636 125 OFFCURVE",
"636 66 CURVE SMOOTH",
"636 57 LINE SMOOTH",
"636 37 OFFCURVE",
"635 28 OFFCURVE",
"630 17 CURVE SMOOTH",
"625 5 OFFCURVE",
"612 0 OFFCURVE",
"591 0 CURVE SMOOTH",
"571 0 OFFCURVE",
"552 15 OFFCURVE",
"552 35 CURVE SMOOTH"
);
}
);
width = 800;
},
{
components = (
{
name = A;
},
{
name = breveinvertedcomb;
transform = "{1, 0, 0, 1, 120, 260}";
}
);
layerId = "156B637B-193E-48A3-AAC8-7B4A3960F885";
name = "Bold Condensed";
width = 826;
}
);
note = uni0202;
unicode = 0202;
},
{
glyphname = Amacron;
lastChange = "2015-11-10 11:24:47 +0000";
layers = (
{
layerId = "27A8C2A5-6B67-4598-967C-E5EC4FB8AE70";
name = Condensed;
paths = (
{
closed = 1;
nodes = (
"715 1840 OFFCURVE",
"671 1834 OFFCURVE",
"585 1834 CURVE SMOOTH",
"470 1834 LINE SMOOTH",
"452 1834 OFFCURVE",
"439 1834 OFFCURVE",
"430 1834 CURVE SMOOTH",
"413 1834 OFFCURVE",
"379 1835 OFFCURVE",
"365 1838 CURVE SMOOTH",
"351 1841 OFFCURVE",
"332 1845 OFFCURVE",
"326 1853 CURVE SMOOTH",
"323 1857 OFFCURVE",
"321 1862 OFFCURVE",
"321 1867 CURVE",
"322 1878 OFFCURVE",
"366 1884 OFFCURVE",
"452 1884 CURVE SMOOTH",
"568 1884 LINE SMOOTH",
"623 1884 OFFCURVE",
"639 1884 OFFCURVE",
"672 1880 CURVE SMOOTH",
"704 1876 OFFCURVE",
"716 1867 OFFCURVE",
"716 1851 CURVE"
);
},
{
closed = 1;
nodes = (
"277 426 LINE",
"334 407 OFFCURVE",
"403 397 OFFCURVE",
"484 397 CURVE SMOOTH",
"486 397 OFFCURVE",
"490 397 OFFCURVE",
"496 397 CURVE",
"502 396 OFFCURVE",
"507 396 OFFCURVE",
"510 396 CURVE SMOOTH",
"537 396 OFFCURVE",
"550 403 OFFCURVE",
"550 416 CURVE SMOOTH",
"550 601 OFFCURVE",
"524 960 OFFCURVE",
"506 1151 CURVE SMOOTH",
"497 1246 OFFCURVE",
"488 1326 OFFCURVE",
"481 1389 CURVE",
"480 1393 OFFCURVE",
"479 1400 OFFCURVE",
"477 1411 CURVE",
"474 1422 OFFCURVE",
"473 1430 OFFCURVE",
"473 1436 CURVE",
"450 1371 OFFCURVE",
"435 1287 OFFCURVE",
"409 1122 CURVE SMOOTH",
"383 957 OFFCURVE",
"352 780 OFFCURVE",
"325 664 CURVE",
"322 648 OFFCURVE",
"316 625 OFFCURVE",
"307 594 CURVE SMOOTH",
"289 532 OFFCURVE",
"277 483 OFFCURVE",
"277 438 CURVE SMOOTH"
);
},
{
closed = 1;
nodes = (
"552 303 LINE SMOOTH",
"552 338 OFFCURVE",
"347 369 OFFCURVE",
"276 369 CURVE SMOOTH",
"271 369 OFFCURVE",
"263 343 OFFCURVE",
"250 292 CURVE SMOOTH",
"224 189 OFFCURVE",
"188 27 OFFCURVE",
"187 20 CURVE",
"184 10 OFFCURVE",
"177 5 OFFCURVE",
"165 5 CURVE SMOOTH",
"145 5 OFFCURVE",
"123 20 OFFCURVE",
"123 39 CURVE SMOOTH",
"123 40 OFFCURVE",
"123 41 OFFCURVE",
"124 42 CURVE",
"124 43 OFFCURVE",
"124 44 OFFCURVE",
"124 45 CURVE",
"127 56 OFFCURVE",
"135 90 OFFCURVE",
"148 147 CURVE SMOOTH",
"161 204 OFFCURVE",
"175 267 OFFCURVE",
"190 336 CURVE SMOOTH",
"205 405 OFFCURVE",
"215 450 OFFCURVE",
"220 471 CURVE SMOOTH",
"241 562 OFFCURVE",
"267 698 OFFCURVE",
"298 877 CURVE SMOOTH",
"329 1056 OFFCURVE",
"353 1189 OFFCURVE",
"372 1274 CURVE SMOOTH",
"379 1305 OFFCURVE",
"390 1353 OFFCURVE",
"409 1419 CURVE SMOOTH",
"418 1452 OFFCURVE",
"428 1479 OFFCURVE",
"439 1502 CURVE SMOOTH",
"450 1525 OFFCURVE",
"459 1536 OFFCURVE",
"468 1536 CURVE SMOOTH",
"489 1536 OFFCURVE",
"505 1529 OFFCURVE",
"515 1516 CURVE",
"532 1489 OFFCURVE",
"569 1120 OFFCURVE",
"585 940 CURVE SMOOTH",
"613 600 LINE",
"613 541 OFFCURVE",
"617 452 OFFCURVE",
"625 333 CURVE SMOOTH",
"632 214 OFFCURVE",
"636 125 OFFCURVE",
"636 66 CURVE SMOOTH",
"636 57 LINE SMOOTH",
"636 37 OFFCURVE",
"635 28 OFFCURVE",
"630 17 CURVE SMOOTH",
"625 5 OFFCURVE",
"612 0 OFFCURVE",
"591 0 CURVE SMOOTH",
"571 0 OFFCURVE",
"552 15 OFFCURVE",
"552 35 CURVE SMOOTH"
);
}
);
width = 800;
},
{
layerId = "156B637B-193E-48A3-AAC8-7B4A3960F885";
name = "Bold Condensed";
paths = (
{
closed = 1;
nodes = (
"717 1735 OFFCURVE",
"711 1725 OFFCURVE",
"699 1711 CURVE SMOOTH",
"687 1697 OFFCURVE",
"660 1687 OFFCURVE",
"627 1687 CURVE SMOOTH",
"389 1687 LINE SMOOTH",
"349 1687 OFFCURVE",
"318 1712 OFFCURVE",
"318 1739 CURVE SMOOTH",
"318 1760 OFFCURVE",
"340 1777 OFFCURVE",
"384 1777 CURVE SMOOTH",
"610 1777 LINE SMOOTH",
"661 1777 OFFCURVE",
"674 1777 OFFCURVE",
"695 1773 CURVE SMOOTH",
"715 1769 OFFCURVE",
"718 1760 OFFCURVE",
"718 1744 CURVE"
);
},
{
closed = 1;
nodes = (
"484 1245 OFFCURVE",
"484 1251 OFFCURVE",
"485 1254 CURVE",
"442 1210 OFFCURVE",
"333 583 OFFCURVE",
"328 464 CURVE",
"385 449 OFFCURVE",
"445 441 OFFCURVE",
"510 441 CURVE SMOOTH",
"522 441 OFFCURVE",
"536 443 OFFCURVE",
"552 447 CURVE",
"550 474 OFFCURVE",
"543 549 OFFCURVE",
"531 670 CURVE SMOOTH",
"507 912 OFFCURVE",
"484 1161 OFFCURVE",
"484 1236 CURVE SMOOTH"
);
},
{
closed = 1;
nodes = (
"562 1476 OFFCURVE",
"575 1345 OFFCURVE",
"602 1130 CURVE SMOOTH",
"629 915 OFFCURVE",
"642 775 OFFCURVE",
"642 710 CURVE SMOOTH",
"642 649 OFFCURVE",
"649 546 OFFCURVE",
"664 400 CURVE SMOOTH",
"678 253 OFFCURVE",
"685 143 OFFCURVE",
"685 70 CURVE SMOOTH",
"685 24 OFFCURVE",
"662 1 OFFCURVE",
"617 1 CURVE SMOOTH",
"574 1 OFFCURVE",
"554 15 OFFCURVE",
"554 54 CURVE SMOOTH",
"554 321 LINE",
"515 348 OFFCURVE",
"394 368 OFFCURVE",
"315 373 CURVE",
"301 349 OFFCURVE",
"290 314 OFFCURVE",
"281 269 CURVE SMOOTH",
"263 178 OFFCURVE",
"246 76 OFFCURVE",
"214 23 CURVE",
"161 23 OFFCURVE",
"131 37 OFFCURVE",
"124 64 CURVE",
"137 82 OFFCURVE",
"154 146 OFFCURVE",
"175 256 CURVE SMOOTH",
"196 365 OFFCURVE",
"218 490 OFFCURVE",
"242 631 CURVE SMOOTH",
"290 912 OFFCURVE",
"343 1212 OFFCURVE",
"406 1401 CURVE SMOOTH",
"437 1496 OFFCURVE",
"467 1543 OFFCURVE",
"496 1543 CURVE SMOOTH",
"525 1543 OFFCURVE",
"547 1537 OFFCURVE",
"562 1525 CURVE"
);
}
);
width = 826;
}
);
note = Amacron;
unicode = 0100;
},
{
glyphname = Aogonek;
lastChange = "2015-11-10 11:24:47 +0000";
layers = (
{
layerId = "27A8C2A5-6B67-4598-967C-E5EC4FB8AE70";
name = Condensed;
paths = (
{
closed = 1;
nodes = (
"560 22 LINE",
"619 14 LINE",
"621 15 LINE",
"622 14 LINE",
"622 13 OFFCURVE",
"616 4 OFFCURVE",
"605 -12 CURVE",
"581 -44 OFFCURVE",
"552 -84 OFFCURVE",
"529 -141 CURVE SMOOTH",
"517 -170 OFFCURVE",
"511 -196 OFFCURVE",
"511 -220 CURVE SMOOTH",
"511 -233 OFFCURVE",
"510 -248 OFFCURVE",
"507 -267 CURVE",
"507 -270 OFFCURVE",
"507 -277 OFFCURVE",
"506 -287 CURVE SMOOTH",
"505 -297 OFFCURVE",
"505 -305 OFFCURVE",
"505 -310 CURVE SMOOTH",
"505 -345 OFFCURVE",
"541 -394 OFFCURVE",
"574 -394 CURVE SMOOTH",
"582 -394 OFFCURVE",
"593 -390 OFFCURVE",
"607 -383 CURVE SMOOTH",
"621 -376 OFFCURVE",
"632 -373 OFFCURVE",
"640 -373 CURVE SMOOTH",
"655 -373 OFFCURVE",
"662 -380 OFFCURVE",
"662 -394 CURVE SMOOTH",
"662 -429 OFFCURVE",
"613 -449 OFFCURVE",
"574 -449 CURVE SMOOTH",
"491 -449 OFFCURVE",
"419 -351 OFFCURVE",
"419 -287 CURVE SMOOTH",
"419 -222 OFFCURVE",
"441 -151 OFFCURVE",
"469 -102 CURVE SMOOTH",
"497 -54 OFFCURVE",
"526 -13 OFFCURVE",
"546 7 CURVE SMOOTH"
);
},
{
closed = 1;
nodes = (
"277 426 LINE",
"334 407 OFFCURVE",
"403 397 OFFCURVE",
"484 397 CURVE SMOOTH",
"486 397 OFFCURVE",
"490 397 OFFCURVE",
"496 397 CURVE",
"502 396 OFFCURVE",
"507 396 OFFCURVE",
"510 396 CURVE SMOOTH",
"537 396 OFFCURVE",
"550 403 OFFCURVE",
"550 416 CURVE SMOOTH",
"550 601 OFFCURVE",
"524 960 OFFCURVE",
"506 1151 CURVE SMOOTH",
"497 1246 OFFCURVE",
"488 1326 OFFCURVE",
"481 1389 CURVE",
"480 1393 OFFCURVE",
"479 1400 OFFCURVE",
"477 1411 CURVE",
"474 1422 OFFCURVE",
"473 1430 OFFCURVE",
"473 1436 CURVE",
"450 1371 OFFCURVE",
"435 1287 OFFCURVE",
"409 1122 CURVE SMOOTH",
"383 957 OFFCURVE",
"352 780 OFFCURVE",
"325 664 CURVE",
"322 648 OFFCURVE",
"316 625 OFFCURVE",
"307 594 CURVE SMOOTH",
"289 532 OFFCURVE",
"277 483 OFFCURVE",
"277 438 CURVE SMOOTH"
);
},
{
closed = 1;
nodes = (
"552 303 LINE SMOOTH",
"552 338 OFFCURVE",
"347 369 OFFCURVE",
"276 369 CURVE SMOOTH",
"271 369 OFFCURVE",
"263 343 OFFCURVE",
"250 292 CURVE SMOOTH",
"224 189 OFFCURVE",
"188 27 OFFCURVE",
"187 20 CURVE",
"184 10 OFFCURVE",
"177 5 OFFCURVE",
"165 5 CURVE SMOOTH",
"145 5 OFFCURVE",
"123 20 OFFCURVE",
"123 39 CURVE SMOOTH",
"123 40 OFFCURVE",
"123 41 OFFCURVE",
"124 42 CURVE",
"124 43 OFFCURVE",
"124 44 OFFCURVE",
"124 45 CURVE",
"127 56 OFFCURVE",
"135 90 OFFCURVE",
"148 147 CURVE SMOOTH",
"161 204 OFFCURVE",
"175 267 OFFCURVE",
"190 336 CURVE SMOOTH",
"205 405 OFFCURVE",
"215 450 OFFCURVE",
"220 471 CURVE SMOOTH",
"241 562 OFFCURVE",
"267 698 OFFCURVE",
"298 877 CURVE SMOOTH",
"329 1056 OFFCURVE",
"353 1189 OFFCURVE",
"372 1274 CURVE SMOOTH",
"379 1305 OFFCURVE",
"390 1353 OFFCURVE",
"409 1419 CURVE SMOOTH",
"418 1452 OFFCURVE",
"428 1479 OFFCURVE",
"439 1502 CURVE SMOOTH",
"450 1525 OFFCURVE",
"459 1536 OFFCURVE",
"468 1536 CURVE SMOOTH",
"489 1536 OFFCURVE",
"505 1529 OFFCURVE",
"515 1516 CURVE",
"532 1489 OFFCURVE",
"569 1120 OFFCURVE",
"585 940 CURVE SMOOTH",
"613 600 LINE",
"613 541 OFFCURVE",
"617 452 OFFCURVE",
"625 333 CURVE SMOOTH",
"632 214 OFFCURVE",
"636 125 OFFCURVE",
"636 66 CURVE SMOOTH",
"636 57 LINE SMOOTH",
"636 37 OFFCURVE",
"635 28 OFFCURVE",
"630 17 CURVE SMOOTH",
"625 5 OFFCURVE",
"612 0 OFFCURVE",
"591 0 CURVE SMOOTH",
"571 0 OFFCURVE",
"552 15 OFFCURVE",
"552 35 CURVE SMOOTH"
);
}
);
width = 800;
},
{
layerId = "156B637B-193E-48A3-AAC8-7B4A3960F885";
name = "Bold Condensed";
paths = (
{
closed = 1;
nodes = (
"659 12 LINE",
"540 -87 OFFCURVE",
"481 -174 OFFCURVE",
"481 -250 CURVE SMOOTH",
"481 -263 OFFCURVE",
"483 -278 OFFCURVE",
"492 -291 CURVE",
"496 -298 OFFCURVE",
"501 -301 OFFCURVE",
"508 -301 CURVE SMOOTH",
"535 -301 OFFCURVE",
"563 -290 OFFCURVE",
"594 -268 CURVE",
"608 -302 LINE",
"608 -338 OFFCURVE",
"542 -366 OFFCURVE",
"502 -366 CURVE SMOOTH",
"446 -366 OFFCURVE",
"411 -316 OFFCURVE",
"411 -259 CURVE SMOOTH",
"411 -151 OFFCURVE",
"495 -55 OFFCURVE",
"604 12 CURVE"
);
},
{
closed = 1;
nodes = (
"484 1245 OFFCURVE",
"484 1251 OFFCURVE",
"485 1254 CURVE",
"442 1210 OFFCURVE",
"333 583 OFFCURVE",
"328 464 CURVE",
"385 449 OFFCURVE",
"445 441 OFFCURVE",
"510 441 CURVE SMOOTH",
"522 441 OFFCURVE",
"536 443 OFFCURVE",
"552 447 CURVE",
"550 474 OFFCURVE",
"543 549 OFFCURVE",
"531 670 CURVE SMOOTH",
"507 912 OFFCURVE",
"484 1161 OFFCURVE",
"484 1236 CURVE SMOOTH"
);
},
{
closed = 1;
nodes = (
"562 1476 OFFCURVE",
"575 1345 OFFCURVE",
"602 1130 CURVE SMOOTH",
"629 915 OFFCURVE",
"642 775 OFFCURVE",
"642 710 CURVE SMOOTH",
"642 649 OFFCURVE",
"649 546 OFFCURVE",
"664 400 CURVE SMOOTH",
"678 253 OFFCURVE",
"685 143 OFFCURVE",
"685 70 CURVE SMOOTH",
"685 24 OFFCURVE",
"662 1 OFFCURVE",
"617 1 CURVE SMOOTH",
"574 1 OFFCURVE",
"554 15 OFFCURVE",
"554 54 CURVE SMOOTH",
"554 321 LINE",
"515 348 OFFCURVE",
"394 368 OFFCURVE",
"315 373 CURVE",
"301 349 OFFCURVE",
"290 314 OFFCURVE",
"281 269 CURVE SMOOTH",
"263 178 OFFCURVE",
"246 76 OFFCURVE",
"214 23 CURVE",
"161 23 OFFCURVE",
"131 37 OFFCURVE",
"124 64 CURVE",
"137 82 OFFCURVE",
"154 146 OFFCURVE",
"175 256 CURVE SMOOTH",
"196 365 OFFCURVE",
"218 490 OFFCURVE",
"242 631 CURVE SMOOTH",
"290 912 OFFCURVE",
"343 1212 OFFCURVE",
"406 1401 CURVE SMOOTH",
"437 1496 OFFCURVE",
"467 1543 OFFCURVE",
"496 1543 CURVE SMOOTH",
"525 1543 OFFCURVE",
"547 1537 OFFCURVE",
"562 1525 CURVE"
);
}
);
width = 826;
}
);
note = Aogonek;
unicode = 0104;
},
{
glyphname = Aring;
lastChange = "2015-11-10 11:24:47 +0000";
layers = (
{
layerId = "27A8C2A5-6B67-4598-967C-E5EC4FB8AE70";
name = Condensed;
paths = (
{
closed = 1;
nodes = (
"410 1884 OFFCURVE",
"411 1864 OFFCURVE",
"426 1843 CURVE",
"433 1832 OFFCURVE",
"443 1827 OFFCURVE",
"455 1827 CURVE SMOOTH",
"488 1827 OFFCURVE",
"541 1853 OFFCURVE",
"541 1884 CURVE SMOOTH",
"541 1933 OFFCURVE",
"522 1984 OFFCURVE",
"482 1984 CURVE SMOOTH",
"449 1984 OFFCURVE",
"410 1943 OFFCURVE",
"410 1907 CURVE SMOOTH"
);
},
{
closed = 1;
nodes = (
"363 1957 OFFCURVE",
"422 2023 OFFCURVE",
"482 2023 CURVE SMOOTH",
"534 2023 OFFCURVE",
"594 1957 OFFCURVE",
"594 1905 CURVE SMOOTH",
"594 1828 OFFCURVE",
"540 1788 OFFCURVE",
"463 1788 CURVE SMOOTH",
"410 1788 OFFCURVE",
"363 1841 OFFCURVE",
"363 1896 CURVE SMOOTH"
);
},
{
closed = 1;
nodes = (
"277 426 LINE",
"334 407 OFFCURVE",
"403 397 OFFCURVE",
"484 397 CURVE SMOOTH",
"486 397 OFFCURVE",
"490 397 OFFCURVE",
"496 397 CURVE",
"502 396 OFFCURVE",
"507 396 OFFCURVE",
"510 396 CURVE SMOOTH",
"537 396 OFFCURVE",
"550 403 OFFCURVE",
"550 416 CURVE SMOOTH",
"550 601 OFFCURVE",
"524 960 OFFCURVE",
"506 1151 CURVE SMOOTH",
"497 1246 OFFCURVE",
"488 1326 OFFCURVE",
"481 1389 CURVE",
"480 1393 OFFCURVE",
"479 1400 OFFCURVE",
"477 1411 CURVE",
"474 1422 OFFCURVE",
"473 1430 OFFCURVE",
"473 1436 CURVE",
"450 1371 OFFCURVE",
"435 1287 OFFCURVE",
"409 1122 CURVE SMOOTH",
"383 957 OFFCURVE",
"352 780 OFFCURVE",
"325 664 CURVE",
"322 648 OFFCURVE",
"316 625 OFFCURVE",
"307 594 CURVE SMOOTH",
"289 532 OFFCURVE",
"277 483 OFFCURVE",
"277 438 CURVE SMOOTH"
);
},
{
closed = 1;
nodes = (
"552 303 LINE SMOOTH",
"552 338 OFFCURVE",
"347 369 OFFCURVE",
"276 369 CURVE SMOOTH",
"271 369 OFFCURVE",
"263 343 OFFCURVE",
"250 292 CURVE SMOOTH",
"224 189 OFFCURVE",
"188 27 OFFCURVE",
"187 20 CURVE",
"184 10 OFFCURVE",
"177 5 OFFCURVE",
"165 5 CURVE SMOOTH",
"145 5 OFFCURVE",
"123 20 OFFCURVE",
"123 39 CURVE SMOOTH",
"123 40 OFFCURVE",
"123 41 OFFCURVE",
"124 42 CURVE",
"124 43 OFFCURVE",
"124 44 OFFCURVE",
"124 45 CURVE",
"127 56 OFFCURVE",
"135 90 OFFCURVE",
"148 147 CURVE SMOOTH",
"161 204 OFFCURVE",
"175 267 OFFCURVE",
"190 336 CURVE SMOOTH",
"205 405 OFFCURVE",
"215 450 OFFCURVE",
"220 471 CURVE SMOOTH",
"241 562 OFFCURVE",
"267 698 OFFCURVE",
"298 877 CURVE SMOOTH",
"329 1056 OFFCURVE",
"353 1189 OFFCURVE",
"372 1274 CURVE SMOOTH",
"379 1305 OFFCURVE",
"390 1353 OFFCURVE",
"409 1419 CURVE SMOOTH",
"418 1452 OFFCURVE",
"428 1479 OFFCURVE",
"439 1502 CURVE SMOOTH",
"450 1525 OFFCURVE",
"459 1536 OFFCURVE",
"468 1536 CURVE SMOOTH",
"489 1536 OFFCURVE",
"505 1529 OFFCURVE",
"515 1516 CURVE",
"532 1489 OFFCURVE",
"569 1120 OFFCURVE",
"585 940 CURVE SMOOTH",
"613 600 LINE",
"613 541 OFFCURVE",
"617 452 OFFCURVE",
"625 333 CURVE SMOOTH",
"632 214 OFFCURVE",
"636 125 OFFCURVE",
"636 66 CURVE SMOOTH",
"636 57 LINE SMOOTH",
"636 37 OFFCURVE",
"635 28 OFFCURVE",
"630 17 CURVE SMOOTH",
"625 5 OFFCURVE",
"612 0 OFFCURVE",
"591 0 CURVE SMOOTH",
"571 0 OFFCURVE",
"552 15 OFFCURVE",
"552 35 CURVE SMOOTH"
);
}
);
width = 800;
},
{
layerId = "156B637B-193E-48A3-AAC8-7B4A3960F885";
name = "Bold Condensed";
paths = (
{
closed = 1;
nodes = (
"459 1966 OFFCURVE",
"432 1905 OFFCURVE",
"432 1832 CURVE SMOOTH",
"432 1796 OFFCURVE",
"477 1747 OFFCURVE",
"525 1747 CURVE SMOOTH",
"573 1747 OFFCURVE",
"610 1767 OFFCURVE",
"627 1795 CURVE SMOOTH",
"643 1823 OFFCURVE",
"649 1848 OFFCURVE",
"649 1869 CURVE SMOOTH",
"649 1916 OFFCURVE",
"614 1966 OFFCURVE",
"527 1966 CURVE SMOOTH"
);
},
{
closed = 1;
nodes = (
"354 1969 OFFCURVE",
"420 2040 OFFCURVE",
"516 2040 CURVE SMOOTH",
"580 2040 OFFCURVE",
"631 2023 OFFCURVE",
"661 2000 CURVE SMOOTH",
"691 1976 OFFCURVE",
"710 1943 OFFCURVE",
"717 1915 CURVE SMOOTH",
"720 1901 OFFCURVE",
"722 1887 OFFCURVE",
"722 1874 CURVE SMOOTH",
"722 1846 OFFCURVE",
"718 1816 OFFCURVE",
"699 1777 CURVE SMOOTH",
"680 1737 OFFCURVE",
"654 1705 OFFCURVE",
"603 1684 CURVE SMOOTH",
"578 1673 OFFCURVE",
"549 1668 OFFCURVE",
"516 1668 CURVE SMOOTH",
"453 1668 OFFCURVE",
"407 1697 OFFCURVE",
"385 1741 CURVE SMOOTH",
"363 1785 OFFCURVE",
"354 1828 OFFCURVE",
"354 1873 CURVE SMOOTH"
);
},
{
closed = 1;
nodes = (
"484 1245 OFFCURVE",
"484 1251 OFFCURVE",
"485 1254 CURVE",
"442 1210 OFFCURVE",
"333 583 OFFCURVE",
"328 464 CURVE",
"385 449 OFFCURVE",
"445 441 OFFCURVE",
"510 441 CURVE SMOOTH",
"522 441 OFFCURVE",
"536 443 OFFCURVE",
"552 447 CURVE",
"550 474 OFFCURVE",
"543 549 OFFCURVE",
"531 670 CURVE SMOOTH",
"507 912 OFFCURVE",
"484 1161 OFFCURVE",
"484 1236 CURVE SMOOTH"
);
},
{
closed = 1;
nodes = (
"562 1476 OFFCURVE",
"575 1345 OFFCURVE",
"602 1130 CURVE SMOOTH",
"629 915 OFFCURVE",
"642 775 OFFCURVE",
"642 710 CURVE SMOOTH",
"642 649 OFFCURVE",
"649 546 OFFCURVE",
"664 400 CURVE SMOOTH",
"678 253 OFFCURVE",
"685 143 OFFCURVE",
"685 70 CURVE SMOOTH",
"685 24 OFFCURVE",
"662 1 OFFCURVE",
"617 1 CURVE SMOOTH",
"574 1 OFFCURVE",
"554 15 OFFCURVE",
"554 54 CURVE SMOOTH",
"554 321 LINE",
"515 348 OFFCURVE",
"394 368 OFFCURVE",
"315 373 CURVE",
"301 349 OFFCURVE",
"290 314 OFFCURVE",
"281 269 CURVE SMOOTH",
"263 178 OFFCURVE",
"246 76 OFFCURVE",
"214 23 CURVE",
"161 23 OFFCURVE",
"131 37 OFFCURVE",
"124 64 CURVE",
"137 82 OFFCURVE",
"154 146 OFFCURVE",
"175 256 CURVE SMOOTH",
"196 365 OFFCURVE",
"218 490 OFFCURVE",
"242 631 CURVE SMOOTH",
"290 912 OFFCURVE",
"343 1212 OFFCURVE",
"406 1401 CURVE SMOOTH",
"437 1496 OFFCURVE",
"467 1543 OFFCURVE",
"496 1543 CURVE SMOOTH",
"525 1543 OFFCURVE",
"547 1537 OFFCURVE",
"562 1525 CURVE"
);
}
);
width = 826;
}
);
note = Aring;
unicode = 00C5;
},
{
glyphname = Aringacute;
lastChange = "2015-11-10 11:24:47 +0000";
layers = (
{
layerId = "27A8C2A5-6B67-4598-967C-E5EC4FB8AE70";
name = Condensed;
paths = (
{
closed = 1;
nodes = (
"440 2180 OFFCURVE",
"459 2198 OFFCURVE",
"496 2228 CURVE SMOOTH",
"533 2258 OFFCURVE",
"574 2290 OFFCURVE",
"618 2324 CURVE SMOOTH",
"661 2357 OFFCURVE",
"687 2377 OFFCURVE",
"694 2384 CURVE",
"724 2384 OFFCURVE",
"739 2373 OFFCURVE",
"739 2352 CURVE SMOOTH",
"739 2351 OFFCURVE",
"737 2341 OFFCURVE",
"733 2321 CURVE",
"664 2290 OFFCURVE",
"579 2232 OFFCURVE",
"477 2145 CURVE",
"457 2145 OFFCURVE",
"440 2156 OFFCURVE",
"440 2175 CURVE SMOOTH"
);
},
{
closed = 1;
nodes = (
"410 1884 OFFCURVE",
"411 1864 OFFCURVE",
"426 1843 CURVE",
"433 1832 OFFCURVE",
"443 1827 OFFCURVE",
"455 1827 CURVE SMOOTH",
"488 1827 OFFCURVE",
"541 1853 OFFCURVE",
"541 1884 CURVE SMOOTH",
"541 1933 OFFCURVE",
"522 1984 OFFCURVE",
"482 1984 CURVE SMOOTH",
"449 1984 OFFCURVE",
"410 1943 OFFCURVE",
"410 1907 CURVE SMOOTH"
);
},
{
closed = 1;
nodes = (
"363 1957 OFFCURVE",
"422 2023 OFFCURVE",
"482 2023 CURVE SMOOTH",
"534 2023 OFFCURVE",
"594 1957 OFFCURVE",
"594 1905 CURVE SMOOTH",
"594 1828 OFFCURVE",
"540 1788 OFFCURVE",
"463 1788 CURVE SMOOTH",
"410 1788 OFFCURVE",
"363 1841 OFFCURVE",
"363 1896 CURVE SMOOTH"
);
},
{
closed = 1;
nodes = (
"277 426 LINE",
"334 407 OFFCURVE",
"403 397 OFFCURVE",
"484 397 CURVE SMOOTH",
"486 397 OFFCURVE",
"490 397 OFFCURVE",
"496 397 CURVE",
"502 396 OFFCURVE",
"507 396 OFFCURVE",
"510 396 CURVE SMOOTH",
"537 396 OFFCURVE",
"550 403 OFFCURVE",
"550 416 CURVE SMOOTH",
"550 601 OFFCURVE",
"524 960 OFFCURVE",
"506 1151 CURVE SMOOTH",
"497 1246 OFFCURVE",
"488 1326 OFFCURVE",
"481 1389 CURVE",
"480 1393 OFFCURVE",
"479 1400 OFFCURVE",
"477 1411 CURVE",
"474 1422 OFFCURVE",
"473 1430 OFFCURVE",
"473 1436 CURVE",
"450 1371 OFFCURVE",
"435 1287 OFFCURVE",
"409 1122 CURVE SMOOTH",
"383 957 OFFCURVE",
"352 780 OFFCURVE",
"325 664 CURVE",
"322 648 OFFCURVE",
"316 625 OFFCURVE",
"307 594 CURVE SMOOTH",
"289 532 OFFCURVE",
"277 483 OFFCURVE",
"277 438 CURVE SMOOTH"
);
},
{
closed = 1;
nodes = (
"552 303 LINE SMOOTH",
"552 338 OFFCURVE",
"347 369 OFFCURVE",
"276 369 CURVE SMOOTH",
"271 369 OFFCURVE",
"263 343 OFFCURVE",
"250 292 CURVE SMOOTH",
"224 189 OFFCURVE",
"188 27 OFFCURVE",
"187 20 CURVE",
"184 10 OFFCURVE",
"177 5 OFFCURVE",
"165 5 CURVE SMOOTH",
"145 5 OFFCURVE",
"123 20 OFFCURVE",
"123 39 CURVE SMOOTH",
"123 40 OFFCURVE",
"123 41 OFFCURVE",
"124 42 CURVE",
"124 43 OFFCURVE",
"124 44 OFFCURVE",
"124 45 CURVE",
"127 56 OFFCURVE",
"135 90 OFFCURVE",
"148 147 CURVE SMOOTH",
"161 204 OFFCURVE",
"175 267 OFFCURVE",
"190 336 CURVE SMOOTH",
"205 405 OFFCURVE",
"215 450 OFFCURVE",
"220 471 CURVE SMOOTH",
"241 562 OFFCURVE",
"267 698 OFFCURVE",
"298 877 CURVE SMOOTH",
"329 1056 OFFCURVE",
"353 1189 OFFCURVE",
"372 1274 CURVE SMOOTH",
"379 1305 OFFCURVE",
"390 1353 OFFCURVE",
"409 1419 CURVE SMOOTH",
"418 1452 OFFCURVE",
"428 1479 OFFCURVE",
"439 1502 CURVE SMOOTH",
"450 1525 OFFCURVE",
"459 1536 OFFCURVE",
"468 1536 CURVE SMOOTH",
"489 1536 OFFCURVE",
"505 1529 OFFCURVE",
"515 1516 CURVE",
"532 1489 OFFCURVE",
"569 1120 OFFCURVE",
"585 940 CURVE SMOOTH",
"613 600 LINE",
"613 541 OFFCURVE",
"617 452 OFFCURVE",
"625 333 CURVE SMOOTH",
"632 214 OFFCURVE",
"636 125 OFFCURVE",
"636 66 CURVE SMOOTH",
"636 57 LINE SMOOTH",
"636 37 OFFCURVE",
"635 28 OFFCURVE",
"630 17 CURVE SMOOTH",
"625 5 OFFCURVE",
"612 0 OFFCURVE",
"591 0 CURVE SMOOTH",
"571 0 OFFCURVE",
"552 15 OFFCURVE",
"552 35 CURVE SMOOTH"
);
}
);
width = 800;
},
{
layerId = "156B637B-193E-48A3-AAC8-7B4A3960F885";
name = "Bold Condensed";
paths = (
{
closed = 1;
nodes = (
"510 2239 OFFCURVE",
"559 2282 OFFCURVE",
"626 2339 CURVE SMOOTH",
"693 2396 OFFCURVE",
"733 2431 OFFCURVE",
"747 2444 CURVE",
"755 2447 OFFCURVE",
"761 2448 OFFCURVE",
"764 2448 CURVE SMOOTH",
"797 2448 OFFCURVE",
"831 2406 OFFCURVE",
"831 2371 CURVE SMOOTH",
"831 2357 OFFCURVE",
"826 2346 OFFCURVE",
"816 2339 CURVE SMOOTH",
"764 2301 OFFCURVE",
"665 2243 OFFCURVE",
"518 2166 CURVE",
"513 2163 OFFCURVE",
"507 2162 OFFCURVE",
"501 2162 CURVE SMOOTH",
"484 2162 OFFCURVE",
"468 2174 OFFCURVE",
"468 2189 CURVE SMOOTH",
"468 2196 OFFCURVE",
"472 2203 OFFCURVE",
"479 2210 CURVE SMOOTH"
);
},
{
closed = 1;
nodes = (
"459 1966 OFFCURVE",
"432 1905 OFFCURVE",
"432 1832 CURVE SMOOTH",
"432 1796 OFFCURVE",
"477 1747 OFFCURVE",
"525 1747 CURVE SMOOTH",
"573 1747 OFFCURVE",
"610 1767 OFFCURVE",
"627 1795 CURVE SMOOTH",
"643 1823 OFFCURVE",
"649 1848 OFFCURVE",
"649 1869 CURVE SMOOTH",
"649 1916 OFFCURVE",
"614 1966 OFFCURVE",
"527 1966 CURVE SMOOTH"
);
},
{
closed = 1;
nodes = (
"354 1969 OFFCURVE",
"420 2040 OFFCURVE",
"516 2040 CURVE SMOOTH",
"580 2040 OFFCURVE",
"631 2023 OFFCURVE",
"661 2000 CURVE SMOOTH",
"691 1976 OFFCURVE",
"710 1943 OFFCURVE",
"717 1915 CURVE SMOOTH",
"720 1901 OFFCURVE",
"722 1887 OFFCURVE",
"722 1874 CURVE SMOOTH",
"722 1846 OFFCURVE",
"718 1816 OFFCURVE",
"699 1777 CURVE SMOOTH",
"680 1737 OFFCURVE",
"654 1705 OFFCURVE",
"603 1684 CURVE SMOOTH",
"578 1673 OFFCURVE",
"549 1668 OFFCURVE",
"516 1668 CURVE SMOOTH",
"453 1668 OFFCURVE",
"407 1697 OFFCURVE",
"385 1741 CURVE SMOOTH",
"363 1785 OFFCURVE",
"354 1828 OFFCURVE",
"354 1873 CURVE SMOOTH"
);
},
{
closed = 1;
nodes = (
"484 1245 OFFCURVE",
"484 1251 OFFCURVE",
"485 1254 CURVE",
"442 1210 OFFCURVE",
"333 583 OFFCURVE",
"328 464 CURVE",
"385 449 OFFCURVE",
"445 441 OFFCURVE",
"510 441 CURVE SMOOTH",
"522 441 OFFCURVE",
"536 443 OFFCURVE",
"552 447 CURVE",
"550 474 OFFCURVE",
"543 549 OFFCURVE",
"531 670 CURVE SMOOTH",
"507 912 OFFCURVE",
"484 1161 OFFCURVE",
"484 1236 CURVE SMOOTH"
);
},
{
closed = 1;
nodes = (
"562 1476 OFFCURVE",
"575 1345 OFFCURVE",
"602 1130 CURVE SMOOTH",
"629 915 OFFCURVE",
"642 775 OFFCURVE",
"642 710 CURVE SMOOTH",
"642 649 OFFCURVE",
"649 546 OFFCURVE",
"664 400 CURVE SMOOTH",
"678 253 OFFCURVE",
"685 143 OFFCURVE",
"685 70 CURVE SMOOTH",
"685 24 OFFCURVE",
"662 1 OFFCURVE",
"617 1 CURVE SMOOTH",
"574 1 OFFCURVE",
"554 15 OFFCURVE",
"554 54 CURVE SMOOTH",
"554 321 LINE",
"515 348 OFFCURVE",
"394 368 OFFCURVE",
"315 373 CURVE",
"301 349 OFFCURVE",
"290 314 OFFCURVE",
"281 269 CURVE SMOOTH",
"263 178 OFFCURVE",
"246 76 OFFCURVE",
"214 23 CURVE",
"161 23 OFFCURVE",
"131 37 OFFCURVE",
"124 64 CURVE",
"137 82 OFFCURVE",
"154 146 OFFCURVE",
"175 256 CURVE SMOOTH",
"196 365 OFFCURVE",
"218 490 OFFCURVE",
"242 631 CURVE SMOOTH",
"290 912 OFFCURVE",
"343 1212 OFFCURVE",
"406 1401 CURVE SMOOTH",
"437 1496 OFFCURVE",
"467 1543 OFFCURVE",
"496 1543 CURVE SMOOTH",
"525 1543 OFFCURVE",
"547 1537 OFFCURVE",
"562 1525 CURVE"
);
}
);
width = 826;
}
);
note = Aringacute;
unicode = 01FA;
},
{
glyphname = Atilde;
lastChange = "2015-11-10 11:24:47 +0000";
layers = (
{
layerId = "27A8C2A5-6B67-4598-967C-E5EC4FB8AE70";
name = Condensed;
paths = (
{
closed = 1;
nodes = (
"245 1874 OFFCURVE",
"300 1928 OFFCURVE",
"364 1928 CURVE SMOOTH",
"398 1928 OFFCURVE",
"427 1914 OFFCURVE",
"451 1886 CURVE",
"471 1846 OFFCURVE",
"527 1807 OFFCURVE",
"568 1807 CURVE SMOOTH",
"603 1807 OFFCURVE",
"621 1831 OFFCURVE",
"621 1880 CURVE SMOOTH",
"621 1885 OFFCURVE",
"619 1892 OFFCURVE",
"616 1901 CURVE",
"612 1909 OFFCURVE",
"610 1915 OFFCURVE",
"609 1919 CURVE",
"613 1927 OFFCURVE",
"620 1931 OFFCURVE",
"630 1931 CURVE SMOOTH",
"662 1931 OFFCURVE",
"677 1896 OFFCURVE",
"677 1861 CURVE SMOOTH",
"677 1804 OFFCURVE",
"625 1753 OFFCURVE",
"568 1753 CURVE SMOOTH",
"519 1753 OFFCURVE",
"463 1790 OFFCURVE",
"438 1816 CURVE SMOOTH",
"425 1829 OFFCURVE",
"408 1848 OFFCURVE",
"386 1874 CURVE",
"372 1880 LINE",
"332 1880 OFFCURVE",
"296 1856 OFFCURVE",
"296 1825 CURVE SMOOTH",
"296 1820 OFFCURVE",
"299 1805 OFFCURVE",
"306 1782 CURVE",
"284 1751 LINE",
"267 1751 OFFCURVE",
"245 1769 OFFCURVE",
"245 1786 CURVE SMOOTH"
);
},
{
closed = 1;
nodes = (
"277 426 LINE",
"334 407 OFFCURVE",
"403 397 OFFCURVE",
"484 397 CURVE SMOOTH",
"486 397 OFFCURVE",
"490 397 OFFCURVE",
"496 397 CURVE",
"502 396 OFFCURVE",
"507 396 OFFCURVE",
"510 396 CURVE SMOOTH",
"537 396 OFFCURVE",
"550 403 OFFCURVE",
"550 416 CURVE SMOOTH",
"550 601 OFFCURVE",
"524 960 OFFCURVE",
"506 1151 CURVE SMOOTH",
"497 1246 OFFCURVE",
"488 1326 OFFCURVE",
"481 1389 CURVE",
"480 1393 OFFCURVE",
"479 1400 OFFCURVE",
"477 1411 CURVE",
"474 1422 OFFCURVE",
"473 1430 OFFCURVE",
"473 1436 CURVE",
"450 1371 OFFCURVE",
"435 1287 OFFCURVE",
"409 1122 CURVE SMOOTH",
"383 957 OFFCURVE",
"352 780 OFFCURVE",
"325 664 CURVE",
"322 648 OFFCURVE",
"316 625 OFFCURVE",
"307 594 CURVE SMOOTH",
"289 532 OFFCURVE",
"277 483 OFFCURVE",
"277 438 CURVE SMOOTH"
);
},
{
closed = 1;
nodes = (
"552 303 LINE SMOOTH",
"552 338 OFFCURVE",
"347 369 OFFCURVE",
"276 369 CURVE SMOOTH",
"271 369 OFFCURVE",
"263 343 OFFCURVE",
"250 292 CURVE SMOOTH",
"224 189 OFFCURVE",
"188 27 OFFCURVE",
"187 20 CURVE",
"184 10 OFFCURVE",
"177 5 OFFCURVE",
"165 5 CURVE SMOOTH",
"145 5 OFFCURVE",
"123 20 OFFCURVE",
"123 39 CURVE SMOOTH",
"123 40 OFFCURVE",
"123 41 OFFCURVE",
"124 42 CURVE",
"124 43 OFFCURVE",
"124 44 OFFCURVE",
"124 45 CURVE",
"127 56 OFFCURVE",
"135 90 OFFCURVE",
"148 147 CURVE SMOOTH",
"161 204 OFFCURVE",
"175 267 OFFCURVE",
"190 336 CURVE SMOOTH",
"205 405 OFFCURVE",
"215 450 OFFCURVE",
"220 471 CURVE SMOOTH",
"241 562 OFFCURVE",
"267 698 OFFCURVE",
"298 877 CURVE SMOOTH",
"329 1056 OFFCURVE",
"353 1189 OFFCURVE",
"372 1274 CURVE SMOOTH",
"379 1305 OFFCURVE",
"390 1353 OFFCURVE",
"409 1419 CURVE SMOOTH",
"418 1452 OFFCURVE",
"428 1479 OFFCURVE",
"439 1502 CURVE SMOOTH",
"450 1525 OFFCURVE",
"459 1536 OFFCURVE",
"468 1536 CURVE SMOOTH",
"489 1536 OFFCURVE",
"505 1529 OFFCURVE",
"515 1516 CURVE",
"532 1489 OFFCURVE",
"569 1120 OFFCURVE",
"585 940 CURVE SMOOTH",
"613 600 LINE",
"613 541 OFFCURVE",
"617 452 OFFCURVE",
"625 333 CURVE SMOOTH",
"632 214 OFFCURVE",
"636 125 OFFCURVE",
"636 66 CURVE SMOOTH",
"636 57 LINE SMOOTH",
"636 37 OFFCURVE",
"635 28 OFFCURVE",
"630 17 CURVE SMOOTH",
"625 5 OFFCURVE",
"612 0 OFFCURVE",
"591 0 CURVE SMOOTH",
"571 0 OFFCURVE",
"552 15 OFFCURVE",
"552 35 CURVE SMOOTH"
);
}
);
width = 800;
},
{
layerId = "156B637B-193E-48A3-AAC8-7B4A3960F885";
name = "Bold Condensed";
paths = (
{
closed = 1;
nodes = (
"731 1900 OFFCURVE",
"754 1875 OFFCURVE",
"754 1847 CURVE SMOOTH",
"754 1776 OFFCURVE",
"693 1715 OFFCURVE",
"622 1715 CURVE SMOOTH",
"550 1715 OFFCURVE",
"502 1737 OFFCURVE",
"484 1759 CURVE SMOOTH",
"466 1781 OFFCURVE",
"439 1802 OFFCURVE",
"404 1802 CURVE",
"383 1794 OFFCURVE",
"377 1777 OFFCURVE",
"380 1763 CURVE SMOOTH",
"383 1749 OFFCURVE",
"375 1731 OFFCURVE",
"351 1723 CURVE",
"310 1723 OFFCURVE",
"277 1743 OFFCURVE",
"277 1782 CURVE SMOOTH",
"277 1847 OFFCURVE",
"334 1901 OFFCURVE",
"425 1901 CURVE SMOOTH",
"442 1901 OFFCURVE",
"471 1887 OFFCURVE",
"514 1860 CURVE SMOOTH",
"557 1832 OFFCURVE",
"585 1818 OFFCURVE",
"598 1818 CURVE SMOOTH",
"625 1818 OFFCURVE",
"638 1839 OFFCURVE",
"642 1859 CURVE SMOOTH",
"646 1879 OFFCURVE",
"660 1900 OFFCURVE",
"687 1900 CURVE SMOOTH"
);
},
{
closed = 1;
nodes = (
"484 1245 OFFCURVE",
"484 1251 OFFCURVE",
"485 1254 CURVE",
"442 1210 OFFCURVE",
"333 583 OFFCURVE",
"328 464 CURVE",
"385 449 OFFCURVE",
"445 441 OFFCURVE",
"510 441 CURVE SMOOTH",
"522 441 OFFCURVE",
"536 443 OFFCURVE",
"552 447 CURVE",
"550 474 OFFCURVE",
"543 549 OFFCURVE",
"531 670 CURVE SMOOTH",
"507 912 OFFCURVE",
"484 1161 OFFCURVE",
"484 1236 CURVE SMOOTH"
);
},
{
closed = 1;
nodes = (
"562 1476 OFFCURVE",
"575 1345 OFFCURVE",
"602 1130 CURVE SMOOTH",
"629 915 OFFCURVE",
"642 775 OFFCURVE",
"642 710 CURVE SMOOTH",
"642 649 OFFCURVE",
"649 546 OFFCURVE",
"664 400 CURVE SMOOTH",
"678 253 OFFCURVE",
"685 143 OFFCURVE",
"685 70 CURVE SMOOTH",
"685 24 OFFCURVE",
"662 1 OFFCURVE",
"617 1 CURVE SMOOTH",
"574 1 OFFCURVE",
"554 15 OFFCURVE",
"554 54 CURVE SMOOTH",
"554 321 LINE",
"515 348 OFFCURVE",
"394 368 OFFCURVE",
"315 373 CURVE",
"301 349 OFFCURVE",
"290 314 OFFCURVE",
"281 269 CURVE SMOOTH",
"263 178 OFFCURVE",
"246 76 OFFCURVE",
"214 23 CURVE",
"161 23 OFFCURVE",
"131 37 OFFCURVE",
"124 64 CURVE",
"137 82 OFFCURVE",
"154 146 OFFCURVE",
"175 256 CURVE SMOOTH",
"196 365 OFFCURVE",
"218 490 OFFCURVE",
"242 631 CURVE SMOOTH",
"290 912 OFFCURVE",
"343 1212 OFFCURVE",
"406 1401 CURVE SMOOTH",
"437 1496 OFFCURVE",
"467 1543 OFFCURVE",
"496 1543 CURVE SMOOTH",
"525 1543 OFFCURVE",
"547 1537 OFFCURVE",
"562 1525 CURVE"
);
}
);
width = 826;
}
);
note = Atilde;
unicode = 00C3;
},
{
glyphname = AE;
lastChange = "2015-11-10 11:24:47 +0000";
layers = (
{
layerId = "27A8C2A5-6B67-4598-967C-E5EC4FB8AE70";
name = Condensed;
paths = (
{
closed = 1;
nodes = (
"480 1364 OFFCURVE",
"311 732 OFFCURVE",
"304 664 CURVE",
"389 667 OFFCURVE",
"458 675 OFFCURVE",
"509 688 CURVE",
"510 723 OFFCURVE",
"511 795 OFFCURVE",
"514 903 CURVE SMOOTH",
"516 1010 OFFCURVE",
"517 1094 OFFCURVE",
"517 1153 CURVE SMOOTH",
"517 1246 OFFCURVE",
"513 1326 OFFCURVE",
"504 1393 CURVE"
);
},
{
closed = 1;
nodes = (
"504 -12 LINE",
"515 63 OFFCURVE",
"521 144 OFFCURVE",
"521 229 CURVE SMOOTH",
"521 273 OFFCURVE",
"519 339 OFFCURVE",
"516 426 CURVE SMOOTH",
"513 513 OFFCURVE",
"511 578 OFFCURVE",
"511 621 CURVE",
"500 635 LINE",
"495 634 OFFCURVE",
"473 632 OFFCURVE",
"436 629 CURVE SMOOTH",
"399 626 OFFCURVE",
"365 623 OFFCURVE",
"336 618 CURVE SMOOTH",
"307 613 OFFCURVE",
"291 607 OFFCURVE",
"289 600 CURVE SMOOTH",
"187 209 LINE",
"187 208 OFFCURVE",
"166 97 OFFCURVE",
"147 43 CURVE SMOOTH",
"137 16 OFFCURVE",
"126 2 OFFCURVE",
"115 2 CURVE SMOOTH",
"106 2 OFFCURVE",
"99 18 OFFCURVE",
"99 27 CURVE SMOOTH",
"100 92 OFFCURVE",
"128 227 OFFCURVE",
"181 432 CURVE SMOOTH",
"268 778 OFFCURVE",
"358 1098 OFFCURVE",
"449 1393 CURVE SMOOTH",
"467 1454 OFFCURVE",
"483 1495 OFFCURVE",
"498 1515 CURVE SMOOTH",
"512 1534 OFFCURVE",
"527 1544 OFFCURVE",
"543 1544 CURVE SMOOTH",
"560 1544 OFFCURVE",
"586 1546 OFFCURVE",
"621 1549 CURVE SMOOTH",
"656 1552 OFFCURVE",
"683 1554 OFFCURVE",
"701 1554 CURVE SMOOTH",
"744 1554 OFFCURVE",
"765 1543 OFFCURVE",
"765 1522 CURVE",
"752 1497 LINE",
"685 1497 OFFCURVE",
"618 1493 OFFCURVE",
"550 1485 CURVE",
"550 1452 OFFCURVE",
"552 1401 OFFCURVE",
"557 1333 CURVE SMOOTH",
"562 1265 OFFCURVE",
"564 1214 OFFCURVE",
"564 1180 CURVE SMOOTH",
"564 1127 OFFCURVE",
"563 1047 OFFCURVE",
"561 941 CURVE SMOOTH",
"559 835 OFFCURVE",
"558 755 OFFCURVE",
"558 702 CURVE",
"568 690 LINE",
"587 690 OFFCURVE",
"614 694 OFFCURVE",
"649 701 CURVE SMOOTH",
"684 708 OFFCURVE",
"711 711 OFFCURVE",
"730 711 CURVE",
"758 676 LINE",
"758 653 OFFCURVE",
"709 641 OFFCURVE",
"612 641 CURVE SMOOTH",
"558 641 LINE",
"558 587 OFFCURVE",
"559 506 OFFCURVE",
"562 398 CURVE SMOOTH",
"565 290 OFFCURVE",
"566 209 OFFCURVE",
"566 154 CURVE SMOOTH",
"566 145 OFFCURVE",
"566 131 OFFCURVE",
"565 112 CURVE SMOOTH",
"564 93 OFFCURVE",
"564 79 OFFCURVE",
"564 70 CURVE SMOOTH",
"564 47 OFFCURVE",
"570 35 OFFCURVE",
"582 35 CURVE SMOOTH",
"608 35 OFFCURVE",
"647 39 OFFCURVE",
"698 46 CURVE SMOOTH",
"749 53 OFFCURVE",
"788 57 OFFCURVE",
"814 57 CURVE SMOOTH",
"834 57 OFFCURVE",
"859 48 OFFCURVE",
"859 31 CURVE SMOOTH",
"859 17 OFFCURVE",
"839 7 OFFCURVE",
"798 2 CURVE SMOOTH",
"757 -3 OFFCURVE",
"713 -6 OFFCURVE",
"665 -7 CURVE SMOOTH",
"616 -8 OFFCURVE",
"588 -10 OFFCURVE",
"580 -14 CURVE SMOOTH",
"578 -15 OFFCURVE",
"572 -20 OFFCURVE",
"561 -28 CURVE SMOOTH",
"550 -36 OFFCURVE",
"541 -40 OFFCURVE",
"533 -41 CURVE"
);
}
);
width = 940;
},
{
anchors = (
{
name = bottom;
position = "{503, 0}";
},
{
name = top;
position = "{503, 1552}";
}
);
layerId = "156B637B-193E-48A3-AAC8-7B4A3960F885";
name = "Bold Condensed";
paths = (
{
closed = 1;
nodes = (
"512 2 LINE",
"514 3 LINE",
"525 120 OFFCURVE",
"531 204 OFFCURVE",
"531 253 CURVE SMOOTH",
"531 295 OFFCURVE",
"529 358 OFFCURVE",
"526 443 CURVE SMOOTH",
"523 528 OFFCURVE",
"521 591 OFFCURVE",
"521 633 CURVE",
"511 632 OFFCURVE",
"497 632 OFFCURVE",
"478 631 CURVE SMOOTH",
"440 629 OFFCURVE",
"421 627 OFFCURVE",
"389 622 CURVE SMOOTH",
"372 619 OFFCURVE",
"357 616 OFFCURVE",
"344 611 CURVE",
"243 226 LINE",
"242 220 OFFCURVE",
"238 202 OFFCURVE",
"233 172 CURVE SMOOTH",
"221 112 OFFCURVE",
"214 71 OFFCURVE",
"190 31 CURVE",
"177 11 OFFCURVE",
"163 1 OFFCURVE",
"148 1 CURVE SMOOTH",
"127 1 OFFCURVE",
"108 25 OFFCURVE",
"108 48 CURVE SMOOTH",
"108 113 OFFCURVE",
"127 225 OFFCURVE",
"164 372 CURVE SMOOTH",
"200 519 OFFCURVE",
"233 639 OFFCURVE",
"287 819 CURVE SMOOTH",
"341 998 OFFCURVE",
"363 1074 OFFCURVE",
"414 1235 CURVE SMOOTH",
"439 1315 OFFCURVE",
"455 1363 OFFCURVE",
"460 1380 CURVE",
"460 1381 OFFCURVE",
"473 1429 OFFCURVE",
"477 1439 CURVE SMOOTH",
"479 1444 OFFCURVE",
"483 1453 OFFCURVE",
"488 1468 CURVE SMOOTH",
"493 1482 OFFCURVE",
"499 1492 OFFCURVE",
"504 1498 CURVE SMOOTH",
"509 1504 OFFCURVE",
"515 1512 OFFCURVE",
"522 1521 CURVE SMOOTH",
"537 1539 OFFCURVE",
"555 1544 OFFCURVE",
"576 1544 CURVE SMOOTH",
"593 1544 OFFCURVE",
"620 1546 OFFCURVE",
"655 1549 CURVE SMOOTH",
"690 1552 OFFCURVE",
"717 1554 OFFCURVE",
"734 1554 CURVE SMOOTH",
"792 1554 OFFCURVE",
"821 1535 OFFCURVE",
"821 1498 CURVE SMOOTH",
"821 1492 LINE",
"800 1450 LINE",
"731 1450 OFFCURVE",
"667 1447 OFFCURVE",
"606 1440 CURVE",
"607 1413 OFFCURVE",
"609 1369 OFFCURVE",
"614 1308 CURVE SMOOTH",
"618 1247 OFFCURVE",
"620 1199 OFFCURVE",
"620 1166 CURVE SMOOTH",
"620 1116 OFFCURVE",
"619 1041 OFFCURVE",
"617 941 CURVE SMOOTH",
"615 841 OFFCURVE",
"614 766 OFFCURVE",
"614 716 CURVE",
"627 717 OFFCURVE",
"651 721 OFFCURVE",
"684 727 CURVE SMOOTH",
"717 732 OFFCURVE",
"743 735 OFFCURVE",
"762 735 CURVE SMOOTH",
"772 735 LINE",
"814 687 LINE",
"814 643 OFFCURVE",
"776 621 OFFCURVE",
"701 621 CURVE SMOOTH",
"692 621 LINE",
"613 622 LINE",
"613 571 OFFCURVE",
"614 484 OFFCURVE",
"616 363 CURVE SMOOTH",
"618 241 OFFCURVE",
"619 147 OFFCURVE",
"619 82 CURVE",
"644 82 OFFCURVE",
"681 86 OFFCURVE",
"732 93 CURVE SMOOTH",
"782 100 OFFCURVE",
"820 103 OFFCURVE",
"846 103 CURVE SMOOTH",
"879 103 OFFCURVE",
"914 84 OFFCURVE",
"914 53 CURVE SMOOTH",
"914 10 OFFCURVE",
"833 -12 OFFCURVE",
"670 -12 CURVE SMOOTH",
"638 -12 LINE SMOOTH",
"627 -12 OFFCURVE",
"613 -17 OFFCURVE",
"596 -26 CURVE",
"579 -36 OFFCURVE",
"566 -42 OFFCURVE",
"557 -43 CURVE"
);
},
{
closed = 1;
nodes = (
"518 739 OFFCURVE",
"519 808 OFFCURVE",
"522 912 CURVE SMOOTH",
"524 1016 OFFCURVE",
"525 1096 OFFCURVE",
"525 1153 CURVE SMOOTH",
"525 1211 OFFCURVE",
"524 1254 OFFCURVE",
"523 1283 CURVE",
"448 1032 OFFCURVE",
"395 833 OFFCURVE",
"364 688 CURVE",
"429 692 OFFCURVE",
"480 698 OFFCURVE",
"517 706 CURVE"
);
}
);
width = 1006;
}
);
note = AE;
unicode = 00C6;
},
{
glyphname = AEacute;
lastChange = "2015-11-10 11:24:48 +0000";
layers = (
{
layerId = "27A8C2A5-6B67-4598-967C-E5EC4FB8AE70";
name = Condensed;
paths = (
{
closed = 1;
nodes = (
"659 1728 OFFCURVE",
"678 1746 OFFCURVE",
"715 1776 CURVE SMOOTH",
"752 1806 OFFCURVE",
"793 1838 OFFCURVE",
"837 1872 CURVE SMOOTH",
"880 1905 OFFCURVE",
"906 1925 OFFCURVE",
"913 1932 CURVE",
"943 1932 OFFCURVE",
"958 1921 OFFCURVE",
"958 1900 CURVE SMOOTH",
"958 1899 OFFCURVE",
"956 1889 OFFCURVE",
"952 1869 CURVE",
"883 1838 OFFCURVE",
"798 1780 OFFCURVE",
"696 1693 CURVE",
"676 1693 OFFCURVE",
"659 1704 OFFCURVE",
"659 1723 CURVE SMOOTH"
);
},
{
closed = 1;
nodes = (
"480 1364 OFFCURVE",
"311 732 OFFCURVE",
"304 664 CURVE",
"389 667 OFFCURVE",
"458 675 OFFCURVE",
"509 688 CURVE",
"510 723 OFFCURVE",
"511 795 OFFCURVE",
"514 903 CURVE SMOOTH",
"516 1010 OFFCURVE",
"517 1094 OFFCURVE",
"517 1153 CURVE SMOOTH",
"517 1246 OFFCURVE",
"513 1326 OFFCURVE",
"504 1393 CURVE"
);
},
{
closed = 1;
nodes = (
"504 -12 LINE",
"515 63 OFFCURVE",
"521 144 OFFCURVE",
"521 229 CURVE SMOOTH",
"521 273 OFFCURVE",
"519 339 OFFCURVE",
"516 426 CURVE SMOOTH",
"513 513 OFFCURVE",
"511 578 OFFCURVE",
"511 621 CURVE",
"500 635 LINE",
"495 634 OFFCURVE",
"473 632 OFFCURVE",
"436 629 CURVE SMOOTH",
"399 626 OFFCURVE",
"365 623 OFFCURVE",
"336 618 CURVE SMOOTH",
"307 613 OFFCURVE",
"291 607 OFFCURVE",
"289 600 CURVE SMOOTH",
"187 209 LINE",
"187 208 OFFCURVE",
"166 97 OFFCURVE",
"147 43 CURVE SMOOTH",
"137 16 OFFCURVE",
"126 2 OFFCURVE",
"115 2 CURVE SMOOTH",
"106 2 OFFCURVE",
"99 18 OFFCURVE",
"99 27 CURVE SMOOTH",
"100 92 OFFCURVE",
"128 227 OFFCURVE",
"181 432 CURVE SMOOTH",
"268 778 OFFCURVE",
"358 1098 OFFCURVE",
"449 1393 CURVE SMOOTH",
"467 1454 OFFCURVE",
"483 1495 OFFCURVE",
"498 1515 CURVE SMOOTH",
"512 1534 OFFCURVE",
"527 1544 OFFCURVE",
"543 1544 CURVE SMOOTH",
"560 1544 OFFCURVE",
"586 1546 OFFCURVE",
"621 1549 CURVE SMOOTH",
"656 1552 OFFCURVE",
"683 1554 OFFCURVE",
"701 1554 CURVE SMOOTH",
"744 1554 OFFCURVE",
"765 1543 OFFCURVE",
"765 1522 CURVE",
"752 1497 LINE",
"685 1497 OFFCURVE",
"618 1493 OFFCURVE",
"550 1485 CURVE",
"550 1452 OFFCURVE",
"552 1401 OFFCURVE",
"557 1333 CURVE SMOOTH",
"562 1265 OFFCURVE",
"564 1214 OFFCURVE",
"564 1180 CURVE SMOOTH",
"564 1127 OFFCURVE",
"563 1047 OFFCURVE",
"561 941 CURVE SMOOTH",
"559 835 OFFCURVE",
"558 755 OFFCURVE",
"558 702 CURVE",
"568 690 LINE",
"587 690 OFFCURVE",
"614 694 OFFCURVE",
"649 701 CURVE SMOOTH",
"684 708 OFFCURVE",
"711 711 OFFCURVE",
"730 711 CURVE",
"758 676 LINE",
"758 653 OFFCURVE",
"709 641 OFFCURVE",
"612 641 CURVE SMOOTH",
"558 641 LINE",
"558 587 OFFCURVE",
"559 506 OFFCURVE",
"562 398 CURVE SMOOTH",
"565 290 OFFCURVE",
"566 209 OFFCURVE",
"566 154 CURVE SMOOTH",
"566 145 OFFCURVE",
"566 131 OFFCURVE",
"565 112 CURVE SMOOTH",
"564 93 OFFCURVE",
"564 79 OFFCURVE",
"564 70 CURVE SMOOTH",
"564 47 OFFCURVE",
"570 35 OFFCURVE",
"582 35 CURVE SMOOTH",
"608 35 OFFCURVE",
"647 39 OFFCURVE",
"698 46 CURVE SMOOTH",
"749 53 OFFCURVE",
"788 57 OFFCURVE",
"814 57 CURVE SMOOTH",
"834 57 OFFCURVE",
"859 48 OFFCURVE",
"859 31 CURVE SMOOTH",
"859 17 OFFCURVE",
"839 7 OFFCURVE",
"798 2 CURVE SMOOTH",
"757 -3 OFFCURVE",
"713 -6 OFFCURVE",
"665 -7 CURVE SMOOTH",
"616 -8 OFFCURVE",
"588 -10 OFFCURVE",
"580 -14 CURVE SMOOTH",
"578 -15 OFFCURVE",
"572 -20 OFFCURVE",
"561 -28 CURVE SMOOTH",
"550 -36 OFFCURVE",
"541 -40 OFFCURVE",
"533 -41 CURVE"
);
}
);
width = 940;
},
{
layerId = "156B637B-193E-48A3-AAC8-7B4A3960F885";
name = "Bold Condensed";
paths = (
{
closed = 1;
nodes = (
"727 1784 OFFCURVE",
"776 1827 OFFCURVE",
"843 1884 CURVE SMOOTH",
"910 1941 OFFCURVE",
"950 1976 OFFCURVE",
"964 1989 CURVE",
"972 1992 OFFCURVE",
"978 1993 OFFCURVE",
"981 1993 CURVE SMOOTH",
"1014 1993 OFFCURVE",
"1048 1951 OFFCURVE",
"1048 1916 CURVE SMOOTH",
"1048 1902 OFFCURVE",
"1043 1891 OFFCURVE",
"1033 1884 CURVE SMOOTH",
"981 1846 OFFCURVE",
"882 1788 OFFCURVE",
"735 1711 CURVE",
"730 1708 OFFCURVE",
"724 1707 OFFCURVE",
"718 1707 CURVE SMOOTH",
"701 1707 OFFCURVE",
"685 1719 OFFCURVE",
"685 1734 CURVE SMOOTH",
"685 1741 OFFCURVE",
"689 1748 OFFCURVE",
"696 1755 CURVE SMOOTH"
);
},
{
closed = 1;
nodes = (
"512 2 LINE",
"514 3 LINE",
"525 120 OFFCURVE",
"531 204 OFFCURVE",
"531 253 CURVE SMOOTH",
"531 295 OFFCURVE",
"529 358 OFFCURVE",
"526 443 CURVE SMOOTH",
"523 528 OFFCURVE",
"521 591 OFFCURVE",
"521 633 CURVE",
"511 632 OFFCURVE",
"497 632 OFFCURVE",
"478 631 CURVE SMOOTH",
"440 629 OFFCURVE",
"421 627 OFFCURVE",
"389 622 CURVE SMOOTH",
"372 619 OFFCURVE",
"357 616 OFFCURVE",
"344 611 CURVE",
"243 226 LINE",
"242 220 OFFCURVE",
"238 202 OFFCURVE",
"233 172 CURVE SMOOTH",
"221 112 OFFCURVE",
"214 71 OFFCURVE",
"190 31 CURVE",
"177 11 OFFCURVE",
"163 1 OFFCURVE",
"148 1 CURVE SMOOTH",
"127 1 OFFCURVE",
"108 25 OFFCURVE",
"108 48 CURVE SMOOTH",
"108 113 OFFCURVE",
"127 225 OFFCURVE",
"164 372 CURVE SMOOTH",
"200 519 OFFCURVE",
"233 639 OFFCURVE",
"287 819 CURVE SMOOTH",
"341 998 OFFCURVE",
"363 1074 OFFCURVE",
"414 1235 CURVE SMOOTH",
"439 1315 OFFCURVE",
"455 1363 OFFCURVE",
"460 1380 CURVE",
"460 1381 OFFCURVE",
"473 1429 OFFCURVE",
"477 1439 CURVE SMOOTH",
"479 1444 OFFCURVE",
"483 1453 OFFCURVE",
"488 1468 CURVE SMOOTH",
"493 1482 OFFCURVE",
"499 1492 OFFCURVE",
"504 1498 CURVE SMOOTH",
"509 1504 OFFCURVE",
"515 1512 OFFCURVE",
"522 1521 CURVE SMOOTH",
"537 1539 OFFCURVE",
"555 1544 OFFCURVE",
"576 1544 CURVE SMOOTH",
"593 1544 OFFCURVE",
"620 1546 OFFCURVE",
"655 1549 CURVE SMOOTH",
"690 1552 OFFCURVE",
"717 1554 OFFCURVE",
"734 1554 CURVE SMOOTH",
"792 1554 OFFCURVE",
"821 1535 OFFCURVE",
"821 1498 CURVE SMOOTH",
"821 1492 LINE",
"800 1450 LINE",
"731 1450 OFFCURVE",
"667 1447 OFFCURVE",
"606 1440 CURVE",
"607 1413 OFFCURVE",
"609 1369 OFFCURVE",
"614 1308 CURVE SMOOTH",
"618 1247 OFFCURVE",
"620 1199 OFFCURVE",
"620 1166 CURVE SMOOTH",
"620 1116 OFFCURVE",
"619 1041 OFFCURVE",
"617 941 CURVE SMOOTH",
"615 841 OFFCURVE",
"614 766 OFFCURVE",
"614 716 CURVE",
"627 717 OFFCURVE",
"651 721 OFFCURVE",
"684 727 CURVE SMOOTH",
"717 732 OFFCURVE",
"743 735 OFFCURVE",
"762 735 CURVE SMOOTH",
"772 735 LINE",
"814 687 LINE",
"814 643 OFFCURVE",
"776 621 OFFCURVE",
"701 621 CURVE SMOOTH",
"692 621 LINE",
"613 622 LINE",
"613 571 OFFCURVE",
"614 484 OFFCURVE",
"616 363 CURVE SMOOTH",
"618 241 OFFCURVE",
"619 147 OFFCURVE",
"619 82 CURVE",
"644 82 OFFCURVE",
"681 86 OFFCURVE",
"732 93 CURVE SMOOTH",
"782 100 OFFCURVE",
"820 103 OFFCURVE",
"846 103 CURVE SMOOTH",
"879 103 OFFCURVE",
"914 84 OFFCURVE",
"914 53 CURVE SMOOTH",
"914 10 OFFCURVE",
"833 -12 OFFCURVE",
"670 -12 CURVE SMOOTH",
"638 -12 LINE SMOOTH",
"627 -12 OFFCURVE",
"613 -17 OFFCURVE",
"596 -26 CURVE",
"579 -36 OFFCURVE",
"566 -42 OFFCURVE",
"557 -43 CURVE"
);
},
{
closed = 1;
nodes = (
"518 739 OFFCURVE",
"519 808 OFFCURVE",
"522 912 CURVE SMOOTH",
"524 1016 OFFCURVE",
"525 1096 OFFCURVE",
"525 1153 CURVE SMOOTH",
"525 1211 OFFCURVE",
"524 1254 OFFCURVE",
"523 1283 CURVE",
"448 1032 OFFCURVE",
"395 833 OFFCURVE",
"364 688 CURVE",
"429 692 OFFCURVE",
"480 698 OFFCURVE",
"517 706 CURVE"
);
}
);
width = 1006;
}
);
note = AEacute;
unicode = 01FC;
},
{
glyphname = AEmacron;
lastChange = "2015-11-10 12:19:53 +0000";
layers = (
{
layerId = "27A8C2A5-6B67-4598-967C-E5EC4FB8AE70";
name = Condensed;
paths = (
{
closed = 1;
nodes = (
"891 1699 OFFCURVE",
"847 1693 OFFCURVE",
"761 1693 CURVE SMOOTH",
"646 1693 LINE SMOOTH",
"628 1693 OFFCURVE",
"615 1693 OFFCURVE",
"606 1693 CURVE SMOOTH",
"589 1693 OFFCURVE",
"555 1694 OFFCURVE",
"541 1697 CURVE SMOOTH",
"527 1700 OFFCURVE",
"508 1704 OFFCURVE",
"502 1712 CURVE SMOOTH",
"499 1716 OFFCURVE",
"497 1721 OFFCURVE",
"497 1726 CURVE",
"498 1737 OFFCURVE",
"542 1743 OFFCURVE",
"628 1743 CURVE SMOOTH",
"744 1743 LINE SMOOTH",
"799 1743 OFFCURVE",
"815 1743 OFFCURVE",
"848 1739 CURVE SMOOTH",
"880 1735 OFFCURVE",
"892 1726 OFFCURVE",
"892 1710 CURVE"
);
},
{
closed = 1;
nodes = (
"480 1364 OFFCURVE",
"311 732 OFFCURVE",
"304 664 CURVE",
"389 667 OFFCURVE",
"458 675 OFFCURVE",
"509 688 CURVE",
"510 723 OFFCURVE",
"511 795 OFFCURVE",
"514 903 CURVE SMOOTH",
"516 1010 OFFCURVE",
"517 1094 OFFCURVE",
"517 1153 CURVE SMOOTH",
"517 1246 OFFCURVE",
"513 1326 OFFCURVE",
"504 1393 CURVE"
);
},
{
closed = 1;
nodes = (
"504 -12 LINE",
"515 63 OFFCURVE",
"521 144 OFFCURVE",
"521 229 CURVE SMOOTH",
"521 273 OFFCURVE",
"519 339 OFFCURVE",
"516 426 CURVE SMOOTH",
"513 513 OFFCURVE",
"511 578 OFFCURVE",
"511 621 CURVE",
"500 635 LINE",
"495 634 OFFCURVE",
"473 632 OFFCURVE",
"436 629 CURVE SMOOTH",
"399 626 OFFCURVE",
"365 623 OFFCURVE",
"336 618 CURVE SMOOTH",
"307 613 OFFCURVE",
"291 607 OFFCURVE",
"289 600 CURVE SMOOTH",
"187 209 LINE",
"187 208 OFFCURVE",
"166 97 OFFCURVE",
"147 43 CURVE SMOOTH",
"137 16 OFFCURVE",
"126 2 OFFCURVE",
"115 2 CURVE SMOOTH",
"106 2 OFFCURVE",
"99 18 OFFCURVE",
"99 27 CURVE SMOOTH",
"100 92 OFFCURVE",
"128 227 OFFCURVE",
"181 432 CURVE SMOOTH",
"268 778 OFFCURVE",
"358 1098 OFFCURVE",
"449 1393 CURVE SMOOTH",
"467 1454 OFFCURVE",
"483 1495 OFFCURVE",
"498 1515 CURVE SMOOTH",
"512 1534 OFFCURVE",
"527 1544 OFFCURVE",
"543 1544 CURVE SMOOTH",
"560 1544 OFFCURVE",
"586 1546 OFFCURVE",
"621 1549 CURVE SMOOTH",
"656 1552 OFFCURVE",
"683 1554 OFFCURVE",
"701 1554 CURVE SMOOTH",
"744 1554 OFFCURVE",
"765 1543 OFFCURVE",
"765 1522 CURVE",
"752 1497 LINE",
"685 1497 OFFCURVE",
"618 1493 OFFCURVE",
"550 1485 CURVE",
"550 1452 OFFCURVE",
"552 1401 OFFCURVE",
"557 1333 CURVE SMOOTH",
"562 1265 OFFCURVE",
"564 1214 OFFCURVE",
"564 1180 CURVE SMOOTH",
"564 1127 OFFCURVE",
"563 1047 OFFCURVE",
"561 941 CURVE SMOOTH",
"559 835 OFFCURVE",
"558 755 OFFCURVE",
"558 702 CURVE",
"568 690 LINE",
"587 690 OFFCURVE",
"614 694 OFFCURVE",
"649 701 CURVE SMOOTH",
"684 708 OFFCURVE",
"711 711 OFFCURVE",
"730 711 CURVE",
"758 676 LINE",
"758 653 OFFCURVE",
"709 641 OFFCURVE",
"612 641 CURVE SMOOTH",
"558 641 LINE",
"558 587 OFFCURVE",
"559 506 OFFCURVE",
"562 398 CURVE SMOOTH",
"565 290 OFFCURVE",
"566 209 OFFCURVE",
"566 154 CURVE SMOOTH",
"566 145 OFFCURVE",
"566 131 OFFCURVE",
"565 112 CURVE SMOOTH",
"564 93 OFFCURVE",
"564 79 OFFCURVE",
"564 70 CURVE SMOOTH",
"564 47 OFFCURVE",
"570 35 OFFCURVE",
"582 35 CURVE SMOOTH",
"608 35 OFFCURVE",
"647 39 OFFCURVE",
"698 46 CURVE SMOOTH",
"749 53 OFFCURVE",
"788 57 OFFCURVE",
"814 57 CURVE SMOOTH",
"834 57 OFFCURVE",
"859 48 OFFCURVE",
"859 31 CURVE SMOOTH",
"859 17 OFFCURVE",
"839 7 OFFCURVE",
"798 2 CURVE SMOOTH",
"757 -3 OFFCURVE",
"713 -6 OFFCURVE",
"665 -7 CURVE SMOOTH",
"616 -8 OFFCURVE",
"588 -10 OFFCURVE",
"580 -14 CURVE SMOOTH",
"578 -15 OFFCURVE",
"572 -20 OFFCURVE",
"561 -28 CURVE SMOOTH",
"550 -36 OFFCURVE",
"541 -40 OFFCURVE",
"533 -41 CURVE"
);
}
);
width = 940;
},
{
components = (
{
name = AE;
},
{
name = macron;
transform = "{1, 0, 0, 1, 160, 254}";
}
);
layerId = "156B637B-193E-48A3-AAC8-7B4A3960F885";
name = "Bold Condensed";
width = 1006;
}
);
note = uni01E2;
unicode = 01E2;
},
{
glyphname = B;
lastChange = "2015-11-10 11:24:47 +0000";
layers = (
{
layerId = "27A8C2A5-6B67-4598-967C-E5EC4FB8AE70";
name = Condensed;
paths = (
{
closed = 1;
nodes = (
"256 885 LINE",
"317 885 OFFCURVE",
"375 946 OFFCURVE",
"410 1026 CURVE SMOOTH",
"445 1106 OFFCURVE",
"465 1197 OFFCURVE",
"465 1268 CURVE SMOOTH",
"465 1361 OFFCURVE",
"386 1466 OFFCURVE",
"295 1466 CURVE SMOOTH",
"260 1466 OFFCURVE",
"242 1437 OFFCURVE",
"242 1378 CURVE SMOOTH",
"242 1323 OFFCURVE",
"243 1242 OFFCURVE",
"246 1133 CURVE SMOOTH",
"249 1024 OFFCURVE",
"250 942 OFFCURVE",
"250 887 CURVE"
);
},
{
closed = 1;
nodes = (
"261 70 OFFCURVE",
"264 70 OFFCURVE",
"267 69 CURVE SMOOTH",
"270 68 OFFCURVE",
"272 68 OFFCURVE",
"273 68 CURVE SMOOTH",
"413 68 OFFCURVE",
"527 210 OFFCURVE",
"527 371 CURVE SMOOTH",
"527 616 OFFCURVE",
"468 762 OFFCURVE",
"351 811 CURVE",
"338 810 OFFCURVE",
"320 807 OFFCURVE",
"297 800 CURVE SMOOTH",
"274 793 OFFCURVE",
"259 789 OFFCURVE",
"250 788 CURVE",
"257 588 OFFCURVE",
"260 349 OFFCURVE",
"260 70 CURVE"
);
},
{
closed = 1;
nodes = (
"183 73 OFFCURVE",
"185 160 OFFCURVE",
"188 276 CURVE SMOOTH",
"191 391 OFFCURVE",
"193 478 OFFCURVE",
"193 535 CURVE SMOOTH",
"193 630 OFFCURVE",
"191 773 OFFCURVE",
"186 962 CURVE SMOOTH",
"181 1151 OFFCURVE",
"179 1294 OFFCURVE",
"179 1389 CURVE SMOOTH",
"179 1487 OFFCURVE",
"197 1536 OFFCURVE",
"232 1536 CURVE SMOOTH",
"419 1536 OFFCURVE",
"519 1403 OFFCURVE",
"519 1214 CURVE SMOOTH",
"519 1106 OFFCURVE",
"475 993 OFFCURVE",
"387 874 CURVE",
"532 730 OFFCURVE",
"584 617 OFFCURVE",
"584 433 CURVE SMOOTH",
"584 328 OFFCURVE",
"579 267 OFFCURVE",
"560 205 CURVE SMOOTH",
"541 143 OFFCURVE",
"506 103 OFFCURVE",
"450 65 CURVE SMOOTH",
"422 46 OFFCURVE",
"387 27 OFFCURVE",
"344 8 CURVE",
"335 7 OFFCURVE",
"321 4 OFFCURVE",
"304 -2 CURVE",
"287 -9 OFFCURVE",
"273 -12 OFFCURVE",
"263 -12 CURVE SMOOTH",
"259 -12 LINE SMOOTH",
"208 -12 OFFCURVE",
"183 -3 OFFCURVE",
"183 16 CURVE SMOOTH"
);
}
);
width = 740;
},
{
layerId = "156B637B-193E-48A3-AAC8-7B4A3960F885";
name = "Bold Condensed";
paths = (
{
closed = 1;
nodes = (
"625 333 OFFCURVE",
"612 272 OFFCURVE",
"577 197 CURVE SMOOTH",
"541 122 OFFCURVE",
"495 58 OFFCURVE",
"414 15 CURVE SMOOTH",
"373 -6 OFFCURVE",
"329 -17 OFFCURVE",
"280 -17 CURVE SMOOTH",
"272 -17 LINE SMOOTH",
"208 -17 OFFCURVE",
"176 0 OFFCURVE",
"176 34 CURVE SMOOTH",
"176 90 OFFCURVE",
"178 174 OFFCURVE",
"181 286 CURVE SMOOTH",
"184 398 OFFCURVE",
"186 482 OFFCURVE",
"186 538 CURVE SMOOTH",
"186 630 OFFCURVE",
"184 769 OFFCURVE",
"179 954 CURVE SMOOTH",
"174 1139 OFFCURVE",
"172 1278 OFFCURVE",
"172 1370 CURVE SMOOTH",
"172 1382 LINE SMOOTH",
"172 1421 OFFCURVE",
"174 1444 OFFCURVE",
"183 1480 CURVE SMOOTH",
"191 1516 OFFCURVE",
"214 1537 OFFCURVE",
"249 1537 CURVE SMOOTH",
"444 1537 OFFCURVE",
"559 1398 OFFCURVE",
"559 1201 CURVE SMOOTH",
"559 1077 OFFCURVE",
"484 924 OFFCURVE",
"393 859 CURVE",
"560 747 OFFCURVE",
"625 563 OFFCURVE",
"625 374 CURVE SMOOTH"
);
},
{
closed = 1;
nodes = (
"519 498 OFFCURVE",
"495 608 OFFCURVE",
"464 661 CURVE SMOOTH",
"433 714 OFFCURVE",
"400 751 OFFCURVE",
"379 762 CURVE",
"363 769 LINE",
"290 769 LINE",
"297 580 OFFCURVE",
"300 354 OFFCURVE",
"300 90 CURVE",
"437 111 OFFCURVE",
"519 226 OFFCURVE",
"519 369 CURVE SMOOTH"
);
},
{
closed = 1;
nodes = (
"293 1421 OFFCURVE",
"283 1400 OFFCURVE",
"283 1357 CURVE SMOOTH",
"283 1302 OFFCURVE",
"284 1222 OFFCURVE",
"287 1117 CURVE SMOOTH",
"290 1012 OFFCURVE",
"291 935 OFFCURVE",
"291 888 CURVE",
"326 896 OFFCURVE",
"358 928 OFFCURVE",
"382 977 CURVE SMOOTH",
"406 1025 OFFCURVE",
"420 1061 OFFCURVE",
"439 1117 CURVE SMOOTH",
"448 1145 OFFCURVE",
"455 1164 OFFCURVE",
"459 1173 CURVE",
"459 1246 LINE SMOOTH",
"459 1326 OFFCURVE",
"389 1421 OFFCURVE",
"312 1421 CURVE SMOOTH"
);
}
);
width = 754;
}
);
note = B;
unicode = 0042;
},
{
glyphname = Bdotaccent;
lastChange = "2015-11-10 12:19:53 +0000";
layers = (
{
layerId = "27A8C2A5-6B67-4598-967C-E5EC4FB8AE70";
name = Condensed;
paths = (
{
closed = 1;
nodes = (
"317 1960 OFFCURVE",
"343 1988 OFFCURVE",
"370 1988 CURVE SMOOTH",
"394 1988 OFFCURVE",
"419 1959 OFFCURVE",
"419 1935 CURVE SMOOTH",
"419 1901 OFFCURVE",
"400 1884 OFFCURVE",
"362 1884 CURVE SMOOTH",
"338 1884 OFFCURVE",
"317 1909 OFFCURVE",
"317 1933 CURVE SMOOTH"
);
},
{
closed = 1;
nodes = (
"256 885 LINE",
"317 885 OFFCURVE",
"375 946 OFFCURVE",
"410 1026 CURVE SMOOTH",
"445 1106 OFFCURVE",
"465 1197 OFFCURVE",
"465 1268 CURVE SMOOTH",
"465 1361 OFFCURVE",
"386 1466 OFFCURVE",
"295 1466 CURVE SMOOTH",
"260 1466 OFFCURVE",
"242 1437 OFFCURVE",
"242 1378 CURVE SMOOTH",
"242 1323 OFFCURVE",
"243 1242 OFFCURVE",
"246 1133 CURVE SMOOTH",
"249 1024 OFFCURVE",
"250 942 OFFCURVE",
"250 887 CURVE"
);
},
{
closed = 1;
nodes = (
"261 70 OFFCURVE",
"264 70 OFFCURVE",
"267 69 CURVE SMOOTH",
"270 68 OFFCURVE",
"272 68 OFFCURVE",
"273 68 CURVE SMOOTH",
"413 68 OFFCURVE",
"527 210 OFFCURVE",
"527 371 CURVE SMOOTH",
"527 616 OFFCURVE",
"468 762 OFFCURVE",
"351 811 CURVE",
"338 810 OFFCURVE",
"320 807 OFFCURVE",
"297 800 CURVE SMOOTH",
"274 793 OFFCURVE",
"259 789 OFFCURVE",
"250 788 CURVE",
"257 588 OFFCURVE",
"260 349 OFFCURVE",
"260 70 CURVE"
);
},
{
closed = 1;
nodes = (
"183 73 OFFCURVE",
"185 160 OFFCURVE",
"188 276 CURVE SMOOTH",
"191 391 OFFCURVE",
"193 478 OFFCURVE",
"193 535 CURVE SMOOTH",
"193 630 OFFCURVE",
"191 773 OFFCURVE",
"186 962 CURVE SMOOTH",
"181 1151 OFFCURVE",
"179 1294 OFFCURVE",
"179 1389 CURVE SMOOTH",
"179 1487 OFFCURVE",
"197 1536 OFFCURVE",
"232 1536 CURVE SMOOTH",
"419 1536 OFFCURVE",
"519 1403 OFFCURVE",
"519 1214 CURVE SMOOTH",
"519 1106 OFFCURVE",
"475 993 OFFCURVE",
"387 874 CURVE",
"532 730 OFFCURVE",
"584 617 OFFCURVE",
"584 433 CURVE SMOOTH",
"584 328 OFFCURVE",
"579 267 OFFCURVE",
"560 205 CURVE SMOOTH",
"541 143 OFFCURVE",
"506 103 OFFCURVE",
"450 65 CURVE SMOOTH",
"422 46 OFFCURVE",
"387 27 OFFCURVE",
"344 8 CURVE",
"335 7 OFFCURVE",
"321 4 OFFCURVE",
"304 -2 CURVE",
"287 -9 OFFCURVE",
"273 -12 OFFCURVE",
"263 -12 CURVE SMOOTH",
"259 -12 LINE SMOOTH",
"208 -12 OFFCURVE",
"183 -3 OFFCURVE",
"183 16 CURVE SMOOTH"
);
}
);
width = 740;
},
{
components = (
{
name = B;
},
{
name = dotaccent;
transform = "{1, 0, 0, 1, 0, 600}";
}
);
layerId = "156B637B-193E-48A3-AAC8-7B4A3960F885";
name = "Bold Condensed";
width = 754;
}
);
note = uni1E02;
unicode = 1E02;
},
{
glyphname = C;
lastChange = "2015-11-10 11:24:47 +0000";
layers = (
{
layerId = "27A8C2A5-6B67-4598-967C-E5EC4FB8AE70";
name = Condensed;
paths = (
{
closed = 1;
nodes = (
"173 902 OFFCURVE",
"173 938 OFFCURVE",
"172 986 CURVE SMOOTH",
"171 1033 OFFCURVE",
"171 1068 OFFCURVE",
"171 1090 CURVE SMOOTH",
"171 1174 OFFCURVE",
"174 1230 OFFCURVE",
"184 1300 CURVE SMOOTH",
"194 1370 OFFCURVE",
"210 1414 OFFCURVE",
"242 1461 CURVE SMOOTH",
"273 1508 OFFCURVE",
"314 1535 OFFCURVE",
"377 1552 CURVE SMOOTH",
"408 1561 OFFCURVE",
"444 1565 OFFCURVE",
"483 1565 CURVE SMOOTH",
"530 1565 OFFCURVE",
"601 1532 OFFCURVE",
"601 1489 CURVE SMOOTH",
"601 1474 OFFCURVE",
"590 1466 OFFCURVE",
"569 1466 CURVE SMOOTH",
"561 1466 OFFCURVE",
"545 1471 OFFCURVE",
"522 1481 CURVE",
"498 1490 OFFCURVE",
"479 1495 OFFCURVE",
"466 1495 CURVE SMOOTH",
"385 1495 OFFCURVE",
"324 1459 OFFCURVE",
"290 1410 CURVE SMOOTH",
"256 1361 OFFCURVE",
"236 1276 OFFCURVE",
"230 1205 CURVE SMOOTH",
"227 1169 OFFCURVE",
"225 1128 OFFCURVE",
"225 1081 CURVE SMOOTH",
"225 1054 OFFCURVE",
"226 1016 OFFCURVE",
"227 967 CURVE SMOOTH",
"228 917 OFFCURVE",
"229 881 OFFCURVE",
"229 860 CURVE SMOOTH",
"229 699 OFFCURVE",
"273 188 OFFCURVE",
"313 127 CURVE SMOOTH",
"348 74 OFFCURVE",
"418 47 OFFCURVE",
"487 47 CURVE SMOOTH",
"549 47 OFFCURVE",
"597 67 OFFCURVE",
"630 106 CURVE",
"641 123 OFFCURVE",
"654 132 OFFCURVE",
"668 132 CURVE SMOOTH",
"681 132 OFFCURVE",
"687 122 OFFCURVE",
"687 102 CURVE SMOOTH",
"687 53 OFFCURVE",
"652 15 OFFCURVE",
"604 -4 CURVE SMOOTH",
"555 -24 OFFCURVE",
"505 -33 OFFCURVE",
"460 -33 CURVE SMOOTH",
"381 -33 OFFCURVE",
"284 40 OFFCURVE",
"249 115 CURVE SMOOTH",
"214 190 OFFCURVE",
"173 714 OFFCURVE",
"173 877 CURVE SMOOTH"
);
}
);
width = 780;
},
{
layerId = "156B637B-193E-48A3-AAC8-7B4A3960F885";
name = "Bold Condensed";
paths = (
{
closed = 1;
nodes = (
"689 166 OFFCURVE",
"709 156 OFFCURVE",
"730 135 CURVE",
"730 84 OFFCURVE",
"707 43 OFFCURVE",
"673 19 CURVE SMOOTH",
"639 -5 OFFCURVE",
"590 -22 OFFCURVE",
"546 -28 CURVE SMOOTH",
"524 -31 OFFCURVE",
"502 -33 OFFCURVE",
"479 -33 CURVE SMOOTH",
"399 -33 OFFCURVE",
"334 8 OFFCURVE",
"291 66 CURVE SMOOTH",
"248 124 OFFCURVE",
"216 223 OFFCURVE",
"198 313 CURVE SMOOTH",
"180 403 OFFCURVE",
"170 533 OFFCURVE",
"167 630 CURVE SMOOTH",
"165 678 OFFCURVE",
"164 732 OFFCURVE",
"164 792 CURVE SMOOTH",
"164 823 OFFCURVE",
"164 867 OFFCURVE",
"165 922 CURVE SMOOTH",
"166 977 OFFCURVE",
"166 1015 OFFCURVE",
"166 1037 CURVE SMOOTH",
"166 1115 OFFCURVE",
"171 1178 OFFCURVE",
"180 1226 CURVE",
"176 1248 OFFCURVE",
"174 1269 OFFCURVE",
"174 1290 CURVE SMOOTH",
"174 1458 OFFCURVE",
"316 1565 OFFCURVE",
"500 1565 CURVE SMOOTH",
"565 1565 OFFCURVE",
"643 1525 OFFCURVE",
"643 1465 CURVE SMOOTH",
"643 1436 OFFCURVE",
"617 1419 OFFCURVE",
"586 1419 CURVE SMOOTH",
"561 1419 OFFCURVE",
"522 1428 OFFCURVE",
"513 1444 CURVE",
"513 1443 LINE",
"485 1443 LINE",
"485 1448 LINE",
"430 1448 OFFCURVE",
"387 1434 OFFCURVE",
"359 1415 CURVE SMOOTH",
"331 1395 OFFCURVE",
"311 1357 OFFCURVE",
"301 1327 CURVE SMOOTH",
"291 1297 OFFCURVE",
"285 1239 OFFCURVE",
"284 1206 CURVE SMOOTH",
"283 1189 OFFCURVE",
"283 1167 OFFCURVE",
"283 1140 CURVE SMOOTH",
"283 1124 OFFCURVE",
"284 1100 OFFCURVE",
"286 1069 CURVE SMOOTH",
"288 1038 OFFCURVE",
"289 1014 OFFCURVE",
"289 999 CURVE SMOOTH",
"289 983 OFFCURVE",
"286 959 OFFCURVE",
"280 928 CURVE SMOOTH",
"274 896 OFFCURVE",
"271 872 OFFCURVE",
"271 856 CURVE SMOOTH",
"271 807 LINE SMOOTH",
"271 726 OFFCURVE",
"272 680 OFFCURVE",
"276 588 CURVE SMOOTH",
"279 495 OFFCURVE",
"288 435 OFFCURVE",
"303 354 CURVE SMOOTH",
"318 273 OFFCURVE",
"341 220 OFFCURVE",
"373 169 CURVE SMOOTH",
"405 118 OFFCURVE",
"451 93 OFFCURVE",
"506 93 CURVE SMOOTH",
"529 93 OFFCURVE",
"558 105 OFFCURVE",
"593 130 CURVE SMOOTH",
"628 154 OFFCURVE",
"653 166 OFFCURVE",
"670 166 CURVE SMOOTH"
);
}
);
width = 898;
}
);
note = C;
unicode = 0043;
},
{
glyphname = Cacute;
lastChange = "2015-11-10 11:24:48 +0000";
layers = (
{
layerId = "27A8C2A5-6B67-4598-967C-E5EC4FB8AE70";
name = Condensed;
paths = (
{
closed = 1;
nodes = (
"323 1875 OFFCURVE",
"342 1893 OFFCURVE",
"379 1923 CURVE SMOOTH",
"416 1953 OFFCURVE",
"457 1985 OFFCURVE",
"501 2019 CURVE SMOOTH",
"544 2052 OFFCURVE",
"570 2072 OFFCURVE",
"577 2079 CURVE",
"607 2079 OFFCURVE",
"622 2068 OFFCURVE",
"622 2047 CURVE SMOOTH",
"622 2046 OFFCURVE",
"620 2036 OFFCURVE",
"616 2016 CURVE",
"547 1985 OFFCURVE",
"462 1927 OFFCURVE",
"360 1840 CURVE",
"340 1840 OFFCURVE",
"323 1851 OFFCURVE",
"323 1870 CURVE SMOOTH"
);
},
{
closed = 1;
nodes = (
"173 902 OFFCURVE",
"173 938 OFFCURVE",
"172 986 CURVE SMOOTH",
"171 1033 OFFCURVE",
"171 1068 OFFCURVE",
"171 1090 CURVE SMOOTH",
"171 1174 OFFCURVE",
"174 1230 OFFCURVE",
"184 1300 CURVE SMOOTH",
"194 1370 OFFCURVE",
"210 1414 OFFCURVE",
"242 1461 CURVE SMOOTH",
"273 1508 OFFCURVE",
"314 1535 OFFCURVE",
"377 1552 CURVE SMOOTH",
"408 1561 OFFCURVE",
"444 1565 OFFCURVE",
"483 1565 CURVE SMOOTH",
"530 1565 OFFCURVE",
"601 1532 OFFCURVE",
"601 1489 CURVE SMOOTH",
"601 1474 OFFCURVE",
"590 1466 OFFCURVE",
"569 1466 CURVE SMOOTH",
"561 1466 OFFCURVE",
"545 1471 OFFCURVE",
"522 1481 CURVE",
"498 1490 OFFCURVE",
"479 1495 OFFCURVE",
"466 1495 CURVE SMOOTH",
"385 1495 OFFCURVE",
"324 1459 OFFCURVE",
"290 1410 CURVE SMOOTH",
"256 1361 OFFCURVE",
"236 1276 OFFCURVE",
"230 1205 CURVE SMOOTH",
"227 1169 OFFCURVE",
"225 1128 OFFCURVE",
"225 1081 CURVE SMOOTH",
"225 1054 OFFCURVE",
"226 1016 OFFCURVE",
"227 967 CURVE SMOOTH",
"228 917 OFFCURVE",
"229 881 OFFCURVE",
"229 860 CURVE SMOOTH",
"229 699 OFFCURVE",
"273 188 OFFCURVE",
"313 127 CURVE SMOOTH",
"348 74 OFFCURVE",
"418 47 OFFCURVE",
"487 47 CURVE SMOOTH",
"549 47 OFFCURVE",
"597 67 OFFCURVE",
"630 106 CURVE",
"641 123 OFFCURVE",
"654 132 OFFCURVE",
"668 132 CURVE SMOOTH",
"681 132 OFFCURVE",
"687 122 OFFCURVE",
"687 102 CURVE SMOOTH",
"687 53 OFFCURVE",
"652 15 OFFCURVE",
"604 -4 CURVE SMOOTH",
"555 -24 OFFCURVE",
"505 -33 OFFCURVE",
"460 -33 CURVE SMOOTH",
"381 -33 OFFCURVE",
"284 40 OFFCURVE",
"249 115 CURVE SMOOTH",
"214 190 OFFCURVE",
"173 714 OFFCURVE",
"173 877 CURVE SMOOTH"
);
}
);
width = 780;
},
{
layerId = "156B637B-193E-48A3-AAC8-7B4A3960F885";
name = "Bold Condensed";
paths = (
{
closed = 1;
nodes = (
"475 1735 OFFCURVE",
"524 1778 OFFCURVE",
"591 1835 CURVE SMOOTH",
"658 1892 OFFCURVE",
"698 1927 OFFCURVE",
"712 1940 CURVE",
"720 1943 OFFCURVE",
"726 1944 OFFCURVE",
"729 1944 CURVE SMOOTH",
"762 1944 OFFCURVE",
"796 1902 OFFCURVE",
"796 1867 CURVE SMOOTH",
"796 1853 OFFCURVE",
"791 1842 OFFCURVE",
"781 1835 CURVE SMOOTH",
"729 1797 OFFCURVE",
"630 1739 OFFCURVE",
"483 1662 CURVE",
"478 1659 OFFCURVE",
"472 1658 OFFCURVE",
"466 1658 CURVE SMOOTH",
"449 1658 OFFCURVE",
"433 1670 OFFCURVE",
"433 1685 CURVE SMOOTH",
"433 1692 OFFCURVE",
"437 1699 OFFCURVE",
"444 1706 CURVE SMOOTH"
);
},
{
closed = 1;
nodes = (
"689 166 OFFCURVE",
"709 156 OFFCURVE",
"730 135 CURVE",
"730 84 OFFCURVE",
"707 43 OFFCURVE",
"673 19 CURVE SMOOTH",
"639 -5 OFFCURVE",
"590 -22 OFFCURVE",
"546 -28 CURVE SMOOTH",
"524 -31 OFFCURVE",
"502 -33 OFFCURVE",
"479 -33 CURVE SMOOTH",
"399 -33 OFFCURVE",
"334 8 OFFCURVE",
"291 66 CURVE SMOOTH",
"248 124 OFFCURVE",
"216 223 OFFCURVE",
"198 313 CURVE SMOOTH",
"180 403 OFFCURVE",
"170 533 OFFCURVE",
"167 630 CURVE SMOOTH",
"165 678 OFFCURVE",
"164 732 OFFCURVE",
"164 792 CURVE SMOOTH",
"164 823 OFFCURVE",
"164 867 OFFCURVE",
"165 922 CURVE SMOOTH",
"166 977 OFFCURVE",
"166 1015 OFFCURVE",
"166 1037 CURVE SMOOTH",
"166 1115 OFFCURVE",
"171 1178 OFFCURVE",
"180 1226 CURVE",
"176 1248 OFFCURVE",
"174 1269 OFFCURVE",
"174 1290 CURVE SMOOTH",
"174 1458 OFFCURVE",
"316 1565 OFFCURVE",
"500 1565 CURVE SMOOTH",
"565 1565 OFFCURVE",
"643 1525 OFFCURVE",
"643 1465 CURVE SMOOTH",
"643 1436 OFFCURVE",
"617 1419 OFFCURVE",
"586 1419 CURVE SMOOTH",
"561 1419 OFFCURVE",
"522 1428 OFFCURVE",
"513 1444 CURVE",
"513 1443 LINE",
"485 1443 LINE",
"485 1448 LINE",
"430 1448 OFFCURVE",
"387 1434 OFFCURVE",
"359 1415 CURVE SMOOTH",
"331 1395 OFFCURVE",
"311 1357 OFFCURVE",
"301 1327 CURVE SMOOTH",
"291 1297 OFFCURVE",
"285 1239 OFFCURVE",
"284 1206 CURVE SMOOTH",
"283 1189 OFFCURVE",
"283 1167 OFFCURVE",
"283 1140 CURVE SMOOTH",
"283 1124 OFFCURVE",
"284 1100 OFFCURVE",
"286 1069 CURVE SMOOTH",
"288 1038 OFFCURVE",
"289 1014 OFFCURVE",
"289 999 CURVE SMOOTH",
"289 983 OFFCURVE",
"286 959 OFFCURVE",
"280 928 CURVE SMOOTH",
"274 896 OFFCURVE",
"271 872 OFFCURVE",
"271 856 CURVE SMOOTH",
"271 807 LINE SMOOTH",
"271 726 OFFCURVE",
"272 680 OFFCURVE",
"276 588 CURVE SMOOTH",
"279 495 OFFCURVE",
"288 435 OFFCURVE",
"303 354 CURVE SMOOTH",
"318 273 OFFCURVE",
"341 220 OFFCURVE",
"373 169 CURVE SMOOTH",
"405 118 OFFCURVE",
"451 93 OFFCURVE",
"506 93 CURVE SMOOTH",
"529 93 OFFCURVE",
"558 105 OFFCURVE",
"593 130 CURVE SMOOTH",
"628 154 OFFCURVE",
"653 166 OFFCURVE",
"670 166 CURVE SMOOTH"
);
}
);
width = 898;
}
);
note = Cacute;
unicode = 0106;
},
{
glyphname = Ccaron;
lastChange = "2015-11-10 11:24:47 +0000";
layers = (
{
layerId = "27A8C2A5-6B67-4598-967C-E5EC4FB8AE70";
name = Condensed;
paths = (
{
closed = 1;
nodes = (
"541 2064 LINE",
"566 2060 OFFCURVE",
"578 2052 OFFCURVE",
"578 2040 CURVE SMOOTH",
"578 2035 OFFCURVE",
"575 2028 OFFCURVE",
"570 2017 CURVE",
"572 2007 LINE",
"557 1976 LINE",
"559 1964 LINE",
"554 1947 OFFCURVE",
"546 1922 OFFCURVE",
"535 1890 CURVE SMOOTH",
"511 1825 OFFCURVE",
"498 1777 OFFCURVE",
"498 1724 CURVE SMOOTH",
"498 1695 OFFCURVE",
"488 1681 OFFCURVE",
"469 1681 CURVE SMOOTH",
"428 1681 OFFCURVE",
"300 1967 OFFCURVE",
"297 2027 CURVE",
"334 2054 LINE",
"369 2007 LINE",
"370 1994 OFFCURVE",
"376 1970 OFFCURVE",
"387 1937 CURVE SMOOTH",
"408 1870 OFFCURVE",
"452 1748 OFFCURVE",
"455 1741 CURVE",
"488 1863 OFFCURVE",
"507 1965 OFFCURVE",
"514 2048 CURVE"
);
},
{
closed = 1;
nodes = (
"173 902 OFFCURVE",
"173 938 OFFCURVE",
"172 986 CURVE SMOOTH",
"171 1033 OFFCURVE",
"171 1068 OFFCURVE",
"171 1090 CURVE SMOOTH",
"171 1174 OFFCURVE",
"174 1230 OFFCURVE",
"184 1300 CURVE SMOOTH",
"194 1370 OFFCURVE",
"210 1414 OFFCURVE",
"242 1461 CURVE SMOOTH",
"273 1508 OFFCURVE",
"314 1535 OFFCURVE",
"377 1552 CURVE SMOOTH",
"408 1561 OFFCURVE",
"444 1565 OFFCURVE",
"483 1565 CURVE SMOOTH",
"530 1565 OFFCURVE",
"601 1532 OFFCURVE",
"601 1489 CURVE SMOOTH",
"601 1474 OFFCURVE",
"590 1466 OFFCURVE",
"569 1466 CURVE SMOOTH",
"561 1466 OFFCURVE",
"545 1471 OFFCURVE",
"522 1481 CURVE",
"498 1490 OFFCURVE",
"479 1495 OFFCURVE",
"466 1495 CURVE SMOOTH",
"385 1495 OFFCURVE",
"324 1459 OFFCURVE",
"290 1410 CURVE SMOOTH",
"256 1361 OFFCURVE",
"236 1276 OFFCURVE",
"230 1205 CURVE SMOOTH",
"227 1169 OFFCURVE",
"225 1128 OFFCURVE",
"225 1081 CURVE SMOOTH",
"225 1054 OFFCURVE",
"226 1016 OFFCURVE",
"227 967 CURVE SMOOTH",
"228 917 OFFCURVE",
"229 881 OFFCURVE",
"229 860 CURVE SMOOTH",
"229 699 OFFCURVE",
"273 188 OFFCURVE",
"313 127 CURVE SMOOTH",
"348 74 OFFCURVE",
"418 47 OFFCURVE",
"487 47 CURVE SMOOTH",
"549 47 OFFCURVE",
"597 67 OFFCURVE",
"630 106 CURVE",
"641 123 OFFCURVE",
"654 132 OFFCURVE",
"668 132 CURVE SMOOTH",
"681 132 OFFCURVE",
"687 122 OFFCURVE",
"687 102 CURVE SMOOTH",
"687 53 OFFCURVE",
"652 15 OFFCURVE",
"604 -4 CURVE SMOOTH",
"555 -24 OFFCURVE",
"505 -33 OFFCURVE",
"460 -33 CURVE SMOOTH",
"381 -33 OFFCURVE",
"284 40 OFFCURVE",
"249 115 CURVE SMOOTH",
"214 190 OFFCURVE",
"173 714 OFFCURVE",
"173 877 CURVE SMOOTH"
);
}
);
width = 780;
},
{
layerId = "156B637B-193E-48A3-AAC8-7B4A3960F885";
name = "Bold Condensed";
paths = (
{
closed = 1;
nodes = (
"275 2074 OFFCURVE",
"299 2092 OFFCURVE",
"324 2092 CURVE SMOOTH",
"340 2092 OFFCURVE",
"357 2073 OFFCURVE",
"374 2034 CURVE SMOOTH",
"391 1995 OFFCURVE",
"408 1944 OFFCURVE",
"426 1881 CURVE SMOOTH",
"452 1787 LINE",
"455 1802 OFFCURVE",
"458 1825 OFFCURVE",
"461 1856 CURVE SMOOTH",
"468 1919 OFFCURVE",
"473 1964 OFFCURVE",
"485 2016 CURVE SMOOTH",
"496 2068 OFFCURVE",
"515 2099 OFFCURVE",
"542 2099 CURVE SMOOTH",
"566 2099 OFFCURVE",
"585 2083 OFFCURVE",
"585 2056 CURVE SMOOTH",
"585 2052 OFFCURVE",
"583 2047 OFFCURVE",
"578 2040 CURVE SMOOTH",
"573 2033 OFFCURVE",
"571 2028 OFFCURVE",
"570 2025 CURVE",
"570 1988 LINE",
"541 1876 LINE SMOOTH",
"522 1801 OFFCURVE",
"512 1753 OFFCURVE",
"512 1730 CURVE SMOOTH",
"512 1686 OFFCURVE",
"495 1664 OFFCURVE",
"460 1664 CURVE SMOOTH",
"407 1664 OFFCURVE",
"275 1977 OFFCURVE",
"275 2053 CURVE SMOOTH"
);
},
{
closed = 1;
nodes = (
"689 166 OFFCURVE",
"709 156 OFFCURVE",
"730 135 CURVE",
"730 84 OFFCURVE",
"707 43 OFFCURVE",
"673 19 CURVE SMOOTH",
"639 -5 OFFCURVE",
"590 -22 OFFCURVE",
"546 -28 CURVE SMOOTH",
"524 -31 OFFCURVE",
"502 -33 OFFCURVE",
"479 -33 CURVE SMOOTH",
"399 -33 OFFCURVE",
"334 8 OFFCURVE",
"291 66 CURVE SMOOTH",
"248 124 OFFCURVE",
"216 223 OFFCURVE",
"198 313 CURVE SMOOTH",
"180 403 OFFCURVE",
"170 533 OFFCURVE",
"167 630 CURVE SMOOTH",
"165 678 OFFCURVE",
"164 732 OFFCURVE",
"164 792 CURVE SMOOTH",
"164 823 OFFCURVE",
"164 867 OFFCURVE",
"165 922 CURVE SMOOTH",
"166 977 OFFCURVE",
"166 1015 OFFCURVE",
"166 1037 CURVE SMOOTH",
"166 1115 OFFCURVE",
"171 1178 OFFCURVE",
"180 1226 CURVE",
"176 1248 OFFCURVE",
"174 1269 OFFCURVE",
"174 1290 CURVE SMOOTH",
"174 1458 OFFCURVE",
"316 1565 OFFCURVE",
"500 1565 CURVE SMOOTH",
"565 1565 OFFCURVE",
"643 1525 OFFCURVE",
"643 1465 CURVE SMOOTH",
"643 1436 OFFCURVE",
"617 1419 OFFCURVE",
"586 1419 CURVE SMOOTH",
"561 1419 OFFCURVE",
"522 1428 OFFCURVE",
"513 1444 CURVE",
"513 1443 LINE",
"485 1443 LINE",
"485 1448 LINE",
"430 1448 OFFCURVE",
"387 1434 OFFCURVE",
"359 1415 CURVE SMOOTH",
"331 1395 OFFCURVE",
"311 1357 OFFCURVE",
"301 1327 CURVE SMOOTH",
"291 1297 OFFCURVE",
"285 1239 OFFCURVE",
"284 1206 CURVE SMOOTH",
"283 1189 OFFCURVE",
"283 1167 OFFCURVE",
"283 1140 CURVE SMOOTH",
"283 1124 OFFCURVE",
"284 1100 OFFCURVE",
"286 1069 CURVE SMOOTH",
"288 1038 OFFCURVE",
"289 1014 OFFCURVE",
"289 999 CURVE SMOOTH",
"289 983 OFFCURVE",
"286 959 OFFCURVE",
"280 928 CURVE SMOOTH",
"274 896 OFFCURVE",
"271 872 OFFCURVE",
"271 856 CURVE SMOOTH",
"271 807 LINE SMOOTH",
"271 726 OFFCURVE",
"272 680 OFFCURVE",
"276 588 CURVE SMOOTH",
"279 495 OFFCURVE",
"288 435 OFFCURVE",
"303 354 CURVE SMOOTH",
"318 273 OFFCURVE",
"341 220 OFFCURVE",
"373 169 CURVE SMOOTH",
"405 118 OFFCURVE",
"451 93 OFFCURVE",
"506 93 CURVE SMOOTH",
"529 93 OFFCURVE",
"558 105 OFFCURVE",
"593 130 CURVE SMOOTH",
"628 154 OFFCURVE",
"653 166 OFFCURVE",
"670 166 CURVE SMOOTH"
);
}
);
width = 898;
}
);
note = Ccaron;
unicode = 010C;
},
{
glyphname = Ccedilla;
lastChange = "2015-11-10 11:24:47 +0000";
layers = (
{
layerId = "27A8C2A5-6B67-4598-967C-E5EC4FB8AE70";
name = Condensed;
paths = (
{
closed = 1;
nodes = (
"514 -160 OFFCURVE",
"505 -161 OFFCURVE",
"493 -163 CURVE",
"480 -166 OFFCURVE",
"471 -167 OFFCURVE",
"465 -167 CURVE SMOOTH",
"444 -167 OFFCURVE",
"426 -153 OFFCURVE",
"409 -126 CURVE",
"420 -100 OFFCURVE",
"426 -61 OFFCURVE",
"426 -9 CURVE SMOOTH",
"426 14 LINE",
"485 22 LINE",
"480 -9 OFFCURVE",
"477 -44 OFFCURVE",
"477 -81 CURVE",
"576 -88 OFFCURVE",
"626 -156 OFFCURVE",
"626 -287 CURVE SMOOTH",
"626 -351 OFFCURVE",
"554 -449 OFFCURVE",
"471 -449 CURVE SMOOTH",
"432 -449 OFFCURVE",
"383 -429 OFFCURVE",
"383 -394 CURVE SMOOTH",
"383 -380 OFFCURVE",
"390 -373 OFFCURVE",
"405 -373 CURVE SMOOTH",
"413 -373 OFFCURVE",
"424 -376 OFFCURVE",
"438 -383 CURVE SMOOTH",
"452 -390 OFFCURVE",
"463 -394 OFFCURVE",
"471 -394 CURVE SMOOTH",
"519 -394 OFFCURVE",
"551 -324 OFFCURVE",
"551 -251 CURVE SMOOTH",
"551 -206 OFFCURVE",
"541 -176 OFFCURVE",
"520 -160 CURVE"
);
},
{
closed = 1;
nodes = (
"173 902 OFFCURVE",
"173 938 OFFCURVE",
"172 986 CURVE SMOOTH",
"171 1033 OFFCURVE",
"171 1068 OFFCURVE",
"171 1090 CURVE SMOOTH",
"171 1174 OFFCURVE",
"174 1230 OFFCURVE",
"184 1300 CURVE SMOOTH",
"194 1370 OFFCURVE",
"210 1414 OFFCURVE",
"242 1461 CURVE SMOOTH",
"273 1508 OFFCURVE",
"314 1535 OFFCURVE",
"377 1552 CURVE SMOOTH",
"408 1561 OFFCURVE",
"444 1565 OFFCURVE",
"483 1565 CURVE SMOOTH",
"530 1565 OFFCURVE",
"601 1532 OFFCURVE",
"601 1489 CURVE SMOOTH",
"601 1474 OFFCURVE",
"590 1466 OFFCURVE",
"569 1466 CURVE SMOOTH",
"561 1466 OFFCURVE",
"545 1471 OFFCURVE",
"522 1481 CURVE",
"498 1490 OFFCURVE",
"479 1495 OFFCURVE",
"466 1495 CURVE SMOOTH",
"385 1495 OFFCURVE",
"324 1459 OFFCURVE",
"290 1410 CURVE SMOOTH",
"256 1361 OFFCURVE",
"236 1276 OFFCURVE",
"230 1205 CURVE SMOOTH",
"227 1169 OFFCURVE",
"225 1128 OFFCURVE",
"225 1081 CURVE SMOOTH",
"225 1054 OFFCURVE",
"226 1016 OFFCURVE",
"227 967 CURVE SMOOTH",
"228 917 OFFCURVE",
"229 881 OFFCURVE",
"229 860 CURVE SMOOTH",
"229 699 OFFCURVE",
"273 188 OFFCURVE",
"313 127 CURVE SMOOTH",
"348 74 OFFCURVE",
"418 47 OFFCURVE",
"487 47 CURVE SMOOTH",
"549 47 OFFCURVE",
"597 67 OFFCURVE",
"630 106 CURVE",
"641 123 OFFCURVE",
"654 132 OFFCURVE",
"668 132 CURVE SMOOTH",
"681 132 OFFCURVE",
"687 122 OFFCURVE",
"687 102 CURVE SMOOTH",
"687 53 OFFCURVE",
"652 15 OFFCURVE",
"604 -4 CURVE SMOOTH",
"555 -24 OFFCURVE",
"505 -33 OFFCURVE",
"460 -33 CURVE SMOOTH",
"381 -33 OFFCURVE",
"284 40 OFFCURVE",
"249 115 CURVE SMOOTH",
"214 190 OFFCURVE",
"173 714 OFFCURVE",
"173 877 CURVE SMOOTH"
);
}
);
width = 780;
},
{
layerId = "156B637B-193E-48A3-AAC8-7B4A3960F885";
name = "Bold Condensed";
paths = (
{
closed = 1;
nodes = (
"537 -160 OFFCURVE",
"528 -161 OFFCURVE",
"516 -163 CURVE",
"503 -166 OFFCURVE",
"494 -167 OFFCURVE",
"488 -167 CURVE SMOOTH",
"467 -167 OFFCURVE",
"449 -153 OFFCURVE",
"432 -126 CURVE",
"443 -100 OFFCURVE",
"449 -61 OFFCURVE",
"449 -9 CURVE SMOOTH",
"449 14 LINE",
"508 22 LINE",
"503 -9 OFFCURVE",
"500 -44 OFFCURVE",
"500 -81 CURVE",
"599 -88 OFFCURVE",
"649 -156 OFFCURVE",
"649 -287 CURVE SMOOTH",
"649 -351 OFFCURVE",
"577 -449 OFFCURVE",
"494 -449 CURVE SMOOTH",
"455 -449 OFFCURVE",
"406 -429 OFFCURVE",
"406 -394 CURVE SMOOTH",
"406 -380 OFFCURVE",
"413 -373 OFFCURVE",
"428 -373 CURVE SMOOTH",
"436 -373 OFFCURVE",
"447 -376 OFFCURVE",
"461 -383 CURVE SMOOTH",
"475 -390 OFFCURVE",
"486 -394 OFFCURVE",
"494 -394 CURVE SMOOTH",
"542 -394 OFFCURVE",
"574 -324 OFFCURVE",
"574 -251 CURVE SMOOTH",
"574 -206 OFFCURVE",
"564 -176 OFFCURVE",
"543 -160 CURVE"
);
},
{
closed = 1;
nodes = (
"689 166 OFFCURVE",
"709 156 OFFCURVE",
"730 135 CURVE",
"730 84 OFFCURVE",
"707 43 OFFCURVE",
"673 19 CURVE SMOOTH",
"639 -5 OFFCURVE",
"590 -22 OFFCURVE",
"546 -28 CURVE SMOOTH",
"524 -31 OFFCURVE",
"502 -33 OFFCURVE",
"479 -33 CURVE SMOOTH",
"399 -33 OFFCURVE",
"334 8 OFFCURVE",
"291 66 CURVE SMOOTH",
"248 124 OFFCURVE",
"216 223 OFFCURVE",
"198 313 CURVE SMOOTH",
"180 403 OFFCURVE",
"170 533 OFFCURVE",
"167 630 CURVE SMOOTH",
"165 678 OFFCURVE",
"164 732 OFFCURVE",
"164 792 CURVE SMOOTH",
"164 823 OFFCURVE",
"164 867 OFFCURVE",
"165 922 CURVE SMOOTH",
"166 977 OFFCURVE",
"166 1015 OFFCURVE",
"166 1037 CURVE SMOOTH",
"166 1115 OFFCURVE",
"171 1178 OFFCURVE",
"180 1226 CURVE",
"176 1248 OFFCURVE",
"174 1269 OFFCURVE",
"174 1290 CURVE SMOOTH",
"174 1458 OFFCURVE",
"316 1565 OFFCURVE",
"500 1565 CURVE SMOOTH",
"565 1565 OFFCURVE",
"643 1525 OFFCURVE",
"643 1465 CURVE SMOOTH",
"643 1436 OFFCURVE",
"617 1419 OFFCURVE",
"586 1419 CURVE SMOOTH",
"561 1419 OFFCURVE",
"522 1428 OFFCURVE",
"513 1444 CURVE",
"513 1443 LINE",
"485 1443 LINE",
"485 1448 LINE",
"430 1448 OFFCURVE",
"387 1434 OFFCURVE",
"359 1415 CURVE SMOOTH",
"331 1395 OFFCURVE",
"311 1357 OFFCURVE",
"301 1327 CURVE SMOOTH",
"291 1297 OFFCURVE",
"285 1239 OFFCURVE",
"284 1206 CURVE SMOOTH",
"283 1189 OFFCURVE",
"283 1167 OFFCURVE",
"283 1140 CURVE SMOOTH",
"283 1124 OFFCURVE",
"284 1100 OFFCURVE",
"286 1069 CURVE SMOOTH",
"288 1038 OFFCURVE",
"289 1014 OFFCURVE",
"289 999 CURVE SMOOTH",
"289 983 OFFCURVE",
"286 959 OFFCURVE",
"280 928 CURVE SMOOTH",
"274 896 OFFCURVE",
"271 872 OFFCURVE",
"271 856 CURVE SMOOTH",
"271 807 LINE SMOOTH",
"271 726 OFFCURVE",
"272 680 OFFCURVE",
"276 588 CURVE SMOOTH",
"279 495 OFFCURVE",
"288 435 OFFCURVE",
"303 354 CURVE SMOOTH",
"318 273 OFFCURVE",
"341 220 OFFCURVE",
"373 169 CURVE SMOOTH",
"405 118 OFFCURVE",
"451 93 OFFCURVE",
"506 93 CURVE SMOOTH",
"529 93 OFFCURVE",
"558 105 OFFCURVE",
"593 130 CURVE SMOOTH",
"628 154 OFFCURVE",
"653 166 OFFCURVE",
"670 166 CURVE SMOOTH"
);
}
);
width = 898;
}
);
note = Ccedilla;
unicode = 00C7;
},
{
glyphname = Ccircumflex;
lastChange = "2015-11-10 11:24:47 +0000";
layers = (
{
layerId = "27A8C2A5-6B67-4598-967C-E5EC4FB8AE70";
name = Condensed;
paths = (
{
closed = 1;
nodes = (
"524 1698 LINE",
"517 1781 OFFCURVE",
"498 1883 OFFCURVE",
"465 2005 CURVE",
"462 1998 OFFCURVE",
"418 1876 OFFCURVE",
"397 1809 CURVE SMOOTH",
"386 1776 OFFCURVE",
"380 1752 OFFCURVE",
"379 1739 CURVE",
"344 1692 LINE",
"307 1718 LINE",
"310 1778 OFFCURVE",
"438 2064 OFFCURVE",
"479 2064 CURVE SMOOTH",
"498 2064 OFFCURVE",
"508 2050 OFFCURVE",
"508 2021 CURVE SMOOTH",
"508 1968 OFFCURVE",
"521 1920 OFFCURVE",
"545 1856 CURVE SMOOTH",
"556 1824 OFFCURVE",
"564 1799 OFFCURVE",
"569 1782 CURVE",
"567 1769 LINE",
"582 1739 LINE",
"580 1728 LINE",
"585 1717 OFFCURVE",
"588 1710 OFFCURVE",
"588 1706 CURVE SMOOTH",
"588 1693 OFFCURVE",
"576 1685 OFFCURVE",
"551 1681 CURVE"
);
},
{
closed = 1;
nodes = (
"173 902 OFFCURVE",
"173 938 OFFCURVE",
"172 986 CURVE SMOOTH",
"171 1033 OFFCURVE",
"171 1068 OFFCURVE",
"171 1090 CURVE SMOOTH",
"171 1174 OFFCURVE",
"174 1230 OFFCURVE",
"184 1300 CURVE SMOOTH",
"194 1370 OFFCURVE",
"210 1414 OFFCURVE",
"242 1461 CURVE SMOOTH",
"273 1508 OFFCURVE",
"314 1535 OFFCURVE",
"377 1552 CURVE SMOOTH",
"408 1561 OFFCURVE",
"444 1565 OFFCURVE",
"483 1565 CURVE SMOOTH",
"530 1565 OFFCURVE",
"601 1532 OFFCURVE",
"601 1489 CURVE SMOOTH",
"601 1474 OFFCURVE",
"590 1466 OFFCURVE",
"569 1466 CURVE SMOOTH",
"561 1466 OFFCURVE",
"545 1471 OFFCURVE",
"522 1481 CURVE",
"498 1490 OFFCURVE",
"479 1495 OFFCURVE",
"466 1495 CURVE SMOOTH",
"385 1495 OFFCURVE",
"324 1459 OFFCURVE",
"290 1410 CURVE SMOOTH",
"256 1361 OFFCURVE",
"236 1276 OFFCURVE",
"230 1205 CURVE SMOOTH",
"227 1169 OFFCURVE",
"225 1128 OFFCURVE",
"225 1081 CURVE SMOOTH",
"225 1054 OFFCURVE",
"226 1016 OFFCURVE",
"227 967 CURVE SMOOTH",
"228 917 OFFCURVE",
"229 881 OFFCURVE",
"229 860 CURVE SMOOTH",
"229 699 OFFCURVE",
"273 188 OFFCURVE",
"313 127 CURVE SMOOTH",
"348 74 OFFCURVE",
"418 47 OFFCURVE",
"487 47 CURVE SMOOTH",
"549 47 OFFCURVE",
"597 67 OFFCURVE",
"630 106 CURVE",
"641 123 OFFCURVE",
"654 132 OFFCURVE",
"668 132 CURVE SMOOTH",
"681 132 OFFCURVE",
"687 122 OFFCURVE",
"687 102 CURVE SMOOTH",
"687 53 OFFCURVE",
"652 15 OFFCURVE",
"604 -4 CURVE SMOOTH",
"555 -24 OFFCURVE",
"505 -33 OFFCURVE",
"460 -33 CURVE SMOOTH",
"381 -33 OFFCURVE",
"284 40 OFFCURVE",
"249 115 CURVE SMOOTH",
"214 190 OFFCURVE",
"173 714 OFFCURVE",
"173 877 CURVE SMOOTH"
);
}
);
width = 780;
},
{
layerId = "156B637B-193E-48A3-AAC8-7B4A3960F885";
name = "Bold Condensed";
paths = (
{
closed = 1;
nodes = (
"357 1724 LINE",
"353 1715 OFFCURVE",
"343 1710 OFFCURVE",
"328 1710 CURVE SMOOTH",
"301 1710 OFFCURVE",
"276 1725 OFFCURVE",
"276 1750 CURVE SMOOTH",
"276 1757 OFFCURVE",
"277 1763 OFFCURVE",
"280 1769 CURVE",
"305 1829 OFFCURVE",
"338 1913 OFFCURVE",
"353 1950 CURVE SMOOTH",
"368 1987 OFFCURVE",
"390 2038 OFFCURVE",
"402 2058 CURVE SMOOTH",
"414 2078 OFFCURVE",
"432 2100 OFFCURVE",
"449 2107 CURVE SMOOTH",
"457 2110 OFFCURVE",
"466 2112 OFFCURVE",
"477 2112 CURVE SMOOTH",
"487 2112 OFFCURVE",
"497 2105 OFFCURVE",
"506 2092 CURVE SMOOTH",
"525 2065 OFFCURVE",
"544 2005 OFFCURVE",
"558 1954 CURVE SMOOTH",
"565 1928 OFFCURVE",
"573 1895 OFFCURVE",
"584 1855 CURVE SMOOTH",
"594 1814 OFFCURVE",
"603 1782 OFFCURVE",
"610 1757 CURVE SMOOTH",
"612 1750 OFFCURVE",
"613 1744 OFFCURVE",
"613 1739 CURVE SMOOTH",
"613 1711 OFFCURVE",
"590 1696 OFFCURVE",
"566 1696 CURVE SMOOTH",
"552 1696 OFFCURVE",
"543 1701 OFFCURVE",
"540 1710 CURVE",
"460 1986 LINE"
);
},
{
closed = 1;
nodes = (
"689 166 OFFCURVE",
"709 156 OFFCURVE",
"730 135 CURVE",
"730 84 OFFCURVE",
"707 43 OFFCURVE",
"673 19 CURVE SMOOTH",
"639 -5 OFFCURVE",
"590 -22 OFFCURVE",
"546 -28 CURVE SMOOTH",
"524 -31 OFFCURVE",
"502 -33 OFFCURVE",
"479 -33 CURVE SMOOTH",
"399 -33 OFFCURVE",
"334 8 OFFCURVE",
"291 66 CURVE SMOOTH",
"248 124 OFFCURVE",
"216 223 OFFCURVE",
"198 313 CURVE SMOOTH",
"180 403 OFFCURVE",
"170 533 OFFCURVE",
"167 630 CURVE SMOOTH",
"165 678 OFFCURVE",
"164 732 OFFCURVE",
"164 792 CURVE SMOOTH",
"164 823 OFFCURVE",
"164 867 OFFCURVE",
"165 922 CURVE SMOOTH",
"166 977 OFFCURVE",
"166 1015 OFFCURVE",
"166 1037 CURVE SMOOTH",
"166 1115 OFFCURVE",
"171 1178 OFFCURVE",
"180 1226 CURVE",
"176 1248 OFFCURVE",
"174 1269 OFFCURVE",
"174 1290 CURVE SMOOTH",
"174 1458 OFFCURVE",
"316 1565 OFFCURVE",
"500 1565 CURVE SMOOTH",
"565 1565 OFFCURVE",
"643 1525 OFFCURVE",
"643 1465 CURVE SMOOTH",
"643 1436 OFFCURVE",
"617 1419 OFFCURVE",
"586 1419 CURVE SMOOTH",
"561 1419 OFFCURVE",
"522 1428 OFFCURVE",
"513 1444 CURVE",
"513 1443 LINE",
"485 1443 LINE",
"485 1448 LINE",
"430 1448 OFFCURVE",
"387 1434 OFFCURVE",
"359 1415 CURVE SMOOTH",
"331 1395 OFFCURVE",
"311 1357 OFFCURVE",
"301 1327 CURVE SMOOTH",
"291 1297 OFFCURVE",
"285 1239 OFFCURVE",
"284 1206 CURVE SMOOTH",
"283 1189 OFFCURVE",
"283 1167 OFFCURVE",
"283 1140 CURVE SMOOTH",
"283 1124 OFFCURVE",
"284 1100 OFFCURVE",
"286 1069 CURVE SMOOTH",
"288 1038 OFFCURVE",
"289 1014 OFFCURVE",
"289 999 CURVE SMOOTH",
"289 983 OFFCURVE",
"286 959 OFFCURVE",
"280 928 CURVE SMOOTH",
"274 896 OFFCURVE",
"271 872 OFFCURVE",
"271 856 CURVE SMOOTH",
"271 807 LINE SMOOTH",
"271 726 OFFCURVE",
"272 680 OFFCURVE",
"276 588 CURVE SMOOTH",
"279 495 OFFCURVE",
"288 435 OFFCURVE",
"303 354 CURVE SMOOTH",
"318 273 OFFCURVE",
"341 220 OFFCURVE",
"373 169 CURVE SMOOTH",
"405 118 OFFCURVE",
"451 93 OFFCURVE",
"506 93 CURVE SMOOTH",
"529 93 OFFCURVE",
"558 105 OFFCURVE",
"593 130 CURVE SMOOTH",
"628 154 OFFCURVE",
"653 166 OFFCURVE",
"670 166 CURVE SMOOTH"
);
}
);
width = 898;
}
);
note = Ccircumflex;
unicode = 0108;
},
{
glyphname = Cdotaccent;
lastChange = "2015-11-10 11:24:47 +0000";
layers = (
{
layerId = "27A8C2A5-6B67-4598-967C-E5EC4FB8AE70";
name = Condensed;
paths = (
{
closed = 1;
nodes = (
"389 1960 OFFCURVE",
"415 1988 OFFCURVE",
"442 1988 CURVE SMOOTH",
"466 1988 OFFCURVE",
"491 1959 OFFCURVE",
"491 1935 CURVE SMOOTH",
"491 1901 OFFCURVE",
"472 1884 OFFCURVE",
"434 1884 CURVE SMOOTH",
"410 1884 OFFCURVE",
"389 1909 OFFCURVE",
"389 1933 CURVE SMOOTH"
);
},
{
closed = 1;
nodes = (
"173 902 OFFCURVE",
"173 938 OFFCURVE",
"172 986 CURVE SMOOTH",
"171 1033 OFFCURVE",
"171 1068 OFFCURVE",
"171 1090 CURVE SMOOTH",
"171 1174 OFFCURVE",
"174 1230 OFFCURVE",
"184 1300 CURVE SMOOTH",
"194 1370 OFFCURVE",
"210 1414 OFFCURVE",
"242 1461 CURVE SMOOTH",
"273 1508 OFFCURVE",
"314 1535 OFFCURVE",
"377 1552 CURVE SMOOTH",
"408 1561 OFFCURVE",
"444 1565 OFFCURVE",
"483 1565 CURVE SMOOTH",
"530 1565 OFFCURVE",
"601 1532 OFFCURVE",
"601 1489 CURVE SMOOTH",
"601 1474 OFFCURVE",
"590 1466 OFFCURVE",
"569 1466 CURVE SMOOTH",
"561 1466 OFFCURVE",
"545 1471 OFFCURVE",
"522 1481 CURVE",
"498 1490 OFFCURVE",
"479 1495 OFFCURVE",
"466 1495 CURVE SMOOTH",
"385 1495 OFFCURVE",
"324 1459 OFFCURVE",
"290 1410 CURVE SMOOTH",
"256 1361 OFFCURVE",
"236 1276 OFFCURVE",
"230 1205 CURVE SMOOTH",
"227 1169 OFFCURVE",
"225 1128 OFFCURVE",
"225 1081 CURVE SMOOTH",
"225 1054 OFFCURVE",
"226 1016 OFFCURVE",
"227 967 CURVE SMOOTH",
"228 917 OFFCURVE",
"229 881 OFFCURVE",
"229 860 CURVE SMOOTH",
"229 699 OFFCURVE",
"273 188 OFFCURVE",
"313 127 CURVE SMOOTH",
"348 74 OFFCURVE",
"418 47 OFFCURVE",
"487 47 CURVE SMOOTH",
"549 47 OFFCURVE",
"597 67 OFFCURVE",
"630 106 CURVE",
"641 123 OFFCURVE",
"654 132 OFFCURVE",
"668 132 CURVE SMOOTH",
"681 132 OFFCURVE",
"687 122 OFFCURVE",
"687 102 CURVE SMOOTH",
"687 53 OFFCURVE",
"652 15 OFFCURVE",
"604 -4 CURVE SMOOTH",
"555 -24 OFFCURVE",
"505 -33 OFFCURVE",
"460 -33 CURVE SMOOTH",
"381 -33 OFFCURVE",
"284 40 OFFCURVE",
"249 115 CURVE SMOOTH",
"214 190 OFFCURVE",
"173 714 OFFCURVE",
"173 877 CURVE SMOOTH"
);
}
);
width = 780;
},
{
layerId = "156B637B-193E-48A3-AAC8-7B4A3960F885";
name = "Bold Condensed";
paths = (
{
closed = 1;
nodes = (
"382 1814 OFFCURVE",
"418 1852 OFFCURVE",
"459 1852 CURVE SMOOTH",
"498 1852 OFFCURVE",
"532 1814 OFFCURVE",
"532 1775 CURVE SMOOTH",
"532 1730 OFFCURVE",
"498 1700 OFFCURVE",
"451 1700 CURVE SMOOTH",
"414 1700 OFFCURVE",
"382 1736 OFFCURVE",
"382 1773 CURVE SMOOTH"
);
},
{
closed = 1;
nodes = (
"689 166 OFFCURVE",
"709 156 OFFCURVE",
"730 135 CURVE",
"730 84 OFFCURVE",
"707 43 OFFCURVE",
"673 19 CURVE SMOOTH",
"639 -5 OFFCURVE",
"590 -22 OFFCURVE",
"546 -28 CURVE SMOOTH",
"524 -31 OFFCURVE",
"502 -33 OFFCURVE",
"479 -33 CURVE SMOOTH",
"399 -33 OFFCURVE",
"334 8 OFFCURVE",
"291 66 CURVE SMOOTH",
"248 124 OFFCURVE",
"216 223 OFFCURVE",
"198 313 CURVE SMOOTH",
"180 403 OFFCURVE",
"170 533 OFFCURVE",
"167 630 CURVE SMOOTH",
"165 678 OFFCURVE",
"164 732 OFFCURVE",
"164 792 CURVE SMOOTH",
"164 823 OFFCURVE",
"164 867 OFFCURVE",
"165 922 CURVE SMOOTH",
"166 977 OFFCURVE",
"166 1015 OFFCURVE",
"166 1037 CURVE SMOOTH",
"166 1115 OFFCURVE",
"171 1178 OFFCURVE",
"180 1226 CURVE",
"176 1248 OFFCURVE",
"174 1269 OFFCURVE",
"174 1290 CURVE SMOOTH",
"174 1458 OFFCURVE",
"316 1565 OFFCURVE",
"500 1565 CURVE SMOOTH",
"565 1565 OFFCURVE",
"643 1525 OFFCURVE",
"643 1465 CURVE SMOOTH",
"643 1436 OFFCURVE",
"617 1419 OFFCURVE",
"586 1419 CURVE SMOOTH",
"561 1419 OFFCURVE",
"522 1428 OFFCURVE",
"513 1444 CURVE",
"513 1443 LINE",
"485 1443 LINE",
"485 1448 LINE",
"430 1448 OFFCURVE",
"387 1434 OFFCURVE",
"359 1415 CURVE SMOOTH",
"331 1395 OFFCURVE",
"311 1357 OFFCURVE",
"301 1327 CURVE SMOOTH",
"291 1297 OFFCURVE",
"285 1239 OFFCURVE",
"284 1206 CURVE SMOOTH",
"283 1189 OFFCURVE",
"283 1167 OFFCURVE",
"283 1140 CURVE SMOOTH",
"283 1124 OFFCURVE",
"284 1100 OFFCURVE",
"286 1069 CURVE SMOOTH",
"288 1038 OFFCURVE",
"289 1014 OFFCURVE",
"289 999 CURVE SMOOTH",
"289 983 OFFCURVE",
"286 959 OFFCURVE",
"280 928 CURVE SMOOTH",
"274 896 OFFCURVE",
"271 872 OFFCURVE",
"271 856 CURVE SMOOTH",
"271 807 LINE SMOOTH",
"271 726 OFFCURVE",
"272 680 OFFCURVE",
"276 588 CURVE SMOOTH",
"279 495 OFFCURVE",
"288 435 OFFCURVE",
"303 354 CURVE SMOOTH",
"318 273 OFFCURVE",
"341 220 OFFCURVE",
"373 169 CURVE SMOOTH",
"405 118 OFFCURVE",
"451 93 OFFCURVE",
"506 93 CURVE SMOOTH",
"529 93 OFFCURVE",
"558 105 OFFCURVE",
"593 130 CURVE SMOOTH",
"628 154 OFFCURVE",
"653 166 OFFCURVE",
"670 166 CURVE SMOOTH"
);
}
);
width = 898;
}
);
note = Cdotaccent;
unicode = 010A;
},
{
glyphname = D;
lastChange = "2015-11-10 11:24:47 +0000";
layers = (
{
layerId = "27A8C2A5-6B67-4598-967C-E5EC4FB8AE70";
name = Condensed;
paths = (
{
closed = 1;
nodes = (
"268 100 LINE",
"278 100 LINE",
"381 155 OFFCURVE",
"462 266 OFFCURVE",
"506 378 CURVE SMOOTH",
"549 489 OFFCURVE",
"577 635 OFFCURVE",
"586 733 CURVE SMOOTH",
"590 782 OFFCURVE",
"592 829 OFFCURVE",
"592 874 CURVE SMOOTH",
"592 1273 OFFCURVE",
"482 1473 OFFCURVE",
"262 1473 CURVE SMOOTH",
"233 1473 OFFCURVE",
"219 1465 OFFCURVE",
"219 1450 CURVE SMOOTH",
"219 1411 OFFCURVE",
"222 1354 OFFCURVE",
"228 1279 CURVE SMOOTH",
"234 1204 OFFCURVE",
"237 1147 OFFCURVE",
"237 1110 CURVE SMOOTH",
"237 1022 OFFCURVE",
"242 892 OFFCURVE",
"253 719 CURVE SMOOTH",
"263 546 OFFCURVE",
"268 416 OFFCURVE",
"268 330 CURVE SMOOTH"
);
},
{
closed = 1;
nodes = (
"172 46 OFFCURVE",
"178 60 OFFCURVE",
"189 78 CURVE SMOOTH",
"200 95 OFFCURVE",
"205 109 OFFCURVE",
"204 119 CURVE",
"198 299 LINE",
"184 858 LINE",
"183 865 OFFCURVE",
"182 948 OFFCURVE",
"180 1105 CURVE SMOOTH",
"177 1262 OFFCURVE",
"173 1358 OFFCURVE",
"168 1391 CURVE",
"167 1400 OFFCURVE",
"162 1417 OFFCURVE",
"153 1441 CURVE SMOOTH",
"144 1465 OFFCURVE",
"139 1484 OFFCURVE",
"139 1497 CURVE SMOOTH",
"139 1530 OFFCURVE",
"190 1546 OFFCURVE",
"293 1546 CURVE SMOOTH",
"303 1546 LINE SMOOTH",
"376 1546 OFFCURVE",
"440 1517 OFFCURVE",
"485 1475 CURVE SMOOTH",
"529 1433 OFFCURVE",
"567 1364 OFFCURVE",
"590 1301 CURVE SMOOTH",
"613 1237 OFFCURVE",
"631 1151 OFFCURVE",
"639 1089 CURVE SMOOTH",
"647 1027 OFFCURVE",
"653 942 OFFCURVE",
"654 902 CURVE SMOOTH",
"654 881 OFFCURVE",
"654 860 OFFCURVE",
"654 837 CURVE SMOOTH",
"654 672 OFFCURVE",
"609 461 OFFCURVE",
"526 284 CURVE SMOOTH",
"443 107 OFFCURVE",
"279 -4 OFFCURVE",
"247 -4 CURVE SMOOTH",
"215 -4 OFFCURVE",
"172 12 OFFCURVE",
"172 37 CURVE SMOOTH"
);
}
);
width = 820;
},
{
layerId = "156B637B-193E-48A3-AAC8-7B4A3960F885";
name = "Bold Condensed";
paths = (
{
closed = 1;
nodes = (
"213 -5 OFFCURVE",
"164 18 OFFCURVE",
"164 65 CURVE",
"194 96 OFFCURVE",
"209 177 OFFCURVE",
"209 306 CURVE SMOOTH",
"209 382 OFFCURVE",
"203 495 OFFCURVE",
"190 645 CURVE SMOOTH",
"177 795 OFFCURVE",
"171 907 OFFCURVE",
"171 982 CURVE SMOOTH",
"171 1006 OFFCURVE",
"172 1043 OFFCURVE",
"174 1093 CURVE SMOOTH",
"176 1143 OFFCURVE",
"177 1181 OFFCURVE",
"177 1206 CURVE SMOOTH",
"177 1242 OFFCURVE",
"170 1291 OFFCURVE",
"155 1352 CURVE SMOOTH",
"140 1413 OFFCURVE",
"132 1456 OFFCURVE",
"132 1481 CURVE SMOOTH",
"132 1528 OFFCURVE",
"184 1552 OFFCURVE",
"289 1552 CURVE SMOOTH",
"320 1552 LINE SMOOTH",
"399 1552 OFFCURVE",
"466 1524 OFFCURVE",
"513 1484 CURVE SMOOTH",
"560 1444 OFFCURVE",
"599 1378 OFFCURVE",
"623 1319 CURVE SMOOTH",
"647 1259 OFFCURVE",
"666 1174 OFFCURVE",
"675 1115 CURVE SMOOTH",
"683 1056 OFFCURVE",
"688 972 OFFCURVE",
"689 933 CURVE SMOOTH",
"689 914 OFFCURVE",
"689 892 OFFCURVE",
"689 868 CURVE SMOOTH",
"689 773 LINE",
"686 768 OFFCURVE",
"684 762 OFFCURVE",
"684 755 CURVE SMOOTH",
"684 748 OFFCURVE",
"685 740 OFFCURVE",
"687 731 CURVE",
"688 722 OFFCURVE",
"689 716 OFFCURVE",
"689 711 CURVE SMOOTH",
"689 626 OFFCURVE",
"663 500 OFFCURVE",
"612 369 CURVE SMOOTH",
"560 238 OFFCURVE",
"496 122 OFFCURVE",
"405 50 CURVE SMOOTH",
"359 13 OFFCURVE",
"312 -5 OFFCURVE",
"264 -5 CURVE SMOOTH"
);
},
{
closed = 1;
nodes = (
"307 114 LINE",
"410 181 OFFCURVE",
"488 308 OFFCURVE",
"528 449 CURVE SMOOTH",
"567 590 OFFCURVE",
"584 723 OFFCURVE",
"584 854 CURVE SMOOTH",
"584 931 OFFCURVE",
"578 1003 OFFCURVE",
"563 1095 CURVE SMOOTH",
"547 1186 OFFCURVE",
"513 1261 OFFCURVE",
"468 1326 CURVE SMOOTH",
"423 1390 OFFCURVE",
"349 1429 OFFCURVE",
"258 1429 CURVE",
"258 1427 LINE SMOOTH",
"258 1304 OFFCURVE",
"266 1118 OFFCURVE",
"283 870 CURVE SMOOTH",
"299 622 OFFCURVE",
"307 435 OFFCURVE",
"307 310 CURVE SMOOTH"
);
}
);
width = 862;
}
);
note = D;
unicode = 0044;
},
{
glyphname = DZ;
lastChange = "2015-11-10 12:19:53 +0000";
layers = (
{
layerId = "27A8C2A5-6B67-4598-967C-E5EC4FB8AE70";
name = Condensed;
paths = (
{
closed = 1;
nodes = (
"1034 111 OFFCURVE",
"1057 244 OFFCURVE",
"1074 407 CURVE SMOOTH",
"1083 488 OFFCURVE",
"1091 549 OFFCURVE",
"1100 588 CURVE",
"1121 739 OFFCURVE",
"1174 1117 OFFCURVE",
"1194 1268 CURVE",
"1195 1279 OFFCURVE",
"1199 1303 OFFCURVE",
"1204 1339 CURVE SMOOTH",
"1215 1410 OFFCURVE",
"1220 1454 OFFCURVE",
"1221 1499 CURVE",
"1206 1499 OFFCURVE",
"1184 1497 OFFCURVE",
"1153 1494 CURVE SMOOTH",
"1122 1491 OFFCURVE",
"1099 1489 OFFCURVE",
"1083 1489 CURVE SMOOTH",
"1022 1489 OFFCURVE",
"991 1503 OFFCURVE",
"991 1530 CURVE",
"1006 1546 LINE",
"1017 1543 OFFCURVE",
"1033 1542 OFFCURVE",
"1055 1542 CURVE SMOOTH",
"1077 1542 OFFCURVE",
"1109 1546 OFFCURVE",
"1151 1553 CURVE SMOOTH",
"1193 1560 OFFCURVE",
"1225 1563 OFFCURVE",
"1247 1563 CURVE SMOOTH",
"1269 1563 OFFCURVE",
"1280 1551 OFFCURVE",
"1280 1526 CURVE",
"1261 1485 OFFCURVE",
"1254 1414 OFFCURVE",
"1248 1329 CURVE SMOOTH",
"1245 1286 OFFCURVE",
"1242 1256 OFFCURVE",
"1239 1239 CURVE",
"1231 1182 OFFCURVE",
"1211 1027 OFFCURVE",
"1178 775 CURVE SMOOTH",
"1145 523 OFFCURVE",
"1118 330 OFFCURVE",
"1096 195 CURVE SMOOTH",
"1094 180 OFFCURVE",
"1086 156 OFFCURVE",
"1071 121 CURVE SMOOTH",
"1056 86 OFFCURVE",
"1049 59 OFFCURVE",
"1049 39 CURVE",
"1064 39 OFFCURVE",
"1087 41 OFFCURVE",
"1116 44 CURVE SMOOTH",
"1145 47 OFFCURVE",
"1167 49 OFFCURVE",
"1182 49 CURVE SMOOTH",
"1239 49 OFFCURVE",
"1268 35 OFFCURVE",
"1268 8 CURVE",
"1249 -10 LINE",
"1222 -10 OFFCURVE",
"1181 -11 OFFCURVE",
"1128 -14 CURVE SMOOTH",
"1074 -17 OFFCURVE",
"1033 -18 OFFCURVE",
"1006 -18 CURVE SMOOTH",
"992 -18 OFFCURVE",
"982 -9 OFFCURVE",
"975 8 CURVE"
);
},
{
closed = 1;
nodes = (
"268 100 LINE",
"278 100 LINE",
"381 155 OFFCURVE",
"462 266 OFFCURVE",
"506 378 CURVE SMOOTH",
"549 489 OFFCURVE",
"577 635 OFFCURVE",
"586 733 CURVE SMOOTH",
"590 782 OFFCURVE",
"592 829 OFFCURVE",
"592 874 CURVE SMOOTH",
"592 1273 OFFCURVE",
"482 1473 OFFCURVE",
"262 1473 CURVE SMOOTH",
"233 1473 OFFCURVE",
"219 1465 OFFCURVE",
"219 1450 CURVE SMOOTH",
"219 1411 OFFCURVE",
"222 1354 OFFCURVE",
"228 1279 CURVE SMOOTH",
"234 1204 OFFCURVE",
"237 1147 OFFCURVE",
"237 1110 CURVE SMOOTH",
"237 1022 OFFCURVE",
"242 892 OFFCURVE",
"253 719 CURVE SMOOTH",
"263 546 OFFCURVE",
"268 416 OFFCURVE",
"268 330 CURVE SMOOTH"
);
},
{
closed = 1;
nodes = (
"172 46 OFFCURVE",
"178 60 OFFCURVE",
"189 78 CURVE SMOOTH",
"200 95 OFFCURVE",
"205 109 OFFCURVE",
"204 119 CURVE",
"198 299 LINE",
"184 858 LINE",
"183 865 OFFCURVE",
"182 948 OFFCURVE",
"180 1105 CURVE SMOOTH",
"177 1262 OFFCURVE",
"173 1358 OFFCURVE",
"168 1391 CURVE",
"167 1400 OFFCURVE",
"162 1417 OFFCURVE",
"153 1441 CURVE SMOOTH",
"144 1465 OFFCURVE",
"139 1484 OFFCURVE",
"139 1497 CURVE SMOOTH",
"139 1530 OFFCURVE",
"190 1546 OFFCURVE",
"293 1546 CURVE SMOOTH",
"303 1546 LINE SMOOTH",
"376 1546 OFFCURVE",
"440 1517 OFFCURVE",
"485 1475 CURVE SMOOTH",
"529 1433 OFFCURVE",
"567 1364 OFFCURVE",
"590 1301 CURVE SMOOTH",
"613 1237 OFFCURVE",
"631 1151 OFFCURVE",
"639 1089 CURVE SMOOTH",
"647 1027 OFFCURVE",
"653 942 OFFCURVE",
"654 902 CURVE SMOOTH",
"654 881 OFFCURVE",
"654 860 OFFCURVE",
"654 837 CURVE SMOOTH",
"654 672 OFFCURVE",
"609 461 OFFCURVE",
"526 284 CURVE SMOOTH",
"443 107 OFFCURVE",
"279 -4 OFFCURVE",
"247 -4 CURVE SMOOTH",
"215 -4 OFFCURVE",
"172 12 OFFCURVE",
"172 37 CURVE SMOOTH"
);
}
);
width = 1440;
},
{
components = (
{
name = D;
},
{
name = Z;
transform = "{1, 0, 0, 1, 862, 0}";
}
);
layerId = "156B637B-193E-48A3-AAC8-7B4A3960F885";
name = "Bold Condensed";
width = 1544;
}
);
note = uni01F1;
unicode = 01F1;
},
{
glyphname = DZcaron;
lastChange = "2015-11-10 12:19:53 +0000";
layers = (
{
layerId = "27A8C2A5-6B67-4598-967C-E5EC4FB8AE70";
name = Condensed;
paths = (
{
closed = 1;
nodes = (
"1239 2064 LINE",
"1264 2060 OFFCURVE",
"1276 2052 OFFCURVE",
"1276 2040 CURVE SMOOTH",
"1276 2035 OFFCURVE",
"1273 2028 OFFCURVE",
"1268 2017 CURVE",
"1270 2007 LINE",
"1255 1976 LINE",
"1257 1964 LINE",
"1252 1947 OFFCURVE",
"1244 1922 OFFCURVE",
"1233 1890 CURVE SMOOTH",
"1209 1825 OFFCURVE",
"1196 1777 OFFCURVE",
"1196 1724 CURVE SMOOTH",
"1196 1695 OFFCURVE",
"1186 1681 OFFCURVE",
"1167 1681 CURVE SMOOTH",
"1126 1681 OFFCURVE",
"998 1967 OFFCURVE",
"995 2027 CURVE",
"1032 2054 LINE",
"1067 2007 LINE",
"1068 1994 OFFCURVE",
"1074 1970 OFFCURVE",
"1085 1937 CURVE SMOOTH",
"1106 1870 OFFCURVE",
"1150 1748 OFFCURVE",
"1153 1741 CURVE",
"1186 1863 OFFCURVE",
"1205 1965 OFFCURVE",
"1212 2048 CURVE"
);
},
{
closed = 1;
nodes = (
"1034 111 OFFCURVE",
"1057 244 OFFCURVE",
"1074 407 CURVE SMOOTH",
"1083 488 OFFCURVE",
"1091 549 OFFCURVE",
"1100 588 CURVE",
"1121 739 OFFCURVE",
"1174 1117 OFFCURVE",
"1194 1268 CURVE",
"1195 1279 OFFCURVE",
"1199 1303 OFFCURVE",
"1204 1339 CURVE SMOOTH",
"1215 1410 OFFCURVE",
"1220 1454 OFFCURVE",
"1221 1499 CURVE",
"1206 1499 OFFCURVE",
"1184 1497 OFFCURVE",
"1153 1494 CURVE SMOOTH",
"1122 1491 OFFCURVE",
"1099 1489 OFFCURVE",
"1083 1489 CURVE SMOOTH",
"1022 1489 OFFCURVE",
"991 1503 OFFCURVE",
"991 1530 CURVE",
"1006 1546 LINE",
"1017 1543 OFFCURVE",
"1033 1542 OFFCURVE",
"1055 1542 CURVE SMOOTH",
"1077 1542 OFFCURVE",
"1109 1546 OFFCURVE",
"1151 1553 CURVE SMOOTH",
"1193 1560 OFFCURVE",
"1225 1563 OFFCURVE",
"1247 1563 CURVE SMOOTH",
"1269 1563 OFFCURVE",
"1280 1551 OFFCURVE",
"1280 1526 CURVE",
"1261 1485 OFFCURVE",
"1254 1414 OFFCURVE",
"1248 1329 CURVE SMOOTH",
"1245 1286 OFFCURVE",
"1242 1256 OFFCURVE",
"1239 1239 CURVE",
"1231 1182 OFFCURVE",
"1211 1027 OFFCURVE",
"1178 775 CURVE SMOOTH",
"1145 523 OFFCURVE",
"1118 330 OFFCURVE",
"1096 195 CURVE SMOOTH",
"1094 180 OFFCURVE",
"1086 156 OFFCURVE",
"1071 121 CURVE SMOOTH",
"1056 86 OFFCURVE",
"1049 59 OFFCURVE",
"1049 39 CURVE",
"1064 39 OFFCURVE",
"1087 41 OFFCURVE",
"1116 44 CURVE SMOOTH",
"1145 47 OFFCURVE",
"1167 49 OFFCURVE",
"1182 49 CURVE SMOOTH",
"1239 49 OFFCURVE",
"1268 35 OFFCURVE",
"1268 8 CURVE",
"1249 -10 LINE",
"1222 -10 OFFCURVE",
"1181 -11 OFFCURVE",
"1128 -14 CURVE SMOOTH",
"1074 -17 OFFCURVE",
"1033 -18 OFFCURVE",
"1006 -18 CURVE SMOOTH",
"992 -18 OFFCURVE",
"982 -9 OFFCURVE",
"975 8 CURVE"
);
},
{
closed = 1;
nodes = (
"268 100 LINE",
"278 100 LINE",
"381 155 OFFCURVE",
"462 266 OFFCURVE",
"506 378 CURVE SMOOTH",
"549 489 OFFCURVE",
"577 635 OFFCURVE",
"586 733 CURVE SMOOTH",
"590 782 OFFCURVE",
"592 829 OFFCURVE",
"592 874 CURVE SMOOTH",
"592 1273 OFFCURVE",
"482 1473 OFFCURVE",
"262 1473 CURVE SMOOTH",
"233 1473 OFFCURVE",
"219 1465 OFFCURVE",
"219 1450 CURVE SMOOTH",
"219 1411 OFFCURVE",
"222 1354 OFFCURVE",
"228 1279 CURVE SMOOTH",
"234 1204 OFFCURVE",
"237 1147 OFFCURVE",
"237 1110 CURVE SMOOTH",
"237 1022 OFFCURVE",
"242 892 OFFCURVE",
"253 719 CURVE SMOOTH",
"263 546 OFFCURVE",
"268 416 OFFCURVE",
"268 330 CURVE SMOOTH"
);
},
{
closed = 1;
nodes = (
"172 46 OFFCURVE",
"178 60 OFFCURVE",
"189 78 CURVE SMOOTH",
"200 95 OFFCURVE",
"205 109 OFFCURVE",
"204 119 CURVE",
"198 299 LINE",
"184 858 LINE",
"183 865 OFFCURVE",
"182 948 OFFCURVE",
"180 1105 CURVE SMOOTH",
"177 1262 OFFCURVE",
"173 1358 OFFCURVE",
"168 1391 CURVE",
"167 1400 OFFCURVE",
"162 1417 OFFCURVE",
"153 1441 CURVE SMOOTH",
"144 1465 OFFCURVE",
"139 1484 OFFCURVE",
"139 1497 CURVE SMOOTH",
"139 1530 OFFCURVE",
"190 1546 OFFCURVE",
"293 1546 CURVE SMOOTH",
"303 1546 LINE SMOOTH",
"376 1546 OFFCURVE",
"440 1517 OFFCURVE",
"485 1475 CURVE SMOOTH",
"529 1433 OFFCURVE",
"567 1364 OFFCURVE",
"590 1301 CURVE SMOOTH",
"613 1237 OFFCURVE",
"631 1151 OFFCURVE",
"639 1089 CURVE SMOOTH",
"647 1027 OFFCURVE",
"653 942 OFFCURVE",
"654 902 CURVE SMOOTH",
"654 881 OFFCURVE",
"654 860 OFFCURVE",
"654 837 CURVE SMOOTH",
"654 672 OFFCURVE",
"609 461 OFFCURVE",
"526 284 CURVE SMOOTH",
"443 107 OFFCURVE",
"279 -4 OFFCURVE",
"247 -4 CURVE SMOOTH",
"215 -4 OFFCURVE",
"172 12 OFFCURVE",
"172 37 CURVE SMOOTH"
);
}
);
width = 1440;
},
{
components = (
{
name = DZ;
},
{
name = caron;
transform = "{1, 0, 0, 1, 862, 339}";
}
);
layerId = "156B637B-193E-48A3-AAC8-7B4A3960F885";
name = "Bold Condensed";
width = 1544;
}
);
note = uni01C4;
unicode = 01C4;
},
{
glyphname = Eth;
lastChange = "2015-11-10 11:24:47 +0000";
layers = (
{
layerId = "27A8C2A5-6B67-4598-967C-E5EC4FB8AE70";
name = Condensed;
paths = (
{
closed = 1;
nodes = (
"288 449 LINE",
"288 400 OFFCURVE",
"292 327 OFFCURVE",
"299 228 CURVE SMOOTH",
"306 129 OFFCURVE",
"309 55 OFFCURVE",
"309 6 CURVE",
"321 9 OFFCURVE",
"332 13 OFFCURVE",
"343 21 CURVE SMOOTH",
"354 29 OFFCURVE",
"357 33 OFFCURVE",
"369 46 CURVE",
"375 52 OFFCURVE",
"379 56 OFFCURVE",
"382 59 CURVE SMOOTH",
"519 194 OFFCURVE",
"638 437 OFFCURVE",
"638 616 CURVE SMOOTH",
"638 759 OFFCURVE",
"638 808 OFFCURVE",
"625 925 CURVE SMOOTH",
"618 983 OFFCURVE",
"608 1037 OFFCURVE",
"595 1087 CURVE",
"551 1302 OFFCURVE",
"427 1481 OFFCURVE",
"235 1538 CURVE",
"231 1534 LINE",
"231 1362 OFFCURVE",
"253 858 OFFCURVE",
"280 821 CURVE",
"296 821 OFFCURVE",
"320 825 OFFCURVE",
"351 833 CURVE SMOOTH",
"382 840 OFFCURVE",
"406 844 OFFCURVE",
"421 844 CURVE SMOOTH",
"444 844 OFFCURVE",
"461 818 OFFCURVE",
"464 795 CURVE",
"444 770 LINE",
"375 770 OFFCURVE",
"319 765 OFFCURVE",
"276 756 CURVE",
"276 713 OFFCURVE",
"286 467 OFFCURVE",
"290 451 CURVE"
);
},
{
closed = 1;
nodes = (
"239 -49 LINE",
"239 132 OFFCURVE",
"233 349 OFFCURVE",
"221 602 CURVE",
"214 686 OFFCURVE",
"209 737 OFFCURVE",
"204 754 CURVE",
"189 754 OFFCURVE",
"168 752 OFFCURVE",
"141 748 CURVE SMOOTH",
"113 743 OFFCURVE",
"92 741 OFFCURVE",
"79 741 CURVE SMOOTH",
"56 741 OFFCURVE",
"51 752 OFFCURVE",
"51 776 CURVE SMOOTH",
"51 801 OFFCURVE",
"93 813 OFFCURVE",
"178 813 CURVE SMOOTH",
"196 813 LINE",
"204 817 LINE",
"204 818 OFFCURVE",
"204 819 OFFCURVE",
"205 822 CURVE SMOOTH",
"206 825 OFFCURVE",
"206 826 OFFCURVE",
"206 827 CURVE SMOOTH",
"206 868 OFFCURVE",
"201 929 OFFCURVE",
"192 1011 CURVE SMOOTH",
"183 1093 OFFCURVE",
"178 1155 OFFCURVE",
"178 1196 CURVE SMOOTH",
"178 1237 OFFCURVE",
"175 1299 OFFCURVE",
"170 1380 CURVE SMOOTH",
"164 1461 OFFCURVE",
"161 1522 OFFCURVE",
"161 1563 CURVE SMOOTH",
"161 1574 OFFCURVE",
"183 1606 OFFCURVE",
"194 1606 CURVE SMOOTH",
"279 1606 OFFCURVE",
"372 1553 OFFCURVE",
"445 1476 CURVE SMOOTH",
"518 1399 OFFCURVE",
"573 1321 OFFCURVE",
"616 1241 CURVE",
"616 1237 LINE",
"680 1056 OFFCURVE",
"712 860 OFFCURVE",
"712 649 CURVE SMOOTH",
"712 470 OFFCURVE",
"645 263 OFFCURVE",
"517 93 CURVE SMOOTH",
"452 8 OFFCURVE",
"380 -53 OFFCURVE",
"301 -88 CURVE",
"295 -85 OFFCURVE",
"287 -83 OFFCURVE",
"278 -80 CURVE",
"258 -75 OFFCURVE",
"250 -69 OFFCURVE",
"241 -49 CURVE"
);
}
);
width = 880;
},
{
layerId = "156B637B-193E-48A3-AAC8-7B4A3960F885";
name = "Bold Condensed";
paths = (
{
closed = 1;
nodes = (
"445 804 OFFCURVE",
"429 790 OFFCURVE",
"397 778 CURVE SMOOTH",
"332 753 OFFCURVE",
"223 745 OFFCURVE",
"155 741 CURVE SMOOTH",
"121 739 OFFCURVE",
"93 738 OFFCURVE",
"70 738 CURVE SMOOTH",
"35 738 OFFCURVE",
"3 764 OFFCURVE",
"3 797 CURVE SMOOTH",
"3 814 OFFCURVE",
"19 828 OFFCURVE",
"52 840 CURVE SMOOTH",
"116 864 OFFCURVE",
"224 873 OFFCURVE",
"293 877 CURVE SMOOTH",
"327 879 OFFCURVE",
"355 880 OFFCURVE",
"377 880 CURVE SMOOTH",
"412 880 OFFCURVE",
"445 856 OFFCURVE",
"445 821 CURVE SMOOTH"
);
},
{
closed = 1;
nodes = (
"213 -5 OFFCURVE",
"164 18 OFFCURVE",
"164 65 CURVE",
"194 96 OFFCURVE",
"209 177 OFFCURVE",
"209 306 CURVE SMOOTH",
"209 382 OFFCURVE",
"203 495 OFFCURVE",
"190 645 CURVE SMOOTH",
"177 795 OFFCURVE",
"171 907 OFFCURVE",
"171 982 CURVE SMOOTH",
"171 1006 OFFCURVE",
"172 1043 OFFCURVE",
"174 1093 CURVE SMOOTH",
"176 1143 OFFCURVE",
"177 1181 OFFCURVE",
"177 1206 CURVE SMOOTH",
"177 1242 OFFCURVE",
"170 1291 OFFCURVE",
"155 1352 CURVE SMOOTH",
"140 1413 OFFCURVE",
"132 1456 OFFCURVE",
"132 1481 CURVE SMOOTH",
"132 1528 OFFCURVE",
"184 1552 OFFCURVE",
"289 1552 CURVE SMOOTH",
"320 1552 LINE SMOOTH",
"399 1552 OFFCURVE",
"466 1524 OFFCURVE",
"513 1484 CURVE SMOOTH",
"560 1444 OFFCURVE",
"599 1378 OFFCURVE",
"623 1319 CURVE SMOOTH",
"647 1259 OFFCURVE",
"666 1174 OFFCURVE",
"675 1115 CURVE SMOOTH",
"683 1056 OFFCURVE",
"688 972 OFFCURVE",
"689 933 CURVE SMOOTH",
"689 914 OFFCURVE",
"689 892 OFFCURVE",
"689 868 CURVE SMOOTH",
"689 773 LINE",
"686 768 OFFCURVE",
"684 762 OFFCURVE",
"684 755 CURVE SMOOTH",
"684 748 OFFCURVE",
"685 740 OFFCURVE",
"687 731 CURVE",
"688 722 OFFCURVE",
"689 716 OFFCURVE",
"689 711 CURVE SMOOTH",
"689 626 OFFCURVE",
"663 500 OFFCURVE",
"612 369 CURVE SMOOTH",
"560 238 OFFCURVE",
"496 122 OFFCURVE",
"405 50 CURVE SMOOTH",
"359 13 OFFCURVE",
"312 -5 OFFCURVE",
"264 -5 CURVE SMOOTH"
);
},
{
closed = 1;
nodes = (
"307 114 LINE",
"410 181 OFFCURVE",
"488 308 OFFCURVE",
"528 449 CURVE SMOOTH",
"567 590 OFFCURVE",
"584 723 OFFCURVE",
"584 854 CURVE SMOOTH",
"584 931 OFFCURVE",
"578 1003 OFFCURVE",
"563 1095 CURVE SMOOTH",
"547 1186 OFFCURVE",
"513 1261 OFFCURVE",
"468 1326 CURVE SMOOTH",
"423 1390 OFFCURVE",
"349 1429 OFFCURVE",
"258 1429 CURVE",
"258 1427 LINE SMOOTH",
"258 1304 OFFCURVE",
"266 1118 OFFCURVE",
"283 870 CURVE SMOOTH",
"299 622 OFFCURVE",
"307 435 OFFCURVE",
"307 310 CURVE SMOOTH"
);
}
);
width = 862;
}
);
note = Eth;
unicode = 00D0;
},
{
glyphname = Dcaron;
lastChange = "2015-11-10 11:24:47 +0000";
layers = (
{
layerId = "27A8C2A5-6B67-4598-967C-E5EC4FB8AE70";
name = Condensed;
paths = (
{
closed = 1;
nodes = (
"470 2064 LINE",
"495 2060 OFFCURVE",
"507 2052 OFFCURVE",
"507 2040 CURVE SMOOTH",
"507 2035 OFFCURVE",
"504 2028 OFFCURVE",
"499 2017 CURVE",
"501 2007 LINE",
"486 1976 LINE",
"488 1964 LINE",
"483 1947 OFFCURVE",
"475 1922 OFFCURVE",
"464 1890 CURVE SMOOTH",
"440 1825 OFFCURVE",
"427 1777 OFFCURVE",
"427 1724 CURVE SMOOTH",
"427 1695 OFFCURVE",
"417 1681 OFFCURVE",
"398 1681 CURVE SMOOTH",
"357 1681 OFFCURVE",
"229 1967 OFFCURVE",
"226 2027 CURVE",
"263 2054 LINE",
"298 2007 LINE",
"299 1994 OFFCURVE",
"305 1970 OFFCURVE",
"316 1937 CURVE SMOOTH",
"337 1870 OFFCURVE",
"381 1748 OFFCURVE",
"384 1741 CURVE",
"417 1863 OFFCURVE",
"436 1965 OFFCURVE",
"443 2048 CURVE"
);
},
{
closed = 1;
nodes = (
"268 100 LINE",
"278 100 LINE",
"381 155 OFFCURVE",
"462 266 OFFCURVE",
"506 378 CURVE SMOOTH",
"549 489 OFFCURVE",
"577 635 OFFCURVE",
"586 733 CURVE SMOOTH",
"590 782 OFFCURVE",
"592 829 OFFCURVE",
"592 874 CURVE SMOOTH",
"592 1273 OFFCURVE",
"482 1473 OFFCURVE",
"262 1473 CURVE SMOOTH",
"233 1473 OFFCURVE",
"219 1465 OFFCURVE",
"219 1450 CURVE SMOOTH",
"219 1411 OFFCURVE",
"222 1354 OFFCURVE",
"228 1279 CURVE SMOOTH",
"234 1204 OFFCURVE",
"237 1147 OFFCURVE",
"237 1110 CURVE SMOOTH",
"237 1022 OFFCURVE",
"242 892 OFFCURVE",
"253 719 CURVE SMOOTH",
"263 546 OFFCURVE",
"268 416 OFFCURVE",
"268 330 CURVE SMOOTH"
);
},
{
closed = 1;
nodes = (
"172 46 OFFCURVE",
"178 60 OFFCURVE",
"189 78 CURVE SMOOTH",
"200 95 OFFCURVE",
"205 109 OFFCURVE",
"204 119 CURVE",
"198 299 LINE",
"184 858 LINE",
"183 865 OFFCURVE",
"182 948 OFFCURVE",
"180 1105 CURVE SMOOTH",
"177 1262 OFFCURVE",
"173 1358 OFFCURVE",
"168 1391 CURVE",
"167 1400 OFFCURVE",
"162 1417 OFFCURVE",
"153 1441 CURVE SMOOTH",
"144 1465 OFFCURVE",
"139 1484 OFFCURVE",
"139 1497 CURVE SMOOTH",
"139 1530 OFFCURVE",
"190 1546 OFFCURVE",
"293 1546 CURVE SMOOTH",
"303 1546 LINE SMOOTH",
"376 1546 OFFCURVE",
"440 1517 OFFCURVE",
"485 1475 CURVE SMOOTH",
"529 1433 OFFCURVE",
"567 1364 OFFCURVE",
"590 1301 CURVE SMOOTH",
"613 1237 OFFCURVE",
"631 1151 OFFCURVE",
"639 1089 CURVE SMOOTH",
"647 1027 OFFCURVE",
"653 942 OFFCURVE",
"654 902 CURVE SMOOTH",
"654 881 OFFCURVE",
"654 860 OFFCURVE",
"654 837 CURVE SMOOTH",
"654 672 OFFCURVE",
"609 461 OFFCURVE",
"526 284 CURVE SMOOTH",
"443 107 OFFCURVE",
"279 -4 OFFCURVE",
"247 -4 CURVE SMOOTH",
"215 -4 OFFCURVE",
"172 12 OFFCURVE",
"172 37 CURVE SMOOTH"
);
}
);
width = 820;
},
{
layerId = "156B637B-193E-48A3-AAC8-7B4A3960F885";
name = "Bold Condensed";
paths = (
{
closed = 1;
nodes = (
"165 2074 OFFCURVE",
"189 2092 OFFCURVE",
"214 2092 CURVE SMOOTH",
"230 2092 OFFCURVE",
"247 2073 OFFCURVE",
"264 2034 CURVE SMOOTH",
"281 1995 OFFCURVE",
"298 1944 OFFCURVE",
"316 1881 CURVE SMOOTH",
"342 1787 LINE",
"345 1802 OFFCURVE",
"348 1825 OFFCURVE",
"351 1856 CURVE SMOOTH",
"358 1919 OFFCURVE",
"363 1964 OFFCURVE",
"375 2016 CURVE SMOOTH",
"386 2068 OFFCURVE",
"405 2099 OFFCURVE",
"432 2099 CURVE SMOOTH",
"456 2099 OFFCURVE",
"475 2083 OFFCURVE",
"475 2056 CURVE SMOOTH",
"475 2052 OFFCURVE",
"473 2047 OFFCURVE",
"468 2040 CURVE SMOOTH",
"463 2033 OFFCURVE",
"461 2028 OFFCURVE",
"460 2025 CURVE",
"460 1988 LINE",
"431 1876 LINE SMOOTH",
"412 1801 OFFCURVE",
"402 1753 OFFCURVE",
"402 1730 CURVE SMOOTH",
"402 1686 OFFCURVE",
"385 1664 OFFCURVE",
"350 1664 CURVE SMOOTH",
"297 1664 OFFCURVE",
"165 1977 OFFCURVE",
"165 2053 CURVE SMOOTH"
);
},
{
closed = 1;
nodes = (
"213 -5 OFFCURVE",
"164 18 OFFCURVE",
"164 65 CURVE",
"194 96 OFFCURVE",
"209 177 OFFCURVE",
"209 306 CURVE SMOOTH",
"209 382 OFFCURVE",
"203 495 OFFCURVE",
"190 645 CURVE SMOOTH",
"177 795 OFFCURVE",
"171 907 OFFCURVE",
"171 982 CURVE SMOOTH",
"171 1006 OFFCURVE",
"172 1043 OFFCURVE",
"174 1093 CURVE SMOOTH",
"176 1143 OFFCURVE",
"177 1181 OFFCURVE",
"177 1206 CURVE SMOOTH",
"177 1242 OFFCURVE",
"170 1291 OFFCURVE",
"155 1352 CURVE SMOOTH",
"140 1413 OFFCURVE",
"132 1456 OFFCURVE",
"132 1481 CURVE SMOOTH",
"132 1528 OFFCURVE",
"184 1552 OFFCURVE",
"289 1552 CURVE SMOOTH",
"320 1552 LINE SMOOTH",
"399 1552 OFFCURVE",
"466 1524 OFFCURVE",
"513 1484 CURVE SMOOTH",
"560 1444 OFFCURVE",
"599 1378 OFFCURVE",
"623 1319 CURVE SMOOTH",
"647 1259 OFFCURVE",
"666 1174 OFFCURVE",
"675 1115 CURVE SMOOTH",
"683 1056 OFFCURVE",
"688 972 OFFCURVE",
"689 933 CURVE SMOOTH",
"689 914 OFFCURVE",
"689 892 OFFCURVE",
"689 868 CURVE SMOOTH",
"689 773 LINE",
"686 768 OFFCURVE",
"684 762 OFFCURVE",
"684 755 CURVE SMOOTH",
"684 748 OFFCURVE",
"685 740 OFFCURVE",
"687 731 CURVE",
"688 722 OFFCURVE",
"689 716 OFFCURVE",
"689 711 CURVE SMOOTH",
"689 626 OFFCURVE",
"663 500 OFFCURVE",
"612 369 CURVE SMOOTH",
"560 238 OFFCURVE",
"496 122 OFFCURVE",
"405 50 CURVE SMOOTH",
"359 13 OFFCURVE",
"312 -5 OFFCURVE",
"264 -5 CURVE SMOOTH"
);
},
{
closed = 1;
nodes = (
"307 114 LINE",
"410 181 OFFCURVE",
"488 308 OFFCURVE",
"528 449 CURVE SMOOTH",
"567 590 OFFCURVE",
"584 723 OFFCURVE",
"584 854 CURVE SMOOTH",
"584 931 OFFCURVE",
"578 1003 OFFCURVE",
"563 1095 CURVE SMOOTH",
"547 1186 OFFCURVE",
"513 1261 OFFCURVE",
"468 1326 CURVE SMOOTH",
"423 1390 OFFCURVE",
"349 1429 OFFCURVE",
"258 1429 CURVE",
"258 1427 LINE SMOOTH",
"258 1304 OFFCURVE",
"266 1118 OFFCURVE",
"283 870 CURVE SMOOTH",
"299 622 OFFCURVE",
"307 435 OFFCURVE",
"307 310 CURVE SMOOTH"
);
}
);
width = 862;
}
);
note = Dcaron;
unicode = 010E;
},
{
glyphname = Dcroat;
lastChange = "2015-11-10 11:24:48 +0000";
layers = (
{
layerId = "27A8C2A5-6B67-4598-967C-E5EC4FB8AE70";
name = Condensed;
paths = (
{
closed = 1;
nodes = (
"288 449 LINE",
"288 400 OFFCURVE",
"292 327 OFFCURVE",
"299 228 CURVE SMOOTH",
"306 129 OFFCURVE",
"309 55 OFFCURVE",
"309 6 CURVE",
"321 9 OFFCURVE",
"332 13 OFFCURVE",
"343 21 CURVE SMOOTH",
"354 29 OFFCURVE",
"357 33 OFFCURVE",
"369 46 CURVE",
"375 52 OFFCURVE",
"379 56 OFFCURVE",
"382 59 CURVE SMOOTH",
"519 194 OFFCURVE",
"638 437 OFFCURVE",
"638 616 CURVE SMOOTH",
"638 759 OFFCURVE",
"638 808 OFFCURVE",
"625 925 CURVE SMOOTH",
"618 983 OFFCURVE",
"608 1037 OFFCURVE",
"595 1087 CURVE",
"551 1302 OFFCURVE",
"427 1481 OFFCURVE",
"235 1538 CURVE",
"231 1534 LINE",
"231 1362 OFFCURVE",
"253 858 OFFCURVE",
"280 821 CURVE",
"296 821 OFFCURVE",
"320 825 OFFCURVE",
"351 833 CURVE SMOOTH",
"382 840 OFFCURVE",
"406 844 OFFCURVE",
"421 844 CURVE SMOOTH",
"444 844 OFFCURVE",
"461 818 OFFCURVE",
"464 795 CURVE",
"444 770 LINE",
"375 770 OFFCURVE",
"319 765 OFFCURVE",
"276 756 CURVE",
"276 713 OFFCURVE",
"286 467 OFFCURVE",
"290 451 CURVE"
);
},
{
closed = 1;
nodes = (
"239 -49 LINE",
"239 132 OFFCURVE",
"233 349 OFFCURVE",
"221 602 CURVE",
"214 686 OFFCURVE",
"209 737 OFFCURVE",
"204 754 CURVE",
"189 754 OFFCURVE",
"168 752 OFFCURVE",
"141 748 CURVE SMOOTH",
"113 743 OFFCURVE",
"92 741 OFFCURVE",
"79 741 CURVE SMOOTH",
"56 741 OFFCURVE",
"51 752 OFFCURVE",
"51 776 CURVE SMOOTH",
"51 801 OFFCURVE",
"93 813 OFFCURVE",
"178 813 CURVE SMOOTH",
"196 813 LINE",
"204 817 LINE",
"204 818 OFFCURVE",
"204 819 OFFCURVE",
"205 822 CURVE SMOOTH",
"206 825 OFFCURVE",
"206 826 OFFCURVE",
"206 827 CURVE SMOOTH",
"206 868 OFFCURVE",
"201 929 OFFCURVE",
"192 1011 CURVE SMOOTH",
"183 1093 OFFCURVE",
"178 1155 OFFCURVE",
"178 1196 CURVE SMOOTH",
"178 1237 OFFCURVE",
"175 1299 OFFCURVE",
"170 1380 CURVE SMOOTH",
"164 1461 OFFCURVE",
"161 1522 OFFCURVE",
"161 1563 CURVE SMOOTH",
"161 1574 OFFCURVE",
"183 1606 OFFCURVE",
"194 1606 CURVE SMOOTH",
"279 1606 OFFCURVE",
"372 1553 OFFCURVE",
"445 1476 CURVE SMOOTH",
"518 1399 OFFCURVE",
"573 1321 OFFCURVE",
"616 1241 CURVE",
"616 1237 LINE",
"680 1056 OFFCURVE",
"712 860 OFFCURVE",
"712 649 CURVE SMOOTH",
"712 470 OFFCURVE",
"645 263 OFFCURVE",
"517 93 CURVE SMOOTH",
"452 8 OFFCURVE",
"380 -53 OFFCURVE",
"301 -88 CURVE",
"295 -85 OFFCURVE",
"287 -83 OFFCURVE",
"278 -80 CURVE",
"258 -75 OFFCURVE",
"250 -69 OFFCURVE",
"241 -49 CURVE"
);
}
);
width = 880;
},
{
layerId = "156B637B-193E-48A3-AAC8-7B4A3960F885";
name = "Bold Condensed";
paths = (
{
closed = 1;
nodes = (
"445 804 OFFCURVE",
"429 790 OFFCURVE",
"397 778 CURVE SMOOTH",
"332 753 OFFCURVE",
"223 745 OFFCURVE",
"155 741 CURVE SMOOTH",
"121 739 OFFCURVE",
"93 738 OFFCURVE",
"70 738 CURVE SMOOTH",
"35 738 OFFCURVE",
"3 764 OFFCURVE",
"3 797 CURVE SMOOTH",
"3 814 OFFCURVE",
"19 828 OFFCURVE",
"52 840 CURVE SMOOTH",
"116 864 OFFCURVE",
"224 873 OFFCURVE",
"293 877 CURVE SMOOTH",
"327 879 OFFCURVE",
"355 880 OFFCURVE",
"377 880 CURVE SMOOTH",
"412 880 OFFCURVE",
"445 856 OFFCURVE",
"445 821 CURVE SMOOTH"
);
},
{
closed = 1;
nodes = (
"213 -5 OFFCURVE",
"164 18 OFFCURVE",
"164 65 CURVE",
"194 96 OFFCURVE",
"209 177 OFFCURVE",
"209 306 CURVE SMOOTH",
"209 382 OFFCURVE",
"203 495 OFFCURVE",
"190 645 CURVE SMOOTH",
"177 795 OFFCURVE",
"171 907 OFFCURVE",
"171 982 CURVE SMOOTH",
"171 1006 OFFCURVE",
"172 1043 OFFCURVE",
"174 1093 CURVE SMOOTH",
"176 1143 OFFCURVE",
"177 1181 OFFCURVE",
"177 1206 CURVE SMOOTH",
"177 1242 OFFCURVE",
"170 1291 OFFCURVE",
"155 1352 CURVE SMOOTH",
"140 1413 OFFCURVE",
"132 1456 OFFCURVE",
"132 1481 CURVE SMOOTH",
"132 1528 OFFCURVE",
"184 1552 OFFCURVE",
"289 1552 CURVE SMOOTH",
"320 1552 LINE SMOOTH",
"399 1552 OFFCURVE",
"466 1524 OFFCURVE",
"513 1484 CURVE SMOOTH",
"560 1444 OFFCURVE",
"599 1378 OFFCURVE",
"623 1319 CURVE SMOOTH",
"647 1259 OFFCURVE",
"666 1174 OFFCURVE",
"675 1115 CURVE SMOOTH",
"683 1056 OFFCURVE",
"688 972 OFFCURVE",
"689 933 CURVE SMOOTH",
"689 914 OFFCURVE",
"689 892 OFFCURVE",
"689 868 CURVE SMOOTH",
"689 773 LINE",
"686 768 OFFCURVE",
"684 762 OFFCURVE",
"684 755 CURVE SMOOTH",
"684 748 OFFCURVE",
"685 740 OFFCURVE",
"687 731 CURVE",
"688 722 OFFCURVE",
"689 716 OFFCURVE",
"689 711 CURVE SMOOTH",
"689 626 OFFCURVE",
"663 500 OFFCURVE",
"612 369 CURVE SMOOTH",
"560 238 OFFCURVE",
"496 122 OFFCURVE",
"405 50 CURVE SMOOTH",
"359 13 OFFCURVE",
"312 -5 OFFCURVE",
"264 -5 CURVE SMOOTH"
);
},
{
closed = 1;
nodes = (
"307 114 LINE",
"410 181 OFFCURVE",
"488 308 OFFCURVE",
"528 449 CURVE SMOOTH",
"567 590 OFFCURVE",
"584 723 OFFCURVE",
"584 854 CURVE SMOOTH",
"584 931 OFFCURVE",
"578 1003 OFFCURVE",
"563 1095 CURVE SMOOTH",
"547 1186 OFFCURVE",
"513 1261 OFFCURVE",
"468 1326 CURVE SMOOTH",
"423 1390 OFFCURVE",
"349 1429 OFFCURVE",
"258 1429 CURVE",
"258 1427 LINE SMOOTH",
"258 1304 OFFCURVE",
"266 1118 OFFCURVE",
"283 870 CURVE SMOOTH",
"299 622 OFFCURVE",
"307 435 OFFCURVE",
"307 310 CURVE SMOOTH"
);
}
);
width = 862;
}
);
note = Dcroat;
unicode = 0110;
},
{
glyphname = Ddotaccent;
lastChange = "2015-11-10 12:19:53 +0000";
layers = (
{
layerId = "27A8C2A5-6B67-4598-967C-E5EC4FB8AE70";
name = Condensed;
paths = (
{
closed = 1;
nodes = (
"318 1960 OFFCURVE",
"344 1988 OFFCURVE",
"371 1988 CURVE SMOOTH",
"395 1988 OFFCURVE",
"420 1959 OFFCURVE",
"420 1935 CURVE SMOOTH",
"420 1901 OFFCURVE",
"401 1884 OFFCURVE",
"363 1884 CURVE SMOOTH",
"339 1884 OFFCURVE",
"318 1909 OFFCURVE",
"318 1933 CURVE SMOOTH"
);
},
{
closed = 1;
nodes = (
"268 100 LINE",
"278 100 LINE",
"381 155 OFFCURVE",
"462 266 OFFCURVE",
"506 378 CURVE SMOOTH",
"549 489 OFFCURVE",
"577 635 OFFCURVE",
"586 733 CURVE SMOOTH",
"590 782 OFFCURVE",
"592 829 OFFCURVE",
"592 874 CURVE SMOOTH",
"592 1273 OFFCURVE",
"482 1473 OFFCURVE",
"262 1473 CURVE SMOOTH",
"233 1473 OFFCURVE",
"219 1465 OFFCURVE",
"219 1450 CURVE SMOOTH",
"219 1411 OFFCURVE",
"222 1354 OFFCURVE",
"228 1279 CURVE SMOOTH",
"234 1204 OFFCURVE",
"237 1147 OFFCURVE",
"237 1110 CURVE SMOOTH",
"237 1022 OFFCURVE",
"242 892 OFFCURVE",
"253 719 CURVE SMOOTH",
"263 546 OFFCURVE",
"268 416 OFFCURVE",
"268 330 CURVE SMOOTH"
);
},
{
closed = 1;
nodes = (
"172 46 OFFCURVE",
"178 60 OFFCURVE",
"189 78 CURVE SMOOTH",
"200 95 OFFCURVE",
"205 109 OFFCURVE",
"204 119 CURVE",
"198 299 LINE",
"184 858 LINE",
"183 865 OFFCURVE",
"182 948 OFFCURVE",
"180 1105 CURVE SMOOTH",
"177 1262 OFFCURVE",
"173 1358 OFFCURVE",
"168 1391 CURVE",
"167 1400 OFFCURVE",
"162 1417 OFFCURVE",
"153 1441 CURVE SMOOTH",
"144 1465 OFFCURVE",
"139 1484 OFFCURVE",
"139 1497 CURVE SMOOTH",
"139 1530 OFFCURVE",
"190 1546 OFFCURVE",
"293 1546 CURVE SMOOTH",
"303 1546 LINE SMOOTH",
"376 1546 OFFCURVE",
"440 1517 OFFCURVE",
"485 1475 CURVE SMOOTH",
"529 1433 OFFCURVE",
"567 1364 OFFCURVE",
"590 1301 CURVE SMOOTH",
"613 1237 OFFCURVE",
"631 1151 OFFCURVE",
"639 1089 CURVE SMOOTH",
"647 1027 OFFCURVE",
"653 942 OFFCURVE",
"654 902 CURVE SMOOTH",
"654 881 OFFCURVE",
"654 860 OFFCURVE",
"654 837 CURVE SMOOTH",
"654 672 OFFCURVE",
"609 461 OFFCURVE",
"526 284 CURVE SMOOTH",
"443 107 OFFCURVE",
"279 -4 OFFCURVE",
"247 -4 CURVE SMOOTH",
"215 -4 OFFCURVE",
"172 12 OFFCURVE",
"172 37 CURVE SMOOTH"
);
}
);
width = 820;
},
{
components = (
{
name = D;
},
{
name = dotaccent;
transform = "{1, 0, 0, 1, 0, 590}";
}
);
layerId = "156B637B-193E-48A3-AAC8-7B4A3960F885";
name = "Bold Condensed";
width = 862;
}
);
note = uni1E0A;
unicode = 1E0A;
},
{
glyphname = Dz;
lastChange = "2015-11-10 12:19:53 +0000";
layers = (
{
layerId = "27A8C2A5-6B67-4598-967C-E5EC4FB8AE70";
name = Condensed;
paths = (
{
closed = 1;
nodes = (
"983 43 OFFCURVE",
"991 83 OFFCURVE",
"1004 133 CURVE SMOOTH",
"1010 158 OFFCURVE",
"1016 181 OFFCURVE",
"1022 203 CURVE SMOOTH",
"1034 246 OFFCURVE",
"1050 305 OFFCURVE",
"1053 317 CURVE SMOOTH",
"1064 356 OFFCURVE",
"1077 413 OFFCURVE",
"1092 486 CURVE SMOOTH",
"1122 633 OFFCURVE",
"1127 662 OFFCURVE",
"1187 848 CURVE SMOOTH",
"1246 1034 OFFCURVE",
"1286 1184 OFFCURVE",
"1286 1303 CURVE",
"1265 1303 OFFCURVE",
"1233 1301 OFFCURVE",
"1190 1297 CURVE SMOOTH",
"1147 1292 OFFCURVE",
"1115 1290 OFFCURVE",
"1094 1290 CURVE SMOOTH",
"1078 1290 OFFCURVE",
"1065 1307 OFFCURVE",
"1065 1323 CURVE SMOOTH",
"1065 1335 OFFCURVE",
"1090 1344 OFFCURVE",
"1139 1349 CURVE SMOOTH",
"1188 1354 OFFCURVE",
"1239 1356 OFFCURVE",
"1292 1356 CURVE SMOOTH",
"1313 1356 OFFCURVE",
"1323 1356 OFFCURVE",
"1335 1345 CURVE",
"1340 1340 OFFCURVE",
"1343 1332 OFFCURVE",
"1343 1323 CURVE SMOOTH",
"1343 1276 OFFCURVE",
"1326 1202 OFFCURVE",
"1293 1099 CURVE SMOOTH",
"1260 996 OFFCURVE",
"1243 934 OFFCURVE",
"1243 915 CURVE",
"1236 878 OFFCURVE",
"1215 802 OFFCURVE",
"1181 688 CURVE SMOOTH",
"1112 459 OFFCURVE",
"1052 222 OFFCURVE",
"1051 63 CURVE",
"1064 60 OFFCURVE",
"1084 59 OFFCURVE",
"1110 59 CURVE SMOOTH",
"1119 59 OFFCURVE",
"1134 60 OFFCURVE",
"1153 63 CURVE",
"1172 65 OFFCURVE",
"1187 66 OFFCURVE",
"1196 66 CURVE SMOOTH",
"1235 66 OFFCURVE",
"1255 57 OFFCURVE",
"1255 39 CURVE SMOOTH",
"1255 21 OFFCURVE",
"1239 12 OFFCURVE",
"1208 12 CURVE SMOOTH",
"1195 12 OFFCURVE",
"1175 13 OFFCURVE",
"1148 15 CURVE SMOOTH",
"1121 17 OFFCURVE",
"1101 18 OFFCURVE",
"1087 18 CURVE SMOOTH",
"1072 18 OFFCURVE",
"1057 14 OFFCURVE",
"1043 7 CURVE SMOOTH",
"1028 0 OFFCURVE",
"1019 -4 OFFCURVE",
"1014 -4 CURVE SMOOTH",
"993 -4 OFFCURVE",
"983 6 OFFCURVE",
"983 27 CURVE SMOOTH"
);
},
{
closed = 1;
nodes = (
"268 100 LINE",
"278 100 LINE",
"381 155 OFFCURVE",
"462 266 OFFCURVE",
"506 378 CURVE SMOOTH",
"549 489 OFFCURVE",
"577 635 OFFCURVE",
"586 733 CURVE SMOOTH",
"590 782 OFFCURVE",
"592 829 OFFCURVE",
"592 874 CURVE SMOOTH",
"592 1273 OFFCURVE",
"482 1473 OFFCURVE",
"262 1473 CURVE SMOOTH",
"233 1473 OFFCURVE",
"219 1465 OFFCURVE",
"219 1450 CURVE SMOOTH",
"219 1411 OFFCURVE",
"222 1354 OFFCURVE",
"228 1279 CURVE SMOOTH",
"234 1204 OFFCURVE",
"237 1147 OFFCURVE",
"237 1110 CURVE SMOOTH",
"237 1022 OFFCURVE",
"242 892 OFFCURVE",
"253 719 CURVE SMOOTH",
"263 546 OFFCURVE",
"268 416 OFFCURVE",
"268 330 CURVE SMOOTH"
);
},
{
closed = 1;
nodes = (
"172 46 OFFCURVE",
"178 60 OFFCURVE",
"189 78 CURVE SMOOTH",
"200 95 OFFCURVE",
"205 109 OFFCURVE",
"204 119 CURVE",
"198 299 LINE",
"184 858 LINE",
"183 865 OFFCURVE",
"182 948 OFFCURVE",
"180 1105 CURVE SMOOTH",
"177 1262 OFFCURVE",
"173 1358 OFFCURVE",
"168 1391 CURVE",
"167 1400 OFFCURVE",
"162 1417 OFFCURVE",
"153 1441 CURVE SMOOTH",
"144 1465 OFFCURVE",
"139 1484 OFFCURVE",
"139 1497 CURVE SMOOTH",
"139 1530 OFFCURVE",
"190 1546 OFFCURVE",
"293 1546 CURVE SMOOTH",
"303 1546 LINE SMOOTH",
"376 1546 OFFCURVE",
"440 1517 OFFCURVE",
"485 1475 CURVE SMOOTH",
"529 1433 OFFCURVE",
"567 1364 OFFCURVE",
"590 1301 CURVE SMOOTH",
"613 1237 OFFCURVE",
"631 1151 OFFCURVE",
"639 1089 CURVE SMOOTH",
"647 1027 OFFCURVE",
"653 942 OFFCURVE",
"654 902 CURVE SMOOTH",
"654 881 OFFCURVE",
"654 860 OFFCURVE",
"654 837 CURVE SMOOTH",
"654 672 OFFCURVE",
"609 461 OFFCURVE",
"526 284 CURVE SMOOTH",
"443 107 OFFCURVE",
"279 -4 OFFCURVE",
"247 -4 CURVE SMOOTH",
"215 -4 OFFCURVE",
"172 12 OFFCURVE",
"172 37 CURVE SMOOTH"
);
}
);
width = 1520;
},
{
components = (
{
name = D;
},
{
name = z;
transform = "{1, 0, 0, 1, 862, 0}";
}
);
layerId = "156B637B-193E-48A3-AAC8-7B4A3960F885";
name = "Bold Condensed";
width = 1580;
}
);
note = uni01F2;
unicode = 01F2;
},
{
glyphname = Dzcaron;
lastChange = "2015-11-10 12:19:53 +0000";
layers = (
{
layerId = "27A8C2A5-6B67-4598-967C-E5EC4FB8AE70";
name = Condensed;
paths = (
{
closed = 1;
nodes = (
"983 43 OFFCURVE",
"991 83 OFFCURVE",
"1004 133 CURVE SMOOTH",
"1010 158 OFFCURVE",
"1016 181 OFFCURVE",
"1022 203 CURVE SMOOTH",
"1034 246 OFFCURVE",
"1050 305 OFFCURVE",
"1053 317 CURVE SMOOTH",
"1064 356 OFFCURVE",
"1077 413 OFFCURVE",
"1092 486 CURVE SMOOTH",
"1122 633 OFFCURVE",
"1127 662 OFFCURVE",
"1187 848 CURVE SMOOTH",
"1246 1034 OFFCURVE",
"1286 1184 OFFCURVE",
"1286 1303 CURVE",
"1265 1303 OFFCURVE",
"1233 1301 OFFCURVE",
"1190 1297 CURVE SMOOTH",
"1147 1292 OFFCURVE",
"1115 1290 OFFCURVE",
"1094 1290 CURVE SMOOTH",
"1078 1290 OFFCURVE",
"1065 1307 OFFCURVE",
"1065 1323 CURVE SMOOTH",
"1065 1335 OFFCURVE",
"1090 1344 OFFCURVE",
"1139 1349 CURVE SMOOTH",
"1188 1354 OFFCURVE",
"1239 1356 OFFCURVE",
"1292 1356 CURVE SMOOTH",
"1313 1356 OFFCURVE",
"1323 1356 OFFCURVE",
"1335 1345 CURVE",
"1340 1340 OFFCURVE",
"1343 1332 OFFCURVE",
"1343 1323 CURVE SMOOTH",
"1343 1276 OFFCURVE",
"1326 1202 OFFCURVE",
"1293 1099 CURVE SMOOTH",
"1260 996 OFFCURVE",
"1243 934 OFFCURVE",
"1243 915 CURVE",
"1236 878 OFFCURVE",
"1215 802 OFFCURVE",
"1181 688 CURVE SMOOTH",
"1112 459 OFFCURVE",
"1052 222 OFFCURVE",
"1051 63 CURVE",
"1064 60 OFFCURVE",
"1084 59 OFFCURVE",
"1110 59 CURVE SMOOTH",
"1119 59 OFFCURVE",
"1134 60 OFFCURVE",
"1153 63 CURVE",
"1172 65 OFFCURVE",
"1187 66 OFFCURVE",
"1196 66 CURVE SMOOTH",
"1235 66 OFFCURVE",
"1255 57 OFFCURVE",
"1255 39 CURVE SMOOTH",
"1255 21 OFFCURVE",
"1239 12 OFFCURVE",
"1208 12 CURVE SMOOTH",
"1195 12 OFFCURVE",
"1175 13 OFFCURVE",
"1148 15 CURVE SMOOTH",
"1121 17 OFFCURVE",
"1101 18 OFFCURVE",
"1087 18 CURVE SMOOTH",
"1072 18 OFFCURVE",
"1057 14 OFFCURVE",
"1043 7 CURVE SMOOTH",
"1028 0 OFFCURVE",
"1019 -4 OFFCURVE",
"1014 -4 CURVE SMOOTH",
"993 -4 OFFCURVE",
"983 6 OFFCURVE",
"983 27 CURVE SMOOTH"
);
},
{
closed = 1;
nodes = (
"1329 1884 LINE",
"1354 1880 OFFCURVE",
"1366 1872 OFFCURVE",
"1366 1860 CURVE SMOOTH",
"1366 1855 OFFCURVE",
"1363 1848 OFFCURVE",
"1358 1837 CURVE",
"1360 1827 LINE",
"1345 1796 LINE",
"1347 1784 LINE",
"1342 1767 OFFCURVE",
"1334 1742 OFFCURVE",
"1323 1710 CURVE SMOOTH",
"1299 1645 OFFCURVE",
"1286 1597 OFFCURVE",
"1286 1544 CURVE SMOOTH",
"1286 1515 OFFCURVE",
"1276 1501 OFFCURVE",
"1257 1501 CURVE SMOOTH",
"1216 1501 OFFCURVE",
"1088 1787 OFFCURVE",
"1085 1847 CURVE",
"1122 1874 LINE",
"1157 1827 LINE",
"1158 1814 OFFCURVE",
"1164 1790 OFFCURVE",
"1175 1757 CURVE SMOOTH",
"1196 1690 OFFCURVE",
"1240 1568 OFFCURVE",
"1243 1561 CURVE",
"1276 1683 OFFCURVE",
"1295 1785 OFFCURVE",
"1302 1868 CURVE"
);
},
{
closed = 1;
nodes = (
"268 100 LINE",
"278 100 LINE",
"381 155 OFFCURVE",
"462 266 OFFCURVE",
"506 378 CURVE SMOOTH",
"549 489 OFFCURVE",
"577 635 OFFCURVE",
"586 733 CURVE SMOOTH",
"590 782 OFFCURVE",
"592 829 OFFCURVE",
"592 874 CURVE SMOOTH",
"592 1273 OFFCURVE",
"482 1473 OFFCURVE",
"262 1473 CURVE SMOOTH",
"233 1473 OFFCURVE",
"219 1465 OFFCURVE",
"219 1450 CURVE SMOOTH",
"219 1411 OFFCURVE",
"222 1354 OFFCURVE",
"228 1279 CURVE SMOOTH",
"234 1204 OFFCURVE",
"237 1147 OFFCURVE",
"237 1110 CURVE SMOOTH",
"237 1022 OFFCURVE",
"242 892 OFFCURVE",
"253 719 CURVE SMOOTH",
"263 546 OFFCURVE",
"268 416 OFFCURVE",
"268 330 CURVE SMOOTH"
);
},
{
closed = 1;
nodes = (
"172 46 OFFCURVE",
"178 60 OFFCURVE",
"189 78 CURVE SMOOTH",
"200 95 OFFCURVE",
"205 109 OFFCURVE",
"204 119 CURVE",
"198 299 LINE",
"184 858 LINE",
"183 865 OFFCURVE",
"182 948 OFFCURVE",
"180 1105 CURVE SMOOTH",
"177 1262 OFFCURVE",
"173 1358 OFFCURVE",
"168 1391 CURVE",
"167 1400 OFFCURVE",
"162 1417 OFFCURVE",
"153 1441 CURVE SMOOTH",
"144 1465 OFFCURVE",
"139 1484 OFFCURVE",
"139 1497 CURVE SMOOTH",
"139 1530 OFFCURVE",
"190 1546 OFFCURVE",
"293 1546 CURVE SMOOTH",
"303 1546 LINE SMOOTH",
"376 1546 OFFCURVE",
"440 1517 OFFCURVE",
"485 1475 CURVE SMOOTH",
"529 1433 OFFCURVE",
"567 1364 OFFCURVE",
"590 1301 CURVE SMOOTH",
"613 1237 OFFCURVE",
"631 1151 OFFCURVE",
"639 1089 CURVE SMOOTH",
"647 1027 OFFCURVE",
"653 942 OFFCURVE",
"654 902 CURVE SMOOTH",
"654 881 OFFCURVE",
"654 860 OFFCURVE",
"654 837 CURVE SMOOTH",
"654 672 OFFCURVE",
"609 461 OFFCURVE",
"526 284 CURVE SMOOTH",
"443 107 OFFCURVE",
"279 -4 OFFCURVE",
"247 -4 CURVE SMOOTH",
"215 -4 OFFCURVE",
"172 12 OFFCURVE",
"172 37 CURVE SMOOTH"
);
}
);
width = 1520;
},
{
components = (
{
name = Dz;
},
{
name = caron;
transform = "{1, 0, 0, 1, 920, 160}";
}
);
layerId = "156B637B-193E-48A3-AAC8-7B4A3960F885";
name = "Bold Condensed";
width = 1580;
}
);
note = uni01C5;
unicode = 01C5;
},
{
glyphname = E;
lastChange = "2015-11-10 11:24:48 +0000";
layers = (
{
layerId = "27A8C2A5-6B67-4598-967C-E5EC4FB8AE70";
name = Condensed;
paths = (
{
closed = 1;
nodes = (
"192 42 OFFCURVE",
"192 54 OFFCURVE",
"192 71 CURVE",
"191 88 OFFCURVE",
"191 100 OFFCURVE",
"191 109 CURVE SMOOTH",
"191 113 LINE",
"193 412 LINE",
"191 1257 LINE",
"191 1313 OFFCURVE",
"190 1389 OFFCURVE",
"187 1485 CURVE",
"187 1517 OFFCURVE",
"200 1542 OFFCURVE",
"224 1542 CURVE SMOOTH",
"351 1542 LINE SMOOTH",
"371 1542 OFFCURVE",
"378 1542 OFFCURVE",
"393 1538 CURVE",
"408 1533 OFFCURVE",
"414 1522 OFFCURVE",
"414 1503 CURVE SMOOTH",
"414 1479 OFFCURVE",
"390 1466 OFFCURVE",
"374 1465 CURVE",
"365 1464 OFFCURVE",
"354 1464 OFFCURVE",
"340 1464 CURVE SMOOTH",
"334 1464 OFFCURVE",
"323 1465 OFFCURVE",
"307 1466 CURVE SMOOTH",
"291 1467 OFFCURVE",
"280 1468 OFFCURVE",
"274 1468 CURVE SMOOTH",
"255 1468 OFFCURVE",
"250 1465 OFFCURVE",
"250 1444 CURVE SMOOTH",
"250 1405 OFFCURVE",
"250 1347 OFFCURVE",
"251 1270 CURVE SMOOTH",
"251 1193 OFFCURVE",
"251 1135 OFFCURVE",
"251 1096 CURVE SMOOTH",
"251 840 LINE SMOOTH",
"251 837 OFFCURVE",
"252 836 OFFCURVE",
"255 836 CURVE SMOOTH",
"256 836 OFFCURVE",
"256 836 OFFCURVE",
"257 836 CURVE SMOOTH",
"258 836 OFFCURVE",
"258 836 OFFCURVE",
"259 836 CURVE",
"311 839 OFFCURVE",
"348 840 OFFCURVE",
"370 840 CURVE SMOOTH",
"393 840 OFFCURVE",
"404 830 OFFCURVE",
"404 810 CURVE SMOOTH",
"404 785 OFFCURVE",
"396 776 OFFCURVE",
"373 776 CURVE SMOOTH",
"256 776 LINE SMOOTH",
"251 776 OFFCURVE",
"248 773 OFFCURVE",
"248 766 CURVE SMOOTH",
"248 703 OFFCURVE",
"249 602 OFFCURVE",
"252 462 CURVE SMOOTH",
"255 321 OFFCURVE",
"256 213 OFFCURVE",
"256 137 CURVE SMOOTH",
"256 61 LINE",
"269 61 OFFCURVE",
"298 61 OFFCURVE",
"343 62 CURVE SMOOTH",
"388 62 OFFCURVE",
"417 62 OFFCURVE",
"430 62 CURVE SMOOTH",
"448 62 LINE SMOOTH",
"473 62 OFFCURVE",
"486 53 OFFCURVE",
"486 35 CURVE SMOOTH",
"486 14 OFFCURVE",
"480 1 OFFCURVE",
"467 -4 CURVE SMOOTH",
"454 -9 OFFCURVE",
"420 -12 OFFCURVE",
"367 -12 CURVE SMOOTH",
"280 -12 LINE SMOOTH",
"221 -12 OFFCURVE",
"192 -6 OFFCURVE",
"192 33 CURVE SMOOTH"
);
}
);
width = 620;
},
{
layerId = "156B637B-193E-48A3-AAC8-7B4A3960F885";
name = "Bold Condensed";
paths = (
{
closed = 1;
nodes = (
"541 50 LINE",
"522 13 OFFCURVE",
"468 -7 OFFCURVE",
"433 -10 CURVE SMOOTH",
"416 -11 OFFCURVE",
"393 -12 OFFCURVE",
"366 -12 CURVE SMOOTH",
"302 -12 LINE SMOOTH",
"271 -12 OFFCURVE",
"257 -11 OFFCURVE",
"234 -3 CURVE SMOOTH",
"211 5 OFFCURVE",
"200 24 OFFCURVE",
"200 55 CURVE SMOOTH",
"200 1245 LINE SMOOTH",
"200 1268 OFFCURVE",
"195 1303 OFFCURVE",
"186 1349 CURVE SMOOTH",
"177 1395 OFFCURVE",
"172 1430 OFFCURVE",
"172 1454 CURVE SMOOTH",
"172 1461 LINE",
"195 1498 OFFCURVE",
"212 1522 OFFCURVE",
"223 1533 CURVE",
"240 1533 OFFCURVE",
"265 1536 OFFCURVE",
"299 1542 CURVE SMOOTH",
"333 1548 OFFCURVE",
"358 1551 OFFCURVE",
"375 1551 CURVE SMOOTH",
"416 1551 OFFCURVE",
"469 1524 OFFCURVE",
"469 1484 CURVE SMOOTH",
"469 1443 OFFCURVE",
"438 1423 OFFCURVE",
"376 1423 CURVE SMOOTH",
"369 1423 OFFCURVE",
"360 1423 OFFCURVE",
"347 1424 CURVE SMOOTH",
"334 1425 OFFCURVE",
"324 1425 OFFCURVE",
"317 1425 CURVE SMOOTH",
"307 1425 OFFCURVE",
"300 1425 OFFCURVE",
"295 1424 CURVE",
"295 1387 OFFCURVE",
"298 1330 OFFCURVE",
"303 1255 CURVE SMOOTH",
"308 1180 OFFCURVE",
"311 1123 OFFCURVE",
"311 1086 CURVE SMOOTH",
"311 1059 OFFCURVE",
"309 1019 OFFCURVE",
"306 967 CURVE SMOOTH",
"303 914 OFFCURVE",
"301 876 OFFCURVE",
"301 852 CURVE",
"308 853 OFFCURVE",
"318 856 OFFCURVE",
"331 859 CURVE",
"356 866 OFFCURVE",
"377 870 OFFCURVE",
"397 870 CURVE SMOOTH",
"428 870 OFFCURVE",
"457 844 OFFCURVE",
"457 813 CURVE SMOOTH",
"457 780 OFFCURVE",
"435 750 OFFCURVE",
"403 750 CURVE SMOOTH",
"399 750 OFFCURVE",
"391 750 OFFCURVE",
"380 751 CURVE SMOOTH",
"368 752 OFFCURVE",
"359 752 OFFCURVE",
"352 752 CURVE SMOOTH",
"332 752 OFFCURVE",
"318 747 OFFCURVE",
"310 737 CURVE",
"310 105 LINE",
"380 109 OFFCURVE",
"418 111 OFFCURVE",
"424 111 CURVE SMOOTH",
"502 111 OFFCURVE",
"541 93 OFFCURVE",
"541 57 CURVE SMOOTH"
);
}
);
width = 718;
}
);
note = E;
unicode = 0045;
},
{
glyphname = Eacute;
lastChange = "2015-11-10 12:20:03 +0000";
layers = (
{
layerId = "27A8C2A5-6B67-4598-967C-E5EC4FB8AE70";
name = Condensed;
paths = (
{
closed = 1;
nodes = (
"201 1875 OFFCURVE",
"220 1893 OFFCURVE",
"257 1923 CURVE SMOOTH",
"294 1953 OFFCURVE",
"335 1985 OFFCURVE",
"379 2019 CURVE SMOOTH",
"422 2052 OFFCURVE",
"448 2072 OFFCURVE",
"455 2079 CURVE",
"485 2079 OFFCURVE",
"500 2068 OFFCURVE",
"500 2047 CURVE SMOOTH",
"500 2046 OFFCURVE",
"498 2036 OFFCURVE",
"494 2016 CURVE",
"425 1985 OFFCURVE",
"340 1927 OFFCURVE",
"238 1840 CURVE",
"218 1840 OFFCURVE",
"201 1851 OFFCURVE",
"201 1870 CURVE SMOOTH"
);
},
{
closed = 1;
nodes = (
"192 42 OFFCURVE",
"192 54 OFFCURVE",
"192 71 CURVE",
"191 88 OFFCURVE",
"191 100 OFFCURVE",
"191 109 CURVE SMOOTH",
"191 113 LINE",
"193 412 LINE",
"191 1257 LINE",
"191 1313 OFFCURVE",
"190 1389 OFFCURVE",
"187 1485 CURVE",
"187 1517 OFFCURVE",
"200 1542 OFFCURVE",
"224 1542 CURVE SMOOTH",
"351 1542 LINE SMOOTH",
"371 1542 OFFCURVE",
"378 1542 OFFCURVE",
"393 1538 CURVE",
"408 1533 OFFCURVE",
"414 1522 OFFCURVE",
"414 1503 CURVE SMOOTH",
"414 1479 OFFCURVE",
"390 1466 OFFCURVE",
"374 1465 CURVE",
"365 1464 OFFCURVE",
"354 1464 OFFCURVE",
"340 1464 CURVE SMOOTH",
"334 1464 OFFCURVE",
"323 1465 OFFCURVE",
"307 1466 CURVE SMOOTH",
"291 1467 OFFCURVE",
"280 1468 OFFCURVE",
"274 1468 CURVE SMOOTH",
"255 1468 OFFCURVE",
"250 1465 OFFCURVE",
"250 1444 CURVE SMOOTH",
"250 1405 OFFCURVE",
"250 1347 OFFCURVE",
"251 1270 CURVE SMOOTH",
"251 1193 OFFCURVE",
"251 1135 OFFCURVE",
"251 1096 CURVE SMOOTH",
"251 840 LINE SMOOTH",
"251 837 OFFCURVE",
"252 836 OFFCURVE",
"255 836 CURVE SMOOTH",
"256 836 OFFCURVE",
"256 836 OFFCURVE",
"257 836 CURVE SMOOTH",
"258 836 OFFCURVE",
"258 836 OFFCURVE",
"259 836 CURVE",
"311 839 OFFCURVE",
"348 840 OFFCURVE",
"370 840 CURVE SMOOTH",
"393 840 OFFCURVE",
"404 830 OFFCURVE",
"404 810 CURVE SMOOTH",
"404 785 OFFCURVE",
"396 776 OFFCURVE",
"373 776 CURVE SMOOTH",
"256 776 LINE SMOOTH",
"251 776 OFFCURVE",
"248 773 OFFCURVE",
"248 766 CURVE SMOOTH",
"248 703 OFFCURVE",
"249 602 OFFCURVE",
"252 462 CURVE SMOOTH",
"255 321 OFFCURVE",
"256 213 OFFCURVE",
"256 137 CURVE SMOOTH",
"256 61 LINE",
"269 61 OFFCURVE",
"298 61 OFFCURVE",
"343 62 CURVE SMOOTH",
"388 62 OFFCURVE",
"417 62 OFFCURVE",
"430 62 CURVE SMOOTH",
"448 62 LINE SMOOTH",
"473 62 OFFCURVE",
"486 53 OFFCURVE",
"486 35 CURVE SMOOTH",
"486 14 OFFCURVE",
"480 1 OFFCURVE",
"467 -4 CURVE SMOOTH",
"454 -9 OFFCURVE",
"420 -12 OFFCURVE",
"367 -12 CURVE SMOOTH",
"280 -12 LINE SMOOTH",
"221 -12 OFFCURVE",
"192 -6 OFFCURVE",
"192 33 CURVE SMOOTH"
);
}
);
width = 620;
},
{
layerId = "156B637B-193E-48A3-AAC8-7B4A3960F885";
name = "Bold Condensed";
paths = (
{
closed = 1;
nodes = (
"255 1745 OFFCURVE",
"304 1788 OFFCURVE",
"371 1845 CURVE SMOOTH",
"438 1902 OFFCURVE",
"478 1937 OFFCURVE",
"492 1950 CURVE",
"500 1953 OFFCURVE",
"506 1954 OFFCURVE",
"509 1954 CURVE SMOOTH",
"542 1954 OFFCURVE",
"576 1912 OFFCURVE",
"576 1877 CURVE SMOOTH",
"576 1863 OFFCURVE",
"571 1852 OFFCURVE",
"561 1845 CURVE SMOOTH",
"509 1807 OFFCURVE",
"410 1749 OFFCURVE",
"263 1672 CURVE",
"258 1669 OFFCURVE",
"252 1668 OFFCURVE",
"246 1668 CURVE SMOOTH",
"229 1668 OFFCURVE",
"213 1680 OFFCURVE",
"213 1695 CURVE SMOOTH",
"213 1702 OFFCURVE",
"217 1709 OFFCURVE",
"224 1716 CURVE SMOOTH"
);
},
{
closed = 1;
nodes = (
"541 50 LINE",
"522 13 OFFCURVE",
"468 -7 OFFCURVE",
"433 -10 CURVE SMOOTH",
"416 -11 OFFCURVE",
"393 -12 OFFCURVE",
"366 -12 CURVE SMOOTH",
"302 -12 LINE SMOOTH",
"271 -12 OFFCURVE",
"257 -11 OFFCURVE",
"234 -3 CURVE SMOOTH",
"211 5 OFFCURVE",
"200 24 OFFCURVE",
"200 55 CURVE SMOOTH",
"200 1245 LINE SMOOTH",
"200 1268 OFFCURVE",
"195 1303 OFFCURVE",
"186 1349 CURVE SMOOTH",
"177 1395 OFFCURVE",
"172 1430 OFFCURVE",
"172 1454 CURVE SMOOTH",
"172 1461 LINE",
"195 1498 OFFCURVE",
"212 1522 OFFCURVE",
"223 1533 CURVE",
"240 1533 OFFCURVE",
"265 1536 OFFCURVE",
"299 1542 CURVE SMOOTH",
"333 1548 OFFCURVE",
"358 1551 OFFCURVE",
"375 1551 CURVE SMOOTH",
"416 1551 OFFCURVE",
"469 1524 OFFCURVE",
"469 1484 CURVE SMOOTH",
"469 1443 OFFCURVE",
"438 1423 OFFCURVE",
"376 1423 CURVE SMOOTH",
"369 1423 OFFCURVE",
"360 1423 OFFCURVE",
"347 1424 CURVE SMOOTH",
"334 1425 OFFCURVE",
"324 1425 OFFCURVE",
"317 1425 CURVE SMOOTH",
"307 1425 OFFCURVE",
"300 1425 OFFCURVE",
"295 1424 CURVE",
"295 1387 OFFCURVE",
"298 1330 OFFCURVE",
"303 1255 CURVE SMOOTH",
"308 1180 OFFCURVE",
"311 1123 OFFCURVE",
"311 1086 CURVE SMOOTH",
"311 1059 OFFCURVE",
"309 1019 OFFCURVE",
"306 967 CURVE SMOOTH",
"303 914 OFFCURVE",
"301 876 OFFCURVE",
"301 852 CURVE",
"308 853 OFFCURVE",
"318 856 OFFCURVE",
"331 859 CURVE",
"356 866 OFFCURVE",
"377 870 OFFCURVE",
"397 870 CURVE SMOOTH",
"428 870 OFFCURVE",
"457 844 OFFCURVE",
"457 813 CURVE SMOOTH",
"457 780 OFFCURVE",
"435 750 OFFCURVE",
"403 750 CURVE SMOOTH",
"399 750 OFFCURVE",
"391 750 OFFCURVE",
"380 751 CURVE SMOOTH",
"368 752 OFFCURVE",
"359 752 OFFCURVE",
"352 752 CURVE SMOOTH",
"332 752 OFFCURVE",
"318 747 OFFCURVE",
"310 737 CURVE",
"310 105 LINE",
"380 109 OFFCURVE",
"418 111 OFFCURVE",
"424 111 CURVE SMOOTH",
"502 111 OFFCURVE",
"541 93 OFFCURVE",
"541 57 CURVE SMOOTH"
);
}
);
width = 718;
}
);
note = Eacute;
unicode = 00C9;
},
{
glyphname = Ebreve;
lastChange = "2015-11-10 11:24:47 +0000";
layers = (
{
layerId = "27A8C2A5-6B67-4598-967C-E5EC4FB8AE70";
name = Condensed;
paths = (
{
closed = 1;
nodes = (
"223 1959 LINE",
"232 1958 OFFCURVE",
"239 1948 OFFCURVE",
"243 1927 CURVE SMOOTH",
"250 1886 OFFCURVE",
"262 1819 OFFCURVE",
"295 1795 CURVE SMOOTH",
"317 1779 LINE",
"368 1779 LINE SMOOTH",
"404 1779 OFFCURVE",
"438 1844 OFFCURVE",
"438 1883 CURVE SMOOTH",
"438 1886 OFFCURVE",
"438 1891 OFFCURVE",
"437 1898 CURVE SMOOTH",
"436 1904 OFFCURVE",
"436 1909 OFFCURVE",
"436 1912 CURVE SMOOTH",
"436 1938 OFFCURVE",
"448 1951 OFFCURVE",
"473 1951 CURVE SMOOTH",
"488 1951 OFFCURVE",
"504 1938 OFFCURVE",
"504 1922 CURVE SMOOTH",
"504 1919 OFFCURVE",
"502 1913 OFFCURVE",
"499 1905 CURVE SMOOTH",
"496 1897 OFFCURVE",
"494 1892 OFFCURVE",
"493 1890 CURVE",
"498 1875 LINE",
"495 1868 OFFCURVE",
"489 1857 OFFCURVE",
"482 1840 CURVE SMOOTH",
"467 1806 OFFCURVE",
"465 1800 OFFCURVE",
"449 1777 CURVE SMOOTH",
"433 1753 OFFCURVE",
"420 1747 OFFCURVE",
"394 1739 CURVE",
"381 1734 OFFCURVE",
"366 1732 OFFCURVE",
"350 1732 CURVE SMOOTH",
"295 1732 OFFCURVE",
"253 1759 OFFCURVE",
"232 1802 CURVE SMOOTH",
"211 1845 OFFCURVE",
"201 1890 OFFCURVE",
"201 1941 CURVE"
);
},
{
closed = 1;
nodes = (
"192 42 OFFCURVE",
"192 54 OFFCURVE",
"192 71 CURVE",
"191 88 OFFCURVE",
"191 100 OFFCURVE",
"191 109 CURVE SMOOTH",
"191 113 LINE",
"193 412 LINE",
"191 1257 LINE",
"191 1313 OFFCURVE",
"190 1389 OFFCURVE",
"187 1485 CURVE",
"187 1517 OFFCURVE",
"200 1542 OFFCURVE",
"224 1542 CURVE SMOOTH",
"351 1542 LINE SMOOTH",
"371 1542 OFFCURVE",
"378 1542 OFFCURVE",
"393 1538 CURVE",
"408 1533 OFFCURVE",
"414 1522 OFFCURVE",
"414 1503 CURVE SMOOTH",
"414 1479 OFFCURVE",
"390 1466 OFFCURVE",
"374 1465 CURVE",
"365 1464 OFFCURVE",
"354 1464 OFFCURVE",
"340 1464 CURVE SMOOTH",
"334 1464 OFFCURVE",
"323 1465 OFFCURVE",
"307 1466 CURVE SMOOTH",
"291 1467 OFFCURVE",
"280 1468 OFFCURVE",
"274 1468 CURVE SMOOTH",
"255 1468 OFFCURVE",
"250 1465 OFFCURVE",
"250 1444 CURVE SMOOTH",
"250 1405 OFFCURVE",
"250 1347 OFFCURVE",
"251 1270 CURVE SMOOTH",
"251 1193 OFFCURVE",
"251 1135 OFFCURVE",
"251 1096 CURVE SMOOTH",
"251 840 LINE SMOOTH",
"251 837 OFFCURVE",
"252 836 OFFCURVE",
"255 836 CURVE SMOOTH",
"256 836 OFFCURVE",
"256 836 OFFCURVE",
"257 836 CURVE SMOOTH",
"258 836 OFFCURVE",
"258 836 OFFCURVE",
"259 836 CURVE",
"311 839 OFFCURVE",
"348 840 OFFCURVE",
"370 840 CURVE SMOOTH",
"393 840 OFFCURVE",
"404 830 OFFCURVE",
"404 810 CURVE SMOOTH",
"404 785 OFFCURVE",
"396 776 OFFCURVE",
"373 776 CURVE SMOOTH",
"256 776 LINE SMOOTH",
"251 776 OFFCURVE",
"248 773 OFFCURVE",
"248 766 CURVE SMOOTH",
"248 703 OFFCURVE",
"249 602 OFFCURVE",
"252 462 CURVE SMOOTH",
"255 321 OFFCURVE",
"256 213 OFFCURVE",
"256 137 CURVE SMOOTH",
"256 61 LINE",
"269 61 OFFCURVE",
"298 61 OFFCURVE",
"343 62 CURVE SMOOTH",
"388 62 OFFCURVE",
"417 62 OFFCURVE",
"430 62 CURVE SMOOTH",
"448 62 LINE SMOOTH",
"473 62 OFFCURVE",
"486 53 OFFCURVE",
"486 35 CURVE SMOOTH",
"486 14 OFFCURVE",
"480 1 OFFCURVE",
"467 -4 CURVE SMOOTH",
"454 -9 OFFCURVE",
"420 -12 OFFCURVE",
"367 -12 CURVE SMOOTH",
"280 -12 LINE SMOOTH",
"221 -12 OFFCURVE",
"192 -6 OFFCURVE",
"192 33 CURVE SMOOTH"
);
}
);
width = 620;
},
{
layerId = "156B637B-193E-48A3-AAC8-7B4A3960F885";
name = "Bold Condensed";
paths = (
{
closed = 1;
nodes = (
"490 1777 OFFCURVE",
"437 1704 OFFCURVE",
"338 1704 CURVE SMOOTH",
"274 1704 OFFCURVE",
"226 1736 OFFCURVE",
"201 1785 CURVE SMOOTH",
"176 1833 OFFCURVE",
"165 1887 OFFCURVE",
"165 1947 CURVE SMOOTH",
"165 1964 OFFCURVE",
"180 1979 OFFCURVE",
"203 1979 CURVE SMOOTH",
"235 1979 OFFCURVE",
"261 1934 OFFCURVE",
"274 1889 CURVE SMOOTH",
"286 1844 OFFCURVE",
"307 1799 OFFCURVE",
"332 1799 CURVE SMOOTH",
"381 1799 OFFCURVE",
"402 1856 OFFCURVE",
"402 1893 CURVE SMOOTH",
"402 1944 OFFCURVE",
"413 1970 OFFCURVE",
"460 1970 CURVE SMOOTH",
"488 1970 OFFCURVE",
"514 1946 OFFCURVE",
"514 1918 CURVE SMOOTH",
"514 1897 OFFCURVE",
"513 1880 OFFCURVE",
"510 1868 CURVE SMOOTH"
);
},
{
closed = 1;
nodes = (
"541 50 LINE",
"522 13 OFFCURVE",
"468 -7 OFFCURVE",
"433 -10 CURVE SMOOTH",
"416 -11 OFFCURVE",
"393 -12 OFFCURVE",
"366 -12 CURVE SMOOTH",
"302 -12 LINE SMOOTH",
"271 -12 OFFCURVE",
"257 -11 OFFCURVE",
"234 -3 CURVE SMOOTH",
"211 5 OFFCURVE",
"200 24 OFFCURVE",
"200 55 CURVE SMOOTH",
"200 1245 LINE SMOOTH",
"200 1268 OFFCURVE",
"195 1303 OFFCURVE",
"186 1349 CURVE SMOOTH",
"177 1395 OFFCURVE",
"172 1430 OFFCURVE",
"172 1454 CURVE SMOOTH",
"172 1461 LINE",
"195 1498 OFFCURVE",
"212 1522 OFFCURVE",
"223 1533 CURVE",
"240 1533 OFFCURVE",
"265 1536 OFFCURVE",
"299 1542 CURVE SMOOTH",
"333 1548 OFFCURVE",
"358 1551 OFFCURVE",
"375 1551 CURVE SMOOTH",
"416 1551 OFFCURVE",
"469 1524 OFFCURVE",
"469 1484 CURVE SMOOTH",
"469 1443 OFFCURVE",
"438 1423 OFFCURVE",
"376 1423 CURVE SMOOTH",
"369 1423 OFFCURVE",
"360 1423 OFFCURVE",
"347 1424 CURVE SMOOTH",
"334 1425 OFFCURVE",
"324 1425 OFFCURVE",
"317 1425 CURVE SMOOTH",
"307 1425 OFFCURVE",
"300 1425 OFFCURVE",
"295 1424 CURVE",
"295 1387 OFFCURVE",
"298 1330 OFFCURVE",
"303 1255 CURVE SMOOTH",
"308 1180 OFFCURVE",
"311 1123 OFFCURVE",
"311 1086 CURVE SMOOTH",
"311 1059 OFFCURVE",
"309 1019 OFFCURVE",
"306 967 CURVE SMOOTH",
"303 914 OFFCURVE",
"301 876 OFFCURVE",
"301 852 CURVE",
"308 853 OFFCURVE",
"318 856 OFFCURVE",
"331 859 CURVE",
"356 866 OFFCURVE",
"377 870 OFFCURVE",
"397 870 CURVE SMOOTH",
"428 870 OFFCURVE",
"457 844 OFFCURVE",
"457 813 CURVE SMOOTH",
"457 780 OFFCURVE",
"435 750 OFFCURVE",
"403 750 CURVE SMOOTH",
"399 750 OFFCURVE",
"391 750 OFFCURVE",
"380 751 CURVE SMOOTH",
"368 752 OFFCURVE",
"359 752 OFFCURVE",
"352 752 CURVE SMOOTH",
"332 752 OFFCURVE",
"318 747 OFFCURVE",
"310 737 CURVE",
"310 105 LINE",
"380 109 OFFCURVE",
"418 111 OFFCURVE",
"424 111 CURVE SMOOTH",
"502 111 OFFCURVE",
"541 93 OFFCURVE",
"541 57 CURVE SMOOTH"
);
}
);
width = 718;
}
);
note = Ebreve;
unicode = 0114;
},
{
glyphname = Ecaron;
lastChange = "2015-11-10 11:24:48 +0000";
layers = (
{
layerId = "27A8C2A5-6B67-4598-967C-E5EC4FB8AE70";
name = Condensed;
paths = (
{
closed = 1;
nodes = (
"419 2064 LINE",
"444 2060 OFFCURVE",
"456 2052 OFFCURVE",
"456 2040 CURVE SMOOTH",
"456 2035 OFFCURVE",
"453 2028 OFFCURVE",
"448 2017 CURVE",
"450 2007 LINE",
"435 1976 LINE",
"437 1964 LINE",
"432 1947 OFFCURVE",
"424 1922 OFFCURVE",
"413 1890 CURVE SMOOTH",
"389 1825 OFFCURVE",
"376 1777 OFFCURVE",
"376 1724 CURVE SMOOTH",
"376 1695 OFFCURVE",
"366 1681 OFFCURVE",
"347 1681 CURVE SMOOTH",
"306 1681 OFFCURVE",
"178 1967 OFFCURVE",
"175 2027 CURVE",
"212 2054 LINE",
"247 2007 LINE",
"248 1994 OFFCURVE",
"254 1970 OFFCURVE",
"265 1937 CURVE SMOOTH",
"286 1870 OFFCURVE",
"330 1748 OFFCURVE",
"333 1741 CURVE",
"366 1863 OFFCURVE",
"385 1965 OFFCURVE",
"392 2048 CURVE"
);
},
{
closed = 1;
nodes = (
"192 42 OFFCURVE",
"192 54 OFFCURVE",
"192 71 CURVE",
"191 88 OFFCURVE",
"191 100 OFFCURVE",
"191 109 CURVE SMOOTH",
"191 113 LINE",
"193 412 LINE",
"191 1257 LINE",
"191 1313 OFFCURVE",
"190 1389 OFFCURVE",
"187 1485 CURVE",
"187 1517 OFFCURVE",
"200 1542 OFFCURVE",
"224 1542 CURVE SMOOTH",
"351 1542 LINE SMOOTH",
"371 1542 OFFCURVE",
"378 1542 OFFCURVE",
"393 1538 CURVE",
"408 1533 OFFCURVE",
"414 1522 OFFCURVE",
"414 1503 CURVE SMOOTH",
"414 1479 OFFCURVE",
"390 1466 OFFCURVE",
"374 1465 CURVE",
"365 1464 OFFCURVE",
"354 1464 OFFCURVE",
"340 1464 CURVE SMOOTH",
"334 1464 OFFCURVE",
"323 1465 OFFCURVE",
"307 1466 CURVE SMOOTH",
"291 1467 OFFCURVE",
"280 1468 OFFCURVE",
"274 1468 CURVE SMOOTH",
"255 1468 OFFCURVE",
"250 1465 OFFCURVE",
"250 1444 CURVE SMOOTH",
"250 1405 OFFCURVE",
"250 1347 OFFCURVE",
"251 1270 CURVE SMOOTH",
"251 1193 OFFCURVE",
"251 1135 OFFCURVE",
"251 1096 CURVE SMOOTH",
"251 840 LINE SMOOTH",
"251 837 OFFCURVE",
"252 836 OFFCURVE",
"255 836 CURVE SMOOTH",
"256 836 OFFCURVE",
"256 836 OFFCURVE",
"257 836 CURVE SMOOTH",
"258 836 OFFCURVE",
"258 836 OFFCURVE",
"259 836 CURVE",
"311 839 OFFCURVE",
"348 840 OFFCURVE",
"370 840 CURVE SMOOTH",
"393 840 OFFCURVE",
"404 830 OFFCURVE",
"404 810 CURVE SMOOTH",
"404 785 OFFCURVE",
"396 776 OFFCURVE",
"373 776 CURVE SMOOTH",
"256 776 LINE SMOOTH",
"251 776 OFFCURVE",
"248 773 OFFCURVE",
"248 766 CURVE SMOOTH",
"248 703 OFFCURVE",
"249 602 OFFCURVE",
"252 462 CURVE SMOOTH",
"255 321 OFFCURVE",
"256 213 OFFCURVE",
"256 137 CURVE SMOOTH",
"256 61 LINE",
"269 61 OFFCURVE",
"298 61 OFFCURVE",
"343 62 CURVE SMOOTH",
"388 62 OFFCURVE",
"417 62 OFFCURVE",
"430 62 CURVE SMOOTH",
"448 62 LINE SMOOTH",
"473 62 OFFCURVE",
"486 53 OFFCURVE",
"486 35 CURVE SMOOTH",
"486 14 OFFCURVE",
"480 1 OFFCURVE",
"467 -4 CURVE SMOOTH",
"454 -9 OFFCURVE",
"420 -12 OFFCURVE",
"367 -12 CURVE SMOOTH",
"280 -12 LINE SMOOTH",
"221 -12 OFFCURVE",
"192 -6 OFFCURVE",
"192 33 CURVE SMOOTH"
);
}
);
width = 620;
},
{
layerId = "156B637B-193E-48A3-AAC8-7B4A3960F885";
name = "Bold Condensed";
paths = (
{
closed = 1;
nodes = (
"155 2074 OFFCURVE",
"179 2092 OFFCURVE",
"204 2092 CURVE SMOOTH",
"220 2092 OFFCURVE",
"237 2073 OFFCURVE",
"254 2034 CURVE SMOOTH",
"271 1995 OFFCURVE",
"288 1944 OFFCURVE",
"306 1881 CURVE SMOOTH",
"332 1787 LINE",
"335 1802 OFFCURVE",
"338 1825 OFFCURVE",
"341 1856 CURVE SMOOTH",
"348 1919 OFFCURVE",
"353 1964 OFFCURVE",
"365 2016 CURVE SMOOTH",
"376 2068 OFFCURVE",
"395 2099 OFFCURVE",
"422 2099 CURVE SMOOTH",
"446 2099 OFFCURVE",
"465 2083 OFFCURVE",
"465 2056 CURVE SMOOTH",
"465 2052 OFFCURVE",
"463 2047 OFFCURVE",
"458 2040 CURVE SMOOTH",
"453 2033 OFFCURVE",
"451 2028 OFFCURVE",
"450 2025 CURVE",
"450 1988 LINE",
"421 1876 LINE SMOOTH",
"402 1801 OFFCURVE",
"392 1753 OFFCURVE",
"392 1730 CURVE SMOOTH",
"392 1686 OFFCURVE",
"375 1664 OFFCURVE",
"340 1664 CURVE SMOOTH",
"287 1664 OFFCURVE",
"155 1977 OFFCURVE",
"155 2053 CURVE SMOOTH"
);
},
{
closed = 1;
nodes = (
"541 50 LINE",
"522 13 OFFCURVE",
"468 -7 OFFCURVE",
"433 -10 CURVE SMOOTH",
"416 -11 OFFCURVE",
"393 -12 OFFCURVE",
"366 -12 CURVE SMOOTH",
"302 -12 LINE SMOOTH",
"271 -12 OFFCURVE",
"257 -11 OFFCURVE",
"234 -3 CURVE SMOOTH",
"211 5 OFFCURVE",
"200 24 OFFCURVE",
"200 55 CURVE SMOOTH",
"200 1245 LINE SMOOTH",
"200 1268 OFFCURVE",
"195 1303 OFFCURVE",
"186 1349 CURVE SMOOTH",
"177 1395 OFFCURVE",
"172 1430 OFFCURVE",
"172 1454 CURVE SMOOTH",
"172 1461 LINE",
"195 1498 OFFCURVE",
"212 1522 OFFCURVE",
"223 1533 CURVE",
"240 1533 OFFCURVE",
"265 1536 OFFCURVE",
"299 1542 CURVE SMOOTH",
"333 1548 OFFCURVE",
"358 1551 OFFCURVE",
"375 1551 CURVE SMOOTH",
"416 1551 OFFCURVE",
"469 1524 OFFCURVE",
"469 1484 CURVE SMOOTH",
"469 1443 OFFCURVE",
"438 1423 OFFCURVE",
"376 1423 CURVE SMOOTH",
"369 1423 OFFCURVE",
"360 1423 OFFCURVE",
"347 1424 CURVE SMOOTH",
"334 1425 OFFCURVE",
"324 1425 OFFCURVE",
"317 1425 CURVE SMOOTH",
"307 1425 OFFCURVE",
"300 1425 OFFCURVE",
"295 1424 CURVE",
"295 1387 OFFCURVE",
"298 1330 OFFCURVE",
"303 1255 CURVE SMOOTH",
"308 1180 OFFCURVE",
"311 1123 OFFCURVE",
"311 1086 CURVE SMOOTH",
"311 1059 OFFCURVE",
"309 1019 OFFCURVE",
"306 967 CURVE SMOOTH",
"303 914 OFFCURVE",
"301 876 OFFCURVE",
"301 852 CURVE",
"308 853 OFFCURVE",
"318 856 OFFCURVE",
"331 859 CURVE",
"356 866 OFFCURVE",
"377 870 OFFCURVE",
"397 870 CURVE SMOOTH",
"428 870 OFFCURVE",
"457 844 OFFCURVE",
"457 813 CURVE SMOOTH",
"457 780 OFFCURVE",
"435 750 OFFCURVE",
"403 750 CURVE SMOOTH",
"399 750 OFFCURVE",
"391 750 OFFCURVE",
"380 751 CURVE SMOOTH",
"368 752 OFFCURVE",
"359 752 OFFCURVE",
"352 752 CURVE SMOOTH",
"332 752 OFFCURVE",
"318 747 OFFCURVE",
"310 737 CURVE",
"310 105 LINE",
"380 109 OFFCURVE",
"418 111 OFFCURVE",
"424 111 CURVE SMOOTH",
"502 111 OFFCURVE",
"541 93 OFFCURVE",
"541 57 CURVE SMOOTH"
);
}
);
width = 718;
}
);
note = Ecaron;
unicode = 011A;
},
{
glyphname = Ecedilla;
lastChange = "2015-11-10 12:19:53 +0000";
layers = (
{
layerId = "27A8C2A5-6B67-4598-967C-E5EC4FB8AE70";
name = Condensed;
paths = (
{
closed = 1;
nodes = (
"398 -178 OFFCURVE",
"389 -179 OFFCURVE",
"377 -181 CURVE",
"364 -184 OFFCURVE",
"355 -185 OFFCURVE",
"349 -185 CURVE SMOOTH",
"328 -185 OFFCURVE",
"310 -171 OFFCURVE",
"293 -144 CURVE",
"304 -118 OFFCURVE",
"310 -79 OFFCURVE",
"310 -27 CURVE SMOOTH",
"310 -4 LINE",
"369 4 LINE",
"364 -27 OFFCURVE",
"361 -62 OFFCURVE",
"361 -99 CURVE",
"460 -106 OFFCURVE",
"510 -174 OFFCURVE",
"510 -305 CURVE SMOOTH",
"510 -369 OFFCURVE",
"438 -467 OFFCURVE",
"355 -467 CURVE SMOOTH",
"316 -467 OFFCURVE",
"267 -447 OFFCURVE",
"267 -412 CURVE SMOOTH",
"267 -398 OFFCURVE",
"274 -391 OFFCURVE",
"289 -391 CURVE SMOOTH",
"297 -391 OFFCURVE",
"308 -394 OFFCURVE",
"322 -401 CURVE SMOOTH",
"336 -408 OFFCURVE",
"347 -412 OFFCURVE",
"355 -412 CURVE SMOOTH",
"403 -412 OFFCURVE",
"435 -342 OFFCURVE",
"435 -269 CURVE SMOOTH",
"435 -224 OFFCURVE",
"425 -194 OFFCURVE",
"404 -178 CURVE"
);
},
{
closed = 1;
nodes = (
"192 42 OFFCURVE",
"192 54 OFFCURVE",
"192 71 CURVE",
"191 88 OFFCURVE",
"191 100 OFFCURVE",
"191 109 CURVE SMOOTH",
"191 113 LINE",
"193 412 LINE",
"191 1257 LINE",
"191 1313 OFFCURVE",
"190 1389 OFFCURVE",
"187 1485 CURVE",
"187 1517 OFFCURVE",
"200 1542 OFFCURVE",
"224 1542 CURVE SMOOTH",
"351 1542 LINE SMOOTH",
"371 1542 OFFCURVE",
"378 1542 OFFCURVE",
"393 1538 CURVE",
"408 1533 OFFCURVE",
"414 1522 OFFCURVE",
"414 1503 CURVE SMOOTH",
"414 1479 OFFCURVE",
"390 1466 OFFCURVE",
"374 1465 CURVE",
"365 1464 OFFCURVE",
"354 1464 OFFCURVE",
"340 1464 CURVE SMOOTH",
"334 1464 OFFCURVE",
"323 1465 OFFCURVE",
"307 1466 CURVE SMOOTH",
"291 1467 OFFCURVE",
"280 1468 OFFCURVE",
"274 1468 CURVE SMOOTH",
"255 1468 OFFCURVE",
"250 1465 OFFCURVE",
"250 1444 CURVE SMOOTH",
"250 1405 OFFCURVE",
"250 1347 OFFCURVE",
"251 1270 CURVE SMOOTH",
"251 1193 OFFCURVE",
"251 1135 OFFCURVE",
"251 1096 CURVE SMOOTH",
"251 840 LINE SMOOTH",
"251 837 OFFCURVE",
"252 836 OFFCURVE",
"255 836 CURVE SMOOTH",
"256 836 OFFCURVE",
"256 836 OFFCURVE",
"257 836 CURVE SMOOTH",
"258 836 OFFCURVE",
"258 836 OFFCURVE",
"259 836 CURVE",
"311 839 OFFCURVE",
"348 840 OFFCURVE",
"370 840 CURVE SMOOTH",
"393 840 OFFCURVE",
"404 830 OFFCURVE",
"404 810 CURVE SMOOTH",
"404 785 OFFCURVE",
"396 776 OFFCURVE",
"373 776 CURVE SMOOTH",
"256 776 LINE SMOOTH",
"251 776 OFFCURVE",
"248 773 OFFCURVE",
"248 766 CURVE SMOOTH",
"248 703 OFFCURVE",
"249 602 OFFCURVE",
"252 462 CURVE SMOOTH",
"255 321 OFFCURVE",
"256 213 OFFCURVE",
"256 137 CURVE SMOOTH",
"256 61 LINE",
"269 61 OFFCURVE",
"298 61 OFFCURVE",
"343 62 CURVE SMOOTH",
"388 62 OFFCURVE",
"417 62 OFFCURVE",
"430 62 CURVE SMOOTH",
"448 62 LINE SMOOTH",
"473 62 OFFCURVE",
"486 53 OFFCURVE",
"486 35 CURVE SMOOTH",
"486 14 OFFCURVE",
"480 1 OFFCURVE",
"467 -4 CURVE SMOOTH",
"454 -9 OFFCURVE",
"420 -12 OFFCURVE",
"367 -12 CURVE SMOOTH",
"280 -12 LINE SMOOTH",
"221 -12 OFFCURVE",
"192 -6 OFFCURVE",
"192 33 CURVE SMOOTH"
);
}
);
width = 620;
},
{
components = (
{
name = E;
},
{
name = cedilla;
}
);
layerId = "156B637B-193E-48A3-AAC8-7B4A3960F885";
name = "Bold Condensed";
width = 718;
}
);
note = uni0228;
unicode = 0228;
},
{
glyphname = Ecircumflex;
lastChange = "2015-11-10 11:24:47 +0000";
layers = (
{
layerId = "27A8C2A5-6B67-4598-967C-E5EC4FB8AE70";
name = Condensed;
paths = (
{
closed = 1;
nodes = (
"402 1698 LINE",
"395 1781 OFFCURVE",
"376 1883 OFFCURVE",
"343 2005 CURVE",
"340 1998 OFFCURVE",
"296 1876 OFFCURVE",
"275 1809 CURVE SMOOTH",
"264 1776 OFFCURVE",
"258 1752 OFFCURVE",
"257 1739 CURVE",
"222 1692 LINE",
"185 1718 LINE",
"188 1778 OFFCURVE",
"316 2064 OFFCURVE",
"357 2064 CURVE SMOOTH",
"376 2064 OFFCURVE",
"386 2050 OFFCURVE",
"386 2021 CURVE SMOOTH",
"386 1968 OFFCURVE",
"399 1920 OFFCURVE",
"423 1856 CURVE SMOOTH",
"434 1824 OFFCURVE",
"442 1799 OFFCURVE",
"447 1782 CURVE",
"445 1769 LINE",
"460 1739 LINE",
"458 1728 LINE",
"463 1717 OFFCURVE",
"466 1710 OFFCURVE",
"466 1706 CURVE SMOOTH",
"466 1693 OFFCURVE",
"454 1685 OFFCURVE",
"429 1681 CURVE"
);
},
{
closed = 1;
nodes = (
"192 42 OFFCURVE",
"192 54 OFFCURVE",
"192 71 CURVE",
"191 88 OFFCURVE",
"191 100 OFFCURVE",
"191 109 CURVE SMOOTH",
"191 113 LINE",
"193 412 LINE",
"191 1257 LINE",
"191 1313 OFFCURVE",
"190 1389 OFFCURVE",
"187 1485 CURVE",
"187 1517 OFFCURVE",
"200 1542 OFFCURVE",
"224 1542 CURVE SMOOTH",
"351 1542 LINE SMOOTH",
"371 1542 OFFCURVE",
"378 1542 OFFCURVE",
"393 1538 CURVE",
"408 1533 OFFCURVE",
"414 1522 OFFCURVE",
"414 1503 CURVE SMOOTH",
"414 1479 OFFCURVE",
"390 1466 OFFCURVE",
"374 1465 CURVE",
"365 1464 OFFCURVE",
"354 1464 OFFCURVE",
"340 1464 CURVE SMOOTH",
"334 1464 OFFCURVE",
"323 1465 OFFCURVE",
"307 1466 CURVE SMOOTH",
"291 1467 OFFCURVE",
"280 1468 OFFCURVE",
"274 1468 CURVE SMOOTH",
"255 1468 OFFCURVE",
"250 1465 OFFCURVE",
"250 1444 CURVE SMOOTH",
"250 1405 OFFCURVE",
"250 1347 OFFCURVE",
"251 1270 CURVE SMOOTH",
"251 1193 OFFCURVE",
"251 1135 OFFCURVE",
"251 1096 CURVE SMOOTH",
"251 840 LINE SMOOTH",
"251 837 OFFCURVE",
"252 836 OFFCURVE",
"255 836 CURVE SMOOTH",
"256 836 OFFCURVE",
"256 836 OFFCURVE",
"257 836 CURVE SMOOTH",
"258 836 OFFCURVE",
"258 836 OFFCURVE",
"259 836 CURVE",
"311 839 OFFCURVE",
"348 840 OFFCURVE",
"370 840 CURVE SMOOTH",
"393 840 OFFCURVE",
"404 830 OFFCURVE",
"404 810 CURVE SMOOTH",
"404 785 OFFCURVE",
"396 776 OFFCURVE",
"373 776 CURVE SMOOTH",
"256 776 LINE SMOOTH",
"251 776 OFFCURVE",
"248 773 OFFCURVE",
"248 766 CURVE SMOOTH",
"248 703 OFFCURVE",
"249 602 OFFCURVE",
"252 462 CURVE SMOOTH",
"255 321 OFFCURVE",
"256 213 OFFCURVE",
"256 137 CURVE SMOOTH",
"256 61 LINE",
"269 61 OFFCURVE",
"298 61 OFFCURVE",
"343 62 CURVE SMOOTH",
"388 62 OFFCURVE",
"417 62 OFFCURVE",
"430 62 CURVE SMOOTH",
"448 62 LINE SMOOTH",
"473 62 OFFCURVE",
"486 53 OFFCURVE",
"486 35 CURVE SMOOTH",
"486 14 OFFCURVE",
"480 1 OFFCURVE",
"467 -4 CURVE SMOOTH",
"454 -9 OFFCURVE",
"420 -12 OFFCURVE",
"367 -12 CURVE SMOOTH",
"280 -12 LINE SMOOTH",
"221 -12 OFFCURVE",
"192 -6 OFFCURVE",
"192 33 CURVE SMOOTH"
);
}
);
width = 620;
},
{
layerId = "156B637B-193E-48A3-AAC8-7B4A3960F885";
name = "Bold Condensed";
paths = (
{
closed = 1;
nodes = (
"237 1724 LINE",
"233 1715 OFFCURVE",
"223 1710 OFFCURVE",
"208 1710 CURVE SMOOTH",
"181 1710 OFFCURVE",
"156 1725 OFFCURVE",
"156 1750 CURVE SMOOTH",
"156 1757 OFFCURVE",
"157 1763 OFFCURVE",
"160 1769 CURVE",
"185 1829 OFFCURVE",
"218 1913 OFFCURVE",
"233 1950 CURVE SMOOTH",
"248 1987 OFFCURVE",
"270 2038 OFFCURVE",
"282 2058 CURVE SMOOTH",
"294 2078 OFFCURVE",
"312 2100 OFFCURVE",
"329 2107 CURVE SMOOTH",
"337 2110 OFFCURVE",
"346 2112 OFFCURVE",
"357 2112 CURVE SMOOTH",
"367 2112 OFFCURVE",
"377 2105 OFFCURVE",
"386 2092 CURVE SMOOTH",
"405 2065 OFFCURVE",
"424 2005 OFFCURVE",
"438 1954 CURVE SMOOTH",
"445 1928 OFFCURVE",
"453 1895 OFFCURVE",
"464 1855 CURVE SMOOTH",
"474 1814 OFFCURVE",
"483 1782 OFFCURVE",
"490 1757 CURVE SMOOTH",
"492 1750 OFFCURVE",
"493 1744 OFFCURVE",
"493 1739 CURVE SMOOTH",
"493 1711 OFFCURVE",
"470 1696 OFFCURVE",
"446 1696 CURVE SMOOTH",
"432 1696 OFFCURVE",
"423 1701 OFFCURVE",
"420 1710 CURVE",
"340 1986 LINE"
);
},
{
closed = 1;
nodes = (
"541 50 LINE",
"522 13 OFFCURVE",
"468 -7 OFFCURVE",
"433 -10 CURVE SMOOTH",
"416 -11 OFFCURVE",
"393 -12 OFFCURVE",
"366 -12 CURVE SMOOTH",
"302 -12 LINE SMOOTH",
"271 -12 OFFCURVE",
"257 -11 OFFCURVE",
"234 -3 CURVE SMOOTH",
"211 5 OFFCURVE",
"200 24 OFFCURVE",
"200 55 CURVE SMOOTH",
"200 1245 LINE SMOOTH",
"200 1268 OFFCURVE",
"195 1303 OFFCURVE",
"186 1349 CURVE SMOOTH",
"177 1395 OFFCURVE",
"172 1430 OFFCURVE",
"172 1454 CURVE SMOOTH",
"172 1461 LINE",
"195 1498 OFFCURVE",
"212 1522 OFFCURVE",
"223 1533 CURVE",
"240 1533 OFFCURVE",
"265 1536 OFFCURVE",
"299 1542 CURVE SMOOTH",
"333 1548 OFFCURVE",
"358 1551 OFFCURVE",
"375 1551 CURVE SMOOTH",
"416 1551 OFFCURVE",
"469 1524 OFFCURVE",
"469 1484 CURVE SMOOTH",
"469 1443 OFFCURVE",
"438 1423 OFFCURVE",
"376 1423 CURVE SMOOTH",
"369 1423 OFFCURVE",
"360 1423 OFFCURVE",
"347 1424 CURVE SMOOTH",
"334 1425 OFFCURVE",
"324 1425 OFFCURVE",
"317 1425 CURVE SMOOTH",
"307 1425 OFFCURVE",
"300 1425 OFFCURVE",
"295 1424 CURVE",
"295 1387 OFFCURVE",
"298 1330 OFFCURVE",
"303 1255 CURVE SMOOTH",
"308 1180 OFFCURVE",
"311 1123 OFFCURVE",
"311 1086 CURVE SMOOTH",
"311 1059 OFFCURVE",
"309 1019 OFFCURVE",
"306 967 CURVE SMOOTH",
"303 914 OFFCURVE",
"301 876 OFFCURVE",
"301 852 CURVE",
"308 853 OFFCURVE",
"318 856 OFFCURVE",
"331 859 CURVE",
"356 866 OFFCURVE",
"377 870 OFFCURVE",
"397 870 CURVE SMOOTH",
"428 870 OFFCURVE",
"457 844 OFFCURVE",
"457 813 CURVE SMOOTH",
"457 780 OFFCURVE",
"435 750 OFFCURVE",
"403 750 CURVE SMOOTH",
"399 750 OFFCURVE",
"391 750 OFFCURVE",
"380 751 CURVE SMOOTH",
"368 752 OFFCURVE",
"359 752 OFFCURVE",
"352 752 CURVE SMOOTH",
"332 752 OFFCURVE",
"318 747 OFFCURVE",
"310 737 CURVE",
"310 105 LINE",
"380 109 OFFCURVE",
"418 111 OFFCURVE",
"424 111 CURVE SMOOTH",
"502 111 OFFCURVE",
"541 93 OFFCURVE",
"541 57 CURVE SMOOTH"
);
}
);
width = 718;
}
);
note = Ecircumflex;
unicode = 00CA;
},
